<svg width="2708" height="1742" xmlns="http://www.w3.org/2000/svg" xmlns:xlink="http://www.w3.org/1999/xlink" xml:space="preserve" overflow="hidden"><g transform="translate(-802 -375)"><g><rect x="817.5" y="382.5" width="2579" height="1141" stroke="#000000" stroke-width="4.58333" stroke-linecap="butt" stroke-linejoin="miter" stroke-miterlimit="8" stroke-opacity="1" fill="#FFFFFF" fill-opacity="1"/><text fill="#000000" fill-opacity="1" font-family="Arial,Arial_MSFontService,sans-serif" font-style="normal" font-variant="normal" font-weight="400" font-stretch="normal" font-size="73" text-anchor="start" direction="ltr" writing-mode="lr-tb" unicode-bidi="normal" text-decoration="none" transform="matrix(1 0 0 1 849.933 470)">Information exposed by the </text><text fill="#000000" fill-opacity="1" font-family="Arial,Arial_MSFontService,sans-serif" font-style="normal" font-variant="normal" font-weight="700" font-stretch="normal" font-size="73" text-anchor="start" direction="ltr" writing-mode="lr-tb" unicode-bidi="normal" text-decoration="none" transform="matrix(1 0 0 1 1755.71 470)">World</text><text fill="#000000" fill-opacity="1" font-family="Arial,Arial_MSFontService,sans-serif" font-style="normal" font-variant="normal" font-weight="400" font-stretch="normal" font-size="73" text-anchor="start" direction="ltr" writing-mode="lr-tb" unicode-bidi="normal" text-decoration="none" transform="matrix(1 0 0 1 1982.98 470)">Web</text><text fill="#000000" fill-opacity="1" font-family="Arial,Arial_MSFontService,sans-serif" font-style="normal" font-variant="normal" font-weight="400" font-stretch="normal" font-size="73" text-anchor="start" direction="ltr" writing-mode="lr-tb" unicode-bidi="normal" text-decoration="none" transform="matrix(1 0 0 1 2132.33 470)">-</text><text fill="#000000" fill-opacity="1" font-family="Arial,Arial_MSFontService,sans-serif" font-style="normal" font-variant="normal" font-weight="400" font-stretch="normal" font-size="73" text-anchor="start" direction="ltr" writing-mode="lr-tb" unicode-bidi="normal" text-decoration="none" transform="matrix(1 0 0 1 2156.96 470)">API and endpoint</text><rect x="817" y="702" width="2579" height="818" fill="#70C7DA" fill-opacity="1"/><rect x="817.5" y="1520.5" width="2579" height="567" stroke="#000000" stroke-width="4.58333" stroke-linecap="butt" stroke-linejoin="miter" stroke-miterlimit="8" stroke-opacity="1" fill="#FFFFFF" fill-opacity="1"/><text fill="#000000" fill-opacity="1" font-family="Arial,Arial_MSFontService,sans-serif" font-style="normal" font-variant="normal" font-weight="400" font-stretch="normal" font-size="73" text-anchor="start" direction="ltr" writing-mode="lr-tb" unicode-bidi="normal" text-decoration="none" transform="matrix(1 0 0 1 849.933 2053)">Optional shared </text><text fill="#000000" fill-opacity="1" font-family="Arial,Arial_MSFontService,sans-serif" font-style="normal" font-variant="normal" font-weight="700" font-stretch="normal" font-size="73" text-anchor="start" direction="ltr" writing-mode="lr-tb" unicode-bidi="normal" text-decoration="none" transform="matrix(1 0 0 1 1387.9 2053)">UserManifest</text><text fill="#000000" fill-opacity="1" font-family="Arial,Arial_MSFontService,sans-serif" font-style="normal" font-variant="normal" font-weight="400" font-stretch="normal" font-size="73" text-anchor="start" direction="ltr" writing-mode="lr-tb" unicode-bidi="normal" text-decoration="none" transform="matrix(1 0 0 1 1869.15 2053)">and </text><text fill="#000000" fill-opacity="1" font-family="Arial,Arial_MSFontService,sans-serif" font-style="normal" font-variant="normal" font-weight="700" font-stretch="normal" font-size="73" text-anchor="start" direction="ltr" writing-mode="lr-tb" unicode-bidi="normal" text-decoration="none" transform="matrix(1 0 0 1 2011.81 2053)">SpatialAsset</text><text fill="#000000" fill-opacity="1" font-family="Arial,Arial_MSFontService,sans-serif" font-style="normal" font-variant="normal" font-weight="400" font-stretch="normal" font-size="73" text-anchor="start" direction="ltr" writing-mode="lr-tb" unicode-bidi="normal" text-decoration="none" transform="matrix(1 0 0 1 2472.43 2053)">links to agnostic endpoints</text><path d="M2823 1119.5C2823 1083.33 2852.33 1054 2888.5 1054L3121.5 1054C3157.67 1054 3187 1083.33 3187 1119.5L3187 1119.5C3187 1155.67 3157.67 1185 3121.5 1185L2888.5 1185C2852.33 1185 2823 1155.67 2823 1119.5Z" stroke="#4472C4" stroke-width="2.29167" stroke-linecap="butt" stroke-linejoin="miter" stroke-miterlimit="8" stroke-opacity="1" fill="#00B2DB" fill-rule="evenodd" fill-opacity="1"/><text fill="#FFFFFF" fill-opacity="1" font-family="Arial,Arial_MSFontService,sans-serif" font-style="normal" font-variant="normal" font-weight="400" font-stretch="normal" font-size="55" text-anchor="start" direction="ltr" writing-mode="lr-tb" unicode-bidi="normal" text-decoration="none" transform="matrix(1 0 0 1 2925.87 1139)">spatial</text><path d="M2823 1422C2823 1386.1 2852.1 1357 2888 1357L3122 1357C3157.9 1357 3187 1386.1 3187 1422L3187 1422C3187 1457.9 3157.9 1487 3122 1487L2888 1487C2852.1 1487 2823 1457.9 2823 1422Z" stroke="#4472C4" stroke-width="2.29167" stroke-linecap="butt" stroke-linejoin="miter" stroke-miterlimit="8" stroke-opacity="1" fill="#00B2DB" fill-rule="evenodd" fill-opacity="1"/><text fill="#FFFFFF" fill-opacity="1" font-family="Arial,Arial_MSFontService,sans-serif" font-style="normal" font-variant="normal" font-weight="400" font-stretch="normal" font-size="55" text-anchor="start" direction="ltr" writing-mode="lr-tb" unicode-bidi="normal" text-decoration="none" transform="matrix(1 0 0 1 2944.2 1442)">node</text><path d="M3.4375-3.59491e-05 3.43923 165.738-3.43577 165.739-3.4375 3.59491e-05ZM-13.75 0.000143797C-13.7501-7.59377-7.59406-13.7499-0.000143797-13.75 7.59377-13.7501 13.7499-7.59406 13.75-0.000143797 13.7501 7.59377 7.59406 13.7499 0.000143797 13.75-7.59377 13.7501-13.7499 7.59406-13.75 0.000143797ZM19.0124 139.97 0.00180507 172.561-19.0094 139.971C-19.966 138.331-19.4122 136.226-17.7723 135.27-16.1325 134.313-14.0276 134.867-13.071 136.507L2.97096 164.006-2.96752 164.007 13.0739 136.506 13.0739 136.506C14.0304 134.867 16.1353 134.313 17.7751 135.269 19.415 136.226 19.9689 138.331 19.0124 139.97Z" fill="#000000" fill-rule="nonzero" fill-opacity="1" transform="matrix(-1 0 0 1 3005.5 1185.5)"/><path d="M2107.75 702.296 3000.11 1049.51 2997.62 1055.91 2105.25 708.703ZM2101.51 718.314C2094.44 715.56 2090.93 707.591 2093.69 700.514 2096.44 693.437 2104.41 689.932 2111.49 692.686 2118.56 695.439 2122.07 703.409 2119.31 710.486 2116.56 717.563 2108.59 721.068 2101.51 718.314ZM2981.74 1025.64 3005.21 1055.18 2967.95 1061.08C2966.07 1061.38 2964.31 1060.1 2964.02 1058.22 2963.72 1056.35 2965 1054.58 2966.87 1054.29L2998.32 1049.31 2996.17 1054.84 2976.35 1029.92C2975.17 1028.44 2975.42 1026.27 2976.91 1025.09 2978.39 1023.91 2980.55 1024.16 2981.74 1025.64Z" fill="#000000" fill-rule="nonzero" fill-opacity="1"/><path d="M1437 1121.5C1437 1085.33 1466.33 1056 1502.5 1056L1735.5 1056C1771.67 1056 1801 1085.33 1801 1121.5L1801 1121.5C1801 1157.67 1771.67 1187 1735.5 1187L1502.5 1187C1466.33 1187 1437 1157.67 1437 1121.5Z" stroke="#4472C4" stroke-width="2.29167" stroke-linecap="butt" stroke-linejoin="miter" stroke-miterlimit="8" stroke-opacity="1" fill="#00B2DB" fill-rule="evenodd" fill-opacity="1"/><text fill="#FFFFFF" fill-opacity="1" font-family="Arial,Arial_MSFontService,sans-serif" font-style="normal" font-variant="normal" font-weight="400" font-stretch="normal" font-size="55" text-anchor="start" direction="ltr" writing-mode="lr-tb" unicode-bidi="normal" text-decoration="none" transform="matrix(1 0 0 1 1565.94 1142)">user</text><path d="M1899 1120.5C1899 1084.33 1928.33 1055 1964.5 1055L2197.5 1055C2233.68 1055 2263 1084.33 2263 1120.5L2263 1120.5C2263 1156.67 2233.67 1186 2197.5 1186L1964.5 1186C1928.33 1186 1899 1156.67 1899 1120.5Z" stroke="#4472C4" stroke-width="2.29167" stroke-linecap="butt" stroke-linejoin="miter" stroke-miterlimit="8" stroke-opacity="1" fill="#00B2DB" fill-rule="evenodd" fill-opacity="1"/><text fill="#FFFFFF" fill-opacity="1" font-family="Arial,Arial_MSFontService,sans-serif" font-style="normal" font-variant="normal" font-weight="400" font-stretch="normal" font-size="55" text-anchor="start" direction="ltr" writing-mode="lr-tb" unicode-bidi="normal" text-decoration="none" transform="matrix(1 0 0 1 2026.56 1140)">view</text><path d="M2361 1120.5C2361 1084.33 2390.33 1055 2426.5 1055L2659.5 1055C2695.67 1055 2725 1084.33 2725 1120.5L2725 1120.5C2725 1156.67 2695.67 1186 2659.5 1186L2426.5 1186C2390.33 1186 2361 1156.67 2361 1120.5Z" stroke="#4472C4" stroke-width="2.29167" stroke-linecap="butt" stroke-linejoin="miter" stroke-miterlimit="8" stroke-opacity="1" fill="#00B2DB" fill-rule="evenodd" fill-opacity="1"/><text fill="#FFFFFF" fill-opacity="1" font-family="Arial,Arial_MSFontService,sans-serif" font-style="normal" font-variant="normal" font-weight="400" font-stretch="normal" font-size="55" text-anchor="start" direction="ltr" writing-mode="lr-tb" unicode-bidi="normal" text-decoration="none" transform="matrix(1 0 0 1 2474.64 1140)">portal</text><rect x="1359" y="1712" width="514" height="137" stroke="#7F7F7F" stroke-width="2.29167" stroke-linecap="butt" stroke-linejoin="miter" stroke-miterlimit="8" stroke-opacity="1" fill="#0098CB" fill-opacity="1"/><text fill="#FFFFFF" fill-opacity="1" font-family="Arial,Arial_MSFontService,sans-serif" font-style="normal" font-variant="normal" font-weight="400" font-stretch="normal" font-size="73" text-anchor="start" direction="ltr" writing-mode="lr-tb" unicode-bidi="normal" text-decoration="none" transform="matrix(1 0 0 1 1389.43 1807)">User Manifest</text><path d="M3.43742-0.0228684 6.88523 518.23 0.0103868 518.276-3.43742 0.0228684ZM-13.7497 0.0914735C-13.8002-7.50227-7.68522-13.6992-0.0914735-13.7497 7.50227-13.8002 13.6992-7.68522 13.7497-0.0914735 13.8002 7.50227 7.68522 13.6992 0.0914735 13.7497-7.50227 13.8002-13.6992 7.68522-13.7497 0.0914735ZM22.2869 492.357 3.49319 525.073-15.7341 492.61-15.7341 492.61C-16.7016 490.977-16.1617 488.868-14.5282 487.901-12.8948 486.933-10.7863 487.473-9.81881 489.106L6.40545 516.499 0.467101 516.539 16.3255 488.932 16.3255 488.932C17.2711 487.286 19.3722 486.718 21.0184 487.664 22.6646 488.61 23.2325 490.711 22.2869 492.357Z" fill="#000000" fill-rule="nonzero" fill-opacity="1" transform="matrix(-1 0 0 1 1619.99 1187.5)"/><path d="M2.01289-2.78652 483.499 345.024 479.473 350.597-2.01289 2.78652ZM-8.05157 11.1461C-14.2074 6.69931-15.5928-1.89577-11.1461-8.05157-6.69931-14.2074 1.89577-15.5928 8.05157-11.1461 14.2074-6.69931 15.5928 1.89577 11.1461 8.05157 6.69931 14.2074-1.89577 15.5928-8.05157 11.1461ZM471.733 317.313 487.019 351.808 449.469 348.134C447.579 347.95 446.197 346.268 446.382 344.379 446.567 342.489 448.249 341.107 450.138 341.292L481.824 344.392 478.346 349.205 465.448 320.099C464.678 318.363 465.462 316.332 467.198 315.563 468.933 314.794 470.964 315.577 471.733 317.313Z" fill="#000000" fill-rule="nonzero" fill-opacity="1" transform="matrix(-1 0 0 1 2106.51 705.5)"/><path d="M3.42882-0.244114 27.9052 343.551 21.0476 344.039-3.42882 0.244114ZM-13.7153 0.976458C-14.2546-6.59829-8.5512-13.176-0.976458-13.7153 6.59829-14.2546 13.176-8.5512 13.7153-0.976458 14.2546 6.59829 8.5512 13.176 0.976458 13.7153-6.59829 14.2546-13.176 8.5512-13.7153 0.976458ZM41.6093 316.741 24.9608 350.599 3.6835 319.441C2.61287 317.873 3.0159 315.734 4.5837 314.664 6.15149 313.593 8.29035 313.996 9.36098 315.564L27.3151 341.855 21.3916 342.277 35.4398 313.707C36.2775 312.003 38.3377 311.301 40.0414 312.139 41.7451 312.977 42.447 315.037 41.6093 316.741Z" fill="#000000" fill-rule="nonzero" fill-opacity="1" transform="matrix(-1 0 0 1 2106.46 705.5)"/><path d="M2108.65 702.819 2540.22 1049.15 2535.91 1054.51 2104.35 708.181ZM2097.89 716.224C2091.97 711.471 2091.02 702.817 2095.78 696.894 2100.53 690.971 2109.18 690.023 2115.11 694.776 2121.03 699.529 2121.98 708.183 2117.22 714.106 2112.47 720.028 2103.82 720.977 2097.89 716.224ZM2529.86 1020.87 2543.38 1056.09 2506.07 1050.52C2504.19 1050.24 2502.89 1048.49 2503.17 1046.61 2503.45 1044.74 2505.2 1043.44 2507.08 1043.72L2538.57 1048.42 2534.85 1053.05 2523.44 1023.33C2522.76 1021.56 2523.65 1019.57 2525.42 1018.89 2527.19 1018.21 2529.18 1019.1 2529.86 1020.87Z" fill="#000000" fill-rule="nonzero" fill-opacity="1"/><path d="M995 1123C995 1087.1 1024.1 1058 1060 1058L1294 1058C1329.9 1058 1359 1087.1 1359 1123 1359 1158.9 1329.9 1188 1294 1188L1060 1188C1024.1 1188 995 1158.9 995 1123Z" stroke="#4472C4" stroke-width="2.29167" stroke-linecap="butt" stroke-linejoin="miter" stroke-miterlimit="8" stroke-opacity="1" fill="#00B2DB" fill-rule="evenodd" fill-opacity="1"/><text fill="#FFFFFF" fill-opacity="1" font-family="Arial,Arial_MSFontService,sans-serif" font-style="normal" font-variant="normal" font-weight="400" font-stretch="normal" font-size="55" text-anchor="start" direction="ltr" writing-mode="lr-tb" unicode-bidi="normal" text-decoration="none" transform="matrix(1 0 0 1 1077.85 1143)">webApp</text><path d="M2545.72 1183.88 2561.47 1197.19 2557.03 1202.44 2541.28 1189.12ZM2566.72 1201.63 2582.46 1214.95 2578.02 1220.2 2562.28 1206.88ZM2587.71 1219.39 2603.46 1232.71 2599.02 1237.96 2583.27 1224.64ZM2608.71 1237.15 2624.46 1250.47 2620.02 1255.72 2604.27 1242.4ZM2629.71 1254.91 2645.46 1268.23 2641.02 1273.48 2625.27 1260.16ZM2650.71 1272.67 2666.45 1285.99 2662.01 1291.24 2646.27 1277.92ZM2671.7 1290.43 2687.45 1303.75 2683.01 1309 2667.26 1295.68ZM2692.7 1308.19 2708.45 1321.51 2704.01 1326.76 2688.26 1313.44ZM2713.7 1325.95 2729.44 1339.26 2725 1344.51 2709.26 1331.19ZM2734.69 1343.7 2750.44 1357.02 2746 1362.27 2730.25 1348.95ZM2755.69 1361.46 2771.44 1374.78 2767 1380.03 2751.25 1366.71ZM2776.69 1379.22 2792.44 1392.54 2788 1397.79 2772.25 1384.47ZM2797.68 1396.98 2813.43 1410.3 2808.99 1415.55 2793.24 1402.23ZM2818.68 1414.74 2820.46 1416.24 2816.02 1421.49 2814.24 1419.99ZM2534.62 1197C2528.82 1192.09 2528.1 1183.42 2533 1177.62 2537.91 1171.82 2546.58 1171.1 2552.38 1176 2558.18 1180.91 2558.9 1189.58 2554 1195.38 2549.09 1201.18 2540.42 1201.9 2534.62 1197ZM2810.84 1387.71 2823.45 1423.27 2786.29 1416.74C2784.42 1416.42 2783.17 1414.63 2783.5 1412.76 2783.83 1410.89 2785.61 1409.64 2787.48 1409.97L2818.84 1415.48 2815 1420.02 2804.36 1390.01C2803.73 1388.22 2804.67 1386.26 2806.45 1385.62 2808.24 1384.99 2810.21 1385.92 2810.84 1387.71Z" fill="#000000" fill-rule="nonzero" fill-opacity="1"/><path d="M2082.55 1183.23 2102.19 1189.5 2100.1 1196.05 2080.45 1189.77ZM2108.74 1191.59 2128.39 1197.86 2126.3 1204.41 2106.65 1198.14ZM2134.94 1199.95 2154.59 1206.22 2152.5 1212.77 2132.85 1206.5ZM2161.14 1208.31 2180.79 1214.58 2178.7 1221.13 2159.05 1214.86ZM2187.34 1216.67 2206.98 1222.95 2204.89 1229.49 2185.25 1223.22ZM2213.53 1225.04 2233.18 1231.31 2231.09 1237.86 2211.44 1231.59ZM2239.73 1233.4 2259.38 1239.67 2257.29 1246.22 2237.64 1239.95ZM2265.93 1241.76 2285.58 1248.03 2283.49 1254.58 2263.84 1248.31ZM2292.13 1250.12 2311.78 1256.39 2309.69 1262.94 2290.04 1256.67ZM2318.33 1258.48 2337.97 1264.76 2335.88 1271.3 2316.24 1265.03ZM2344.52 1266.85 2364.17 1273.12 2362.08 1279.67 2342.43 1273.4ZM2370.72 1275.21 2390.37 1281.48 2388.28 1288.03 2368.63 1281.76ZM2396.92 1283.57 2416.57 1289.84 2414.48 1296.39 2394.83 1290.12ZM2423.12 1291.93 2442.77 1298.2 2440.67 1304.75 2421.03 1298.48ZM2449.31 1300.29 2468.96 1306.57 2466.87 1313.12 2447.22 1306.84ZM2475.51 1308.66 2495.16 1314.93 2493.07 1321.48 2473.42 1315.21ZM2501.71 1317.02 2521.36 1323.29 2519.27 1329.84 2499.62 1323.57ZM2527.91 1325.38 2547.56 1331.65 2545.47 1338.2 2525.82 1331.93ZM2554.11 1333.74 2573.75 1340.01 2571.66 1346.56 2552.02 1340.29ZM2580.3 1342.1 2599.95 1348.38 2597.86 1354.93 2578.21 1348.65ZM2606.5 1350.47 2626.15 1356.74 2624.06 1363.29 2604.41 1357.02ZM2632.7 1358.83 2652.35 1365.1 2650.26 1371.65 2630.61 1365.38ZM2658.9 1367.19 2678.55 1373.46 2676.46 1380.01 2656.81 1373.74ZM2685.1 1375.55 2704.74 1381.82 2702.65 1388.37 2683 1382.1ZM2711.29 1383.91 2730.94 1390.19 2728.85 1396.74 2709.2 1390.46ZM2737.49 1392.28 2757.14 1398.55 2755.05 1405.1 2735.4 1398.83ZM2763.69 1400.64 2783.34 1406.91 2781.25 1413.46 2761.6 1407.19ZM2789.89 1409 2809.53 1415.27 2807.44 1421.82 2787.8 1415.55ZM2816.08 1417.36 2817.82 1417.92 2815.73 1424.47 2813.99 1423.91ZM2077.32 1199.6C2070.08 1197.29 2066.09 1189.55 2068.4 1182.32 2070.71 1175.08 2078.45 1171.09 2085.68 1173.4 2092.92 1175.71 2096.91 1183.45 2094.6 1190.68 2092.29 1197.92 2084.55 1201.91 2077.32 1199.6ZM2798.02 1395.25 2823.28 1423.27 2786.45 1431.47C2784.6 1431.88 2782.76 1430.71 2782.35 1428.86 2781.94 1427.01 2783.11 1425.17 2784.96 1424.76L2816.04 1417.84 2814.23 1423.5 2792.91 1399.85C2791.64 1398.44 2791.75 1396.27 2793.16 1395 2794.57 1393.73 2796.74 1393.84 2798.02 1395.25Z" fill="#000000" fill-rule="nonzero" fill-opacity="1"/><rect x="817" y="574" width="2579" height="131" stroke="#4472C4" stroke-width="2.29167" stroke-linecap="butt" stroke-linejoin="miter" stroke-miterlimit="8" stroke-opacity="1" fill="#0098CB" fill-opacity="1"/><text fill="#FFFFFF" fill-opacity="1" font-family="Arial,Arial_MSFontService,sans-serif" font-style="normal" font-variant="normal" font-weight="400" font-stretch="normal" font-size="73" text-anchor="start" direction="ltr" writing-mode="lr-tb" unicode-bidi="normal" text-decoration="none" transform="matrix(1 0 0 1 2011.22 667)">World</text><path d="M1.22187-3.21301 924.418 347.869 921.974 354.295-1.22187 3.21301ZM-4.8875 12.852C-11.9855 10.1527-15.5513 2.21048-12.852-4.8875-10.1527-11.9855-2.21048-15.5513 4.8875-12.852 11.9855-10.1527 15.5513-2.21048 12.852 4.8875 10.1527 11.9855 2.21048 15.5513-4.8875 12.852ZM905.864 324.151 929.568 353.505 892.349 359.69C890.476 360.001 888.705 358.735 888.394 356.863 888.083 354.99 889.349 353.219 891.222 352.908L922.628 347.689 920.517 353.24 900.515 328.471C899.322 326.994 899.553 324.829 901.03 323.637 902.507 322.444 904.671 322.674 905.864 324.151Z" fill="#000000" fill-rule="nonzero" fill-opacity="1" transform="matrix(-1 0 0 1 2107.05 705.5)"/><text fill="#000000" fill-opacity="1" font-family="Trebuchet MS,Trebuchet MS_MSFontService,sans-serif" font-style="normal" font-variant="normal" font-weight="700" font-stretch="normal" font-size="37" text-anchor="start" direction="ltr" writing-mode="lr-tb" unicode-bidi="normal" text-decoration="none" transform="matrix(1 0 0 1 1090.32 1036)">1</text><text fill="#000000" fill-opacity="1" font-family="Trebuchet MS,Trebuchet MS_MSFontService,sans-serif" font-style="normal" font-variant="normal" font-weight="700" font-stretch="normal" font-size="37" text-anchor="start" direction="ltr" writing-mode="lr-tb" unicode-bidi="normal" text-decoration="none" transform="matrix(1 0 0 1 1112.09 1036)">-</text><text fill="#000000" fill-opacity="1" font-family="Trebuchet MS,Trebuchet MS_MSFontService,sans-serif" font-style="normal" font-variant="normal" font-weight="700" font-stretch="normal" font-size="37" text-anchor="start" direction="ltr" writing-mode="lr-tb" unicode-bidi="normal" text-decoration="none" transform="matrix(1 0 0 1 1125.84 1036)">n</text><text fill="#000000" fill-opacity="1" font-family="Trebuchet MS,Trebuchet MS_MSFontService,sans-serif" font-style="normal" font-variant="normal" font-weight="700" font-stretch="normal" font-size="37" text-anchor="start" direction="ltr" writing-mode="lr-tb" unicode-bidi="normal" text-decoration="none" transform="matrix(1 0 0 1 1517.92 1038)">0</text><text fill="#000000" fill-opacity="1" font-family="Trebuchet MS,Trebuchet MS_MSFontService,sans-serif" font-style="normal" font-variant="normal" font-weight="700" font-stretch="normal" font-size="37" text-anchor="start" direction="ltr" writing-mode="lr-tb" unicode-bidi="normal" text-decoration="none" transform="matrix(1 0 0 1 1539.69 1038)">-</text><text fill="#000000" fill-opacity="1" font-family="Trebuchet MS,Trebuchet MS_MSFontService,sans-serif" font-style="normal" font-variant="normal" font-weight="700" font-stretch="normal" font-size="37" text-anchor="start" direction="ltr" writing-mode="lr-tb" unicode-bidi="normal" text-decoration="none" transform="matrix(1 0 0 1 1553.44 1038)">n</text><text fill="#000000" fill-opacity="1" font-family="Trebuchet MS,Trebuchet MS_MSFontService,sans-serif" font-style="normal" font-variant="normal" font-weight="700" font-stretch="normal" font-size="37" text-anchor="start" direction="ltr" writing-mode="lr-tb" unicode-bidi="normal" text-decoration="none" transform="matrix(1 0 0 1 2110.97 1033)">0</text><text fill="#000000" fill-opacity="1" font-family="Trebuchet MS,Trebuchet MS_MSFontService,sans-serif" font-style="normal" font-variant="normal" font-weight="700" font-stretch="normal" font-size="37" text-anchor="start" direction="ltr" writing-mode="lr-tb" unicode-bidi="normal" text-decoration="none" transform="matrix(1 0 0 1 2132.74 1033)">-</text><text fill="#000000" fill-opacity="1" font-family="Trebuchet MS,Trebuchet MS_MSFontService,sans-serif" font-style="normal" font-variant="normal" font-weight="700" font-stretch="normal" font-size="37" text-anchor="start" direction="ltr" writing-mode="lr-tb" unicode-bidi="normal" text-decoration="none" transform="matrix(1 0 0 1 2146.49 1033)">n</text><text fill="#000000" fill-opacity="1" font-family="Trebuchet MS,Trebuchet MS_MSFontService,sans-serif" font-style="normal" font-variant="normal" font-weight="700" font-stretch="normal" font-size="37" text-anchor="start" direction="ltr" writing-mode="lr-tb" unicode-bidi="normal" text-decoration="none" transform="matrix(1 0 0 1 2564.88 1030)">0</text><text fill="#000000" fill-opacity="1" font-family="Trebuchet MS,Trebuchet MS_MSFontService,sans-serif" font-style="normal" font-variant="normal" font-weight="700" font-stretch="normal" font-size="37" text-anchor="start" direction="ltr" writing-mode="lr-tb" unicode-bidi="normal" text-decoration="none" transform="matrix(1 0 0 1 2586.65 1030)">-</text><text fill="#000000" fill-opacity="1" font-family="Trebuchet MS,Trebuchet MS_MSFontService,sans-serif" font-style="normal" font-variant="normal" font-weight="700" font-stretch="normal" font-size="37" text-anchor="start" direction="ltr" writing-mode="lr-tb" unicode-bidi="normal" text-decoration="none" transform="matrix(1 0 0 1 2600.4 1030)">n</text><text fill="#000000" fill-opacity="1" font-family="Trebuchet MS,Trebuchet MS_MSFontService,sans-serif" font-style="normal" font-variant="normal" font-weight="700" font-stretch="normal" font-size="37" text-anchor="start" direction="ltr" writing-mode="lr-tb" unicode-bidi="normal" text-decoration="none" transform="matrix(1 0 0 1 3034.63 1036)">0</text><text fill="#000000" fill-opacity="1" font-family="Trebuchet MS,Trebuchet MS_MSFontService,sans-serif" font-style="normal" font-variant="normal" font-weight="700" font-stretch="normal" font-size="37" text-anchor="start" direction="ltr" writing-mode="lr-tb" unicode-bidi="normal" text-decoration="none" transform="matrix(1 0 0 1 3056.4 1036)">-</text><text fill="#000000" fill-opacity="1" font-family="Trebuchet MS,Trebuchet MS_MSFontService,sans-serif" font-style="normal" font-variant="normal" font-weight="700" font-stretch="normal" font-size="37" text-anchor="start" direction="ltr" writing-mode="lr-tb" unicode-bidi="normal" text-decoration="none" transform="matrix(1 0 0 1 3070.15 1036)">n</text><text fill="#000000" fill-opacity="1" font-family="Trebuchet MS,Trebuchet MS_MSFontService,sans-serif" font-style="normal" font-variant="normal" font-weight="700" font-stretch="normal" font-size="37" text-anchor="start" direction="ltr" writing-mode="lr-tb" unicode-bidi="normal" text-decoration="none" transform="matrix(1 0 0 1 3233.89 1296)">0</text><text fill="#000000" fill-opacity="1" font-family="Trebuchet MS,Trebuchet MS_MSFontService,sans-serif" font-style="normal" font-variant="normal" font-weight="700" font-stretch="normal" font-size="37" text-anchor="start" direction="ltr" writing-mode="lr-tb" unicode-bidi="normal" text-decoration="none" transform="matrix(1 0 0 1 3255.66 1296)">-</text><text fill="#000000" fill-opacity="1" font-family="Trebuchet MS,Trebuchet MS_MSFontService,sans-serif" font-style="normal" font-variant="normal" font-weight="700" font-stretch="normal" font-size="37" text-anchor="start" direction="ltr" writing-mode="lr-tb" unicode-bidi="normal" text-decoration="none" transform="matrix(1 0 0 1 3269.41 1296)">n</text><text fill="#000000" fill-opacity="1" font-family="Trebuchet MS,Trebuchet MS_MSFontService,sans-serif" font-style="normal" font-variant="normal" font-weight="700" font-stretch="normal" font-size="37" text-anchor="start" direction="ltr" writing-mode="lr-tb" unicode-bidi="normal" text-decoration="none" transform="matrix(1 0 0 1 2932.84 1266)">0</text><text fill="#000000" fill-opacity="1" font-family="Trebuchet MS,Trebuchet MS_MSFontService,sans-serif" font-style="normal" font-variant="normal" font-weight="700" font-stretch="normal" font-size="37" text-anchor="start" direction="ltr" writing-mode="lr-tb" unicode-bidi="normal" text-decoration="none" transform="matrix(1 0 0 1 2954.62 1266)">-</text><text fill="#000000" fill-opacity="1" font-family="Trebuchet MS,Trebuchet MS_MSFontService,sans-serif" font-style="normal" font-variant="normal" font-weight="700" font-stretch="normal" font-size="37" text-anchor="start" direction="ltr" writing-mode="lr-tb" unicode-bidi="normal" text-decoration="none" transform="matrix(1 0 0 1 2968.37 1266)">n</text><path d="M3180.02 1423.21 3195.41 1421.55 3194.9 1421.65 3202.44 1419.66 3202.14 1419.75 3209.5 1417.06 3209.22 1417.17 3216.34 1413.83 3216.08 1413.97 3222.9 1410.03 3222.66 1410.18 3229.12 1405.7 3228.89 1405.87 3234.92 1400.91 3234.71 1401.1 3240.26 1395.7 3240.06 1395.91 3245.06 1390.14 3244.87 1390.38 3249.28 1384.28 3249.1 1384.55 3252.83 1378.18 3252.67 1378.49 3255.68 1371.9 3255.55 1372.26 3257.77 1365.51 3257.67 1365.9 3259.05 1359.05 3258.99 1359.49 3259.46 1352.58 3259.46 1353 3259.27 1349.55 3259.31 1349.91 3258.74 1346.46 3258.86 1346.96 3256.65 1340.1 3256.88 1340.65 3253.31 1333.9 3253.58 1334.33 3248.76 1327.74 3249.02 1328.06 3243.04 1321.69 3243.29 1321.94 3236.24 1315.84 3236.48 1316.03 3228.46 1310.25 3228.69 1310.4 3219.79 1305.01 3220.01 1305.12 3210.34 1300.16 3210.55 1300.26 3200.2 1295.78 3200.4 1295.86 3189.48 1291.92 3189.68 1291.99 3178.27 1288.64 3178.47 1288.69 3166.67 1286 3166.88 1286.04 3154.79 1284.05 3155.01 1284.08 3142.73 1282.84 3142.95 1282.86 3130.58 1282.44 3130.83 1282.44 3118.45 1282.91 3118.7 1282.89 3106.42 1284.27 3106.66 1284.23 3094.57 1286.46 3094.8 1286.41 3083 1289.42 3083.22 1289.36 3071.82 1293.09 3072.03 1293.01 3061.11 1297.42 3061.32 1297.32 3050.97 1302.33 3051.19 1302.21 3041.52 1307.76 3041.74 1307.63 3032.85 1313.66 3033.07 1313.49 3025.05 1319.95 3025.29 1319.74 3018.24 1326.56 3018.48 1326.3 3012.49 1333.42 3012.74 1333.09 3007.91 1340.45 3008.14 1340.04 3004.58 1347.58 3004.77 1347.06 3002.56 1354.73 3002.66 1354.28 3002.52 1355.22 2995.72 1354.22 2995.89 1353.05 2998.24 1344.89 3002.03 1336.88 3007.1 1329.15 3013.33 1321.74 3020.62 1314.69 3028.87 1308.05 3037.99 1301.86 3047.87 1296.19 3058.43 1291.08 3069.57 1286.59 3081.19 1282.79 3093.21 1279.72 3105.53 1277.45 3118.06 1276.04 3130.69 1275.56 3143.3 1275.99 3155.8 1277.25 3168.1 1279.27 3180.1 1282.02 3191.71 1285.42 3202.84 1289.43 3213.38 1293.99 3223.26 1299.07 3232.37 1304.6 3240.62 1310.54 3247.92 1316.86 3254.18 1323.51 3259.28 1330.47 3263.1 1337.71 3265.48 1345.09 3266.12 1348.98 3266.33 1352.84 3265.83 1360.18 3264.37 1367.46 3262.02 1374.59 3258.85 1381.51 3254.95 1388.17 3250.36 1394.52 3245.16 1400.53 3239.4 1406.13 3233.15 1411.27 3226.46 1415.91 3219.4 1419.99 3212.01 1423.46 3204.35 1426.26 3196.4 1428.36 3180.76 1430.05ZM3181.77 1440.31C3174.22 1441.07 3167.47 1435.57 3166.71 1428.01 3165.95 1420.46 3171.45 1413.71 3179.01 1412.95 3186.56 1412.18 3193.31 1417.69 3194.07 1425.25 3194.83 1432.8 3189.33 1439.55 3181.77 1440.31ZM3020.4 1330.79 2998.5 1361.52 2982.53 1327.33C2981.73 1325.61 2982.47 1323.57 2984.19 1322.76 2985.91 1321.96 2987.96 1322.7 2988.76 1324.42L3002.23 1353.27 2996.32 1352.73 3014.8 1326.8C3015.9 1325.26 3018.05 1324.9 3019.59 1326 3021.14 1327.1 3021.5 1329.25 3020.4 1330.79Z" fill="#000000" fill-rule="nonzero" fill-opacity="1"/><text fill="#000000" fill-opacity="1" font-family="Trebuchet MS,Trebuchet MS_MSFontService,sans-serif" font-style="normal" font-variant="normal" font-weight="700" font-stretch="normal" font-size="37" text-anchor="start" direction="ltr" writing-mode="lr-tb" unicode-bidi="normal" text-decoration="none" transform="matrix(1 0 0 1 3286.93 1644)">0</text><text fill="#000000" fill-opacity="1" font-family="Trebuchet MS,Trebuchet MS_MSFontService,sans-serif" font-style="normal" font-variant="normal" font-weight="700" font-stretch="normal" font-size="37" text-anchor="start" direction="ltr" writing-mode="lr-tb" unicode-bidi="normal" text-decoration="none" transform="matrix(1 0 0 1 3308.7 1644)">-</text><text fill="#000000" fill-opacity="1" font-family="Trebuchet MS,Trebuchet MS_MSFontService,sans-serif" font-style="normal" font-variant="normal" font-weight="700" font-stretch="normal" font-size="37" text-anchor="start" direction="ltr" writing-mode="lr-tb" unicode-bidi="normal" text-decoration="none" transform="matrix(1 0 0 1 3322.45 1644)">n</text><path d="M995 1364C995 1328.1 1024.1 1299 1060 1299L1294 1299C1329.9 1299 1359 1328.1 1359 1364 1359 1399.9 1329.9 1429 1294 1429L1060 1429C1024.1 1429 995 1399.9 995 1364Z" stroke="#7F7F7F" stroke-width="2.29167" stroke-linecap="butt" stroke-linejoin="miter" stroke-miterlimit="8" stroke-opacity="1" fill="#CFE2F4" fill-rule="evenodd" fill-opacity="1"/><text fill="#0563C1" fill-opacity="1" font-family="Arial,Arial_MSFontService,sans-serif" font-style="normal" font-variant="normal" font-weight="400" font-stretch="normal" font-size="55" text-anchor="start" direction="ltr" writing-mode="lr-tb" unicode-bidi="normal" text-decoration="underline" transform="matrix(1 0 0 1 1024.28 1384)">AppManifest</text><path d="M3.4375-1.12247e-05 3.43784 103.715-3.43716 103.715-3.4375 1.12247e-05ZM-13.75 4.48987e-05C-13.75-7.59387-7.59396-13.75-4.48987e-05-13.75 7.59387-13.75 13.75-7.59396 13.75-4.48987e-05 13.75 7.59387 7.59396 13.75 4.48987e-05 13.75-7.59387 13.75-13.75 7.59396-13.75 4.48987e-05ZM19.0112 77.9472 0.000360793 110.537-19.0107 77.9474C-19.9672 76.3075-19.4133 74.2027-17.7735 73.2461-16.1336 72.2895-14.0288 72.8434-13.0722 74.4832L2.96957 101.983-2.96891 101.983 13.0727 74.4831C14.0293 72.8433 16.1341 72.2894 17.774 73.2459 19.4138 74.2025 19.9677 76.3074 19.0112 77.9472Z" fill="#000000" fill-rule="nonzero" fill-opacity="1" transform="matrix(-1 0 0 1 1177.5 1188.5)"/><path d="M2254 1666C2254 1630.1 2283.1 1601 2319 1601L2553 1601C2588.9 1601 2618 1630.1 2618 1666 2618 1701.9 2588.9 1731 2553 1731L2319 1731C2283.1 1731 2254 1701.9 2254 1666Z" stroke="#7F7F7F" stroke-width="2.29167" stroke-linecap="butt" stroke-linejoin="miter" stroke-miterlimit="8" stroke-opacity="1" fill="#CFE2F4" fill-rule="evenodd" fill-opacity="1"/><text fill="#0563C1" fill-opacity="1" font-family="Arial,Arial_MSFontService,sans-serif" font-style="normal" font-variant="normal" font-weight="400" font-stretch="normal" font-size="55" text-anchor="start" direction="ltr" writing-mode="lr-tb" unicode-bidi="normal" text-decoration="underline" transform="matrix(1 0 0 1 2283.53 1686)">AppManifest</text><path d="M6.87498-0.015107 7.6775 365.197-6.07247 365.228-6.87498 0.015107ZM-20.625 0.0453211C-20.65-11.3455-11.4362-20.5999-0.0453211-20.625 11.3455-20.65 20.5999-11.4362 20.625-0.0453211 20.65 11.3455 11.4362 20.5999 0.0453211 20.625-11.3455 20.65-20.5999 11.4362-20.625 0.0453211ZM21.4124 358.292 0.878051 399.588-19.8375 358.383Z" fill="#ED7D31" fill-rule="nonzero" fill-opacity="1" transform="matrix(-1 0 0 1 2543.88 1193)"/><path d="M2591 1690C2591 1654.1 2620.1 1625 2656 1625L2695 1625C2730.9 1625 2760 1654.1 2760 1690L2760 1690C2760 1725.9 2730.9 1755 2695 1755L2656 1755C2620.1 1755 2591 1725.9 2591 1690Z" stroke="#0098CB" stroke-width="2.29167" stroke-linecap="butt" stroke-linejoin="miter" stroke-miterlimit="8" stroke-opacity="1" fill="#0098CB" fill-rule="evenodd" fill-opacity="1"/><text fill="#FFFFFF" fill-opacity="1" font-family="Arial,Arial_MSFontService,sans-serif" font-style="normal" font-variant="normal" font-weight="400" font-stretch="normal" font-size="55" text-anchor="start" direction="ltr" writing-mode="lr-tb" unicode-bidi="normal" text-decoration="none" transform="matrix(1 0 0 1 2614.8 1710)">node</text><path d="M3011.87 1486.93 3013.88 1689.1 3000.13 1689.24 2998.13 1487.07ZM2984.38 1487.21C2984.26 1475.81 2993.4 1466.49 3004.79 1466.38 3016.19 1466.26 3025.51 1475.4 3025.62 1486.8 3025.74 1498.19 3016.6 1507.51 3005.21 1507.62 2993.81 1507.74 2984.49 1498.6 2984.38 1487.21ZM3027.56 1682.09 3007.35 1723.54 2986.32 1682.5Z" fill="#B7C8DC" fill-rule="nonzero" fill-opacity="1"/><path d="M3182.81 1773.34 3205.74 1769.69 3204.46 1770.02 3211.82 1767.33 3211.26 1767.56 3218.38 1764.22 3217.86 1764.49 3224.68 1760.55 3224.2 1760.86 3230.66 1756.38 3230.21 1756.72 3236.24 1751.75 3235.81 1752.13 3241.36 1746.74 3240.96 1747.16 3245.97 1741.39 3245.59 1741.87 3249.99 1735.77 3249.63 1736.31 3253.37 1729.94 3253.05 1730.56 3256.06 1723.97 3255.78 1724.68 3258.01 1717.93 3257.8 1718.73 3259.18 1711.87 3259.06 1712.76 3259.53 1705.84 3259.52 1706.69 3259.33 1703.24 3259.41 1703.97 3258.85 1700.52 3259.09 1701.51 3256.88 1694.66 3257.34 1695.76 3253.77 1689.01 3254.31 1689.86 3249.48 1683.27 3250.02 1683.92 3244.03 1677.55 3244.54 1678.04 3237.49 1671.94 3237.97 1672.32 3229.95 1666.54 3230.4 1666.84 3221.51 1661.44 3221.94 1661.68 3212.27 1656.72 3212.68 1656.91 3202.34 1652.43 3202.74 1652.59 3191.81 1648.65 3192.21 1648.78 3180.8 1645.44 3181.2 1645.55 3169.41 1642.85 3169.82 1642.93 3157.73 1640.94 3158.16 1641 3145.88 1639.76 3146.34 1639.79 3133.96 1639.37 3134.46 1639.37 3122.08 1639.84 3122.58 1639.81 3110.3 1641.19 3110.78 1641.11 3098.7 1643.34 3099.15 1643.24 3087.35 1646.25 3087.79 1646.12 3076.39 1649.86 3076.81 1649.7 3065.89 1654.1 3066.32 1653.92 3055.97 1658.92 3056.4 1658.69 3046.73 1664.24 3047.17 1663.97 3038.28 1670 3038.73 1669.67 3030.71 1676.12 3031.87 1674.93 3021.93 1687.98 3010.99 1679.65 3021.44 1665.94 3030.33 1658.78 3039.66 1652.45 3049.76 1646.65 3060.54 1641.44 3071.89 1636.86 3083.73 1632.98 3095.98 1629.86 3108.53 1627.55 3121.3 1626.11 3134.18 1625.62 3147.03 1626.06 3159.76 1627.34 3172.26 1629.4 3184.47 1632.19 3196.28 1635.65 3207.6 1639.73 3218.35 1644.38 3228.44 1649.56 3237.77 1655.23 3246.26 1661.34 3253.81 1667.87 3260.33 1674.81 3265.7 1682.14 3269.78 1689.87 3272.33 1697.78 3273.04 1702.11 3273.28 1706.36 3272.74 1714.14 3271.19 1721.84 3268.72 1729.34 3265.41 1736.59 3261.33 1743.55 3256.56 1750.16 3251.16 1756.39 3245.2 1762.19 3238.73 1767.51 3231.8 1772.32 3224.49 1776.54 3216.83 1780.14 3208.56 1783.16 3184.97 1786.92ZM3186.87 1800.54C3175.6 1802.18 3165.13 1794.38 3163.48 1783.11 3161.83 1771.84 3169.64 1761.37 3180.91 1759.72 3192.18 1758.07 3202.65 1765.87 3204.3 1777.15 3205.95 1788.42 3198.14 1798.89 3186.87 1800.54ZM3038.07 1686.26 3002 1715 3000.65 1668.9Z" fill="#B7C8DC" fill-rule="nonzero" fill-opacity="1"/><path d="M2.64158-6.34726 300.298 117.53 295.015 130.225-2.64158 6.34726ZM-7.92473 19.0418C-18.4412 14.6651-23.4185 2.59175-19.0418-7.92473-14.6651-18.4412-2.59175-23.4185 7.92473-19.0418 18.4412-14.6651 23.4185-2.59175 19.0418 7.92473 14.6651 18.4412 2.59175 23.4185-7.92473 19.0418ZM299.234 102.194 329.393 137.085 283.384 140.278Z" fill="#B7C8DC" fill-rule="nonzero" fill-opacity="1" transform="matrix(-1 0 0 1 3005.39 1487)"/><path d="M1895 1357C1895 1321.1 1924.1 1292 1960 1292L2194 1292C2229.9 1292 2259 1321.1 2259 1357L2259 1357C2259 1392.9 2229.9 1422 2194 1422L1960 1422C1924.1 1422 1895 1392.9 1895 1357Z" stroke="#7F7F7F" stroke-width="2.29167" stroke-linecap="butt" stroke-linejoin="miter" stroke-miterlimit="8" stroke-opacity="1" fill="#CFE2F4" fill-rule="evenodd" fill-opacity="1"/><text fill="#0563C1" fill-opacity="1" font-family="Arial,Arial_MSFontService,sans-serif" font-style="normal" font-variant="normal" font-weight="400" font-stretch="normal" font-size="55" text-anchor="start" direction="ltr" writing-mode="lr-tb" unicode-bidi="normal" text-decoration="underline" transform="matrix(1 0 0 1 1962.38 1377)">GeoPose</text><path d="M3.4375-1.12247e-05 3.43784 103.715-3.43716 103.715-3.4375 1.12247e-05ZM-13.75 4.48987e-05C-13.75-7.59387-7.59396-13.75-4.48987e-05-13.75 7.59387-13.75 13.75-7.59396 13.75-4.48987e-05 13.75 7.59387 7.59396 13.75 4.48987e-05 13.75-7.59387 13.75-13.75 7.59396-13.75 4.48987e-05ZM19.0112 77.9472 0.000360793 110.537-19.0107 77.9474C-19.9672 76.3075-19.4133 74.2027-17.7735 73.2461-16.1336 72.2895-14.0288 72.8434-13.0722 74.4832L2.96957 101.983-2.96891 101.983 13.0727 74.4831C14.0293 72.8433 16.1341 72.2894 17.774 73.2459 19.4138 74.2025 19.9677 76.3074 19.0112 77.9472Z" fill="#000000" fill-rule="nonzero" fill-opacity="1" transform="matrix(-1 0 0 1 2077.5 1186.5)"/><rect x="2399" y="1728" width="276" height="131" stroke="#4472C4" stroke-width="2.29167" stroke-linecap="butt" stroke-linejoin="miter" stroke-miterlimit="8" stroke-opacity="1" fill="#0098CB" fill-opacity="1"/><text fill="#FFFFFF" fill-opacity="1" font-family="Arial,Arial_MSFontService,sans-serif" font-style="normal" font-variant="normal" font-weight="400" font-stretch="normal" font-size="73" text-anchor="start" direction="ltr" writing-mode="lr-tb" unicode-bidi="normal" text-decoration="none" transform="matrix(1 0 0 1 2442.2 1820)">World</text><rect x="2772" y="1728" width="472" height="131" stroke="#4472C4" stroke-width="2.29167" stroke-linecap="butt" stroke-linejoin="miter" stroke-miterlimit="8" stroke-opacity="1" fill="#0098CB" fill-opacity="1"/><text fill="#FFFFFF" fill-opacity="1" font-family="Arial,Arial_MSFontService,sans-serif" font-style="normal" font-variant="normal" font-weight="400" font-stretch="normal" font-size="73" text-anchor="start" direction="ltr" writing-mode="lr-tb" unicode-bidi="normal" text-decoration="none" transform="matrix(1 0 0 1 2796.1 1820)">Spatial Asset</text><path d="M1.94464-2.83457 15.4342 6.4199 18.0019 10.1872 18.6212 11.2305 12.7091 14.7395 12.1448 13.7888 12.2603 13.9703 10.1168 10.8253 11.0127 11.7239-1.94464 2.83457ZM22.0461 17.3921 22.4412 18.1433 24.6173 22.7492 26.7703 27.7684 28.9024 33.196 30.217 36.8242 23.7532 39.1662 22.4543 35.5812 22.4867 35.667 20.3908 30.3316 20.4311 30.4298 18.3236 25.5166 18.3746 25.6299 16.2565 21.1468 16.3222 21.2785 15.9614 20.5926ZM32.4848 43.3987 33.1084 45.2537 35.183 51.8714 37.2386 58.8728 38.4689 63.3312 31.8416 65.1601 30.6187 60.7287 30.6341 60.7826 28.5953 53.8381 28.6135 53.8981 26.5588 47.3439 26.5806 47.411 25.9682 45.5895ZM40.2559 70.022 41.2933 74.0089 45.1528 90.1257 38.4668 91.7268 34.6152 75.6426 34.6314 75.7078 33.6025 71.7533ZM46.6304 96.9185 49.1398 108.537 50.8341 117.177 44.0876 118.5 42.3996 109.893 42.4129 109.957 39.9103 98.3699ZM52.1572 123.923 52.9236 127.831 55.8657 144.269 49.0982 145.48 46.1611 129.07 46.1716 129.126 45.4107 125.246ZM57.0463 151.093 60.1717 170.158 60.3727 171.493 53.5743 172.517 53.3766 171.203 53.3836 171.248 50.2619 152.205ZM61.3961 178.292 63.6201 193.066 64.4051 198.737 57.595 199.68 56.8128 194.029 56.8186 194.069 54.5977 179.315ZM65.3478 205.547 66.9405 217.053 68.0834 226.027 61.2634 226.896 60.123 217.941 60.1279 217.978 58.5377 206.49ZM68.9519 232.847 70.1248 242.058 71.4478 253.355 64.6195 254.155 63.2985 242.875 63.3027 242.909 62.132 233.716ZM72.2475 260.184 73.1647 268.016 74.5302 280.714 67.6946 281.449 66.3308 268.767 66.3344 268.799 65.4192 260.983ZM75.2652 287.55 76.0517 294.864 77.3553 308.1 70.5135 308.773 69.2113 295.553 69.2144 295.583 68.4296 288.285ZM78.0292 314.941 78.7775 322.539 79.9432 335.507 73.0958 336.122 71.9314 323.169 71.9342 323.198 71.1873 315.615ZM80.5587 342.354 81.3337 350.977 82.3096 362.933 75.4574 363.492 74.4827 351.55 74.4851 351.578 73.7113 342.97ZM82.8689 369.785 83.712 380.115 84.4673 390.375 77.6109 390.88 76.8566 380.633 76.8587 380.661 76.0167 370.344ZM84.972 397.232 85.9039 409.89 86.4265 417.832 79.5663 418.283 79.0446 410.355 79.0464 410.381 78.1156 397.736ZM86.8779 424.692 87.9009 440.238 88.1952 445.301 81.3318 445.7 81.0382 440.65 81.0398 440.676 80.0178 425.144ZM88.5942 452.165 89.6946 471.095 89.7799 472.782 82.9136 473.129 82.829 471.455 82.8304 471.481 81.7308 452.564ZM90.1269 479.648 91.1679 500.247 84.3017 500.594 83.2606 479.995ZM91.4805 507.14 92.3661 527.746 85.4975 528.042 84.6118 507.436ZM92.6582 534.641 93.3881 555.253 86.5174 555.496 85.7875 534.884ZM93.6314 562.124 93.7719 566.094 94.1708 582.781 87.2978 582.945 86.8994 566.278 86.9006 566.318 86.7607 562.367ZM94.3351 589.654 94.8279 610.273 87.9549 610.438 87.462 589.818ZM94.9922 617.146 95.3185 630.798 95.3757 637.821 88.5009 637.877 88.444 630.881 88.4448 630.935 88.1192 617.311ZM95.4316 644.696 95.5994 665.32 88.7246 665.376 88.5568 644.752ZM95.6553 672.195 95.8231 692.82 88.9483 692.875 88.7805 672.251ZM95.8221 699.747 95.6723 720.372 88.7974 720.322 88.9473 699.697ZM95.6223 727.247 95.4725 747.871 88.5977 747.821 88.7475 727.197ZM95.4226 754.746 95.3755 761.236 95.0729 775.416 88.1994 775.269 88.5015 761.114 88.5008 761.162 88.5478 754.696ZM94.9262 782.289 94.4862 802.91 87.6128 802.763 88.0528 782.143ZM94.3395 809.783 93.9949 825.935 93.8526 830.437 86.981 830.22 87.1227 825.736 87.1218 825.771 87.4661 809.636ZM93.6353 837.309 92.9837 857.924 86.1121 857.706 86.7638 837.092ZM92.7193 864.817 91.9285 885.427 85.0586 885.163 85.8494 864.553ZM91.6459 892.319 90.7162 912.923 83.8482 912.613 84.7779 892.009ZM90.4064 919.791 90.3552 920.926 89.3439 940.412 82.4782 940.055 83.4888 920.581 83.4877 920.604 83.5384 919.481ZM88.9876 947.278 88.754 951.78 87.8074 967.892 80.9443 967.489 81.8901 951.389 81.8888 951.412 82.1219 946.921ZM87.4042 974.755 86.9713 982.125 86.1013 995.363 79.2411 994.912 80.1103 981.686 80.1088 981.71 80.5411 974.352ZM85.6505 1002.22 85.0147 1011.9 84.2186 1022.82 77.3618 1022.32 78.157 1011.41 78.1553 1011.43 78.7903 1001.77ZM83.719 1029.68 82.8918 1041.03 82.1505 1050.27 75.2975 1049.72 76.0378 1040.49 76.0359 1040.52 76.8622 1029.18ZM81.6005 1057.12 80.6099 1069.47 79.8858 1077.7 73.0372 1077.1 73.7602 1068.88 73.758 1068.9 74.7476 1056.57ZM79.2836 1084.55 78.1767 1097.14 77.4107 1105.12 70.5672 1104.46 71.3319 1096.5 71.3294 1096.52 72.435 1083.95ZM76.7538 1111.96 75.5997 1123.98 74.7078 1132.51 67.8701 1131.8 68.7604 1123.28 68.7575 1123.31 69.9102 1111.31ZM73.993 1139.35 72.8863 1149.94 71.7552 1159.89 64.9242 1159.11 66.0535 1149.18 66.0501 1149.21 67.1553 1138.64ZM70.9786 1166.72 70.0439 1174.94 68.5251 1187.23 61.702 1186.39 63.2188 1174.11 63.2148 1174.15 64.1476 1165.94ZM67.6819 1194.05 67.08 1198.92 64.9817 1214.54 58.168 1213.62 60.2639 1198.03 60.2592 1198.06 60.8588 1193.21ZM64.066 1221.35 64.0021 1221.83 61.0791 1241.8 54.2766 1240.8 57.1966 1220.85 57.191 1220.89 57.2523 1220.43ZM60.0107 1248.64 57.5329 1264.14 56.6754 1269.04 49.9035 1267.86 50.7565 1262.98 50.7481 1263.03 53.2218 1247.55ZM55.4898 1275.81 54.156 1283.43 51.7042 1296.15 44.9536 1294.85 47.3998 1282.16 47.3891 1282.22 48.7178 1274.63ZM50.3578 1302.96 47.1537 1317.95 45.941 1323.17 39.2443 1321.61 40.4502 1316.42 40.437 1316.48 43.6347 1301.52ZM44.3191 1329.89 43.5361 1333.07 41.7023 1340.07 39.8517 1346.68 38.8674 1349.96 32.2826 1347.99 33.2577 1344.74 33.2398 1344.8 35.0741 1338.24 35.0592 1338.3 36.8793 1331.35 36.8668 1331.4 37.6437 1328.25ZM36.7914 1356.59 36.1005 1358.73 34.1993 1364.15 32.2797 1369.16 30.3398 1373.76 29.1881 1376.21 22.965 1373.29 24.0877 1370.9 24.0319 1371.03 25.9228 1366.54 25.88 1366.65 27.7615 1361.74 27.7278 1361.83 29.599 1356.49 29.5721 1356.57 30.2501 1354.48ZM25.8228 1382.63 24.3493 1385.05 22.2609 1387.97 20.0919 1390.46 18.47 1391.92 13.8708 1386.81 15.3362 1385.49 15.0417 1385.79 16.9657 1383.58 16.764 1383.83 18.6833 1381.15 18.5425 1381.36 19.9497 1379.05ZM-7.2778 11.666C-13.7208 7.64661-15.6854-0.834833-11.666-7.2778-7.64661-13.7208 0.834833-15.6854 7.2778-11.666 13.7208-7.64661 15.6854 0.834833 11.666 7.2778 7.64661 13.7208-0.834833 15.6854-7.2778 11.666ZM47.3356 1396.72 9.89691 1392.05 32.3962 1361.76C33.5283 1360.24 35.6815 1359.92 37.2055 1361.05 38.7295 1362.18 39.0471 1364.34 37.915 1365.86L18.9298 1391.42 16.5965 1385.95 48.1878 1389.9C50.0717 1390.14 51.408 1391.85 51.1727 1393.74 50.9374 1395.62 49.2195 1396.96 47.3356 1396.72Z" fill="#000000" fill-rule="nonzero" fill-opacity="1" transform="matrix(1.83697e-16 1 1 -1.83697e-16 1616.5 1849.5)"/><text fill="#000000" fill-opacity="1" font-family="Trebuchet MS,Trebuchet MS_MSFontService,sans-serif" font-style="normal" font-variant="normal" font-weight="700" font-stretch="normal" font-size="37" text-anchor="start" direction="ltr" writing-mode="lr-tb" unicode-bidi="normal" text-decoration="none" transform="matrix(1 0 0 1 1996.45 1903)">avatar</text><text fill="#000000" fill-opacity="1" font-family="Trebuchet MS,Trebuchet MS_MSFontService,sans-serif" font-style="normal" font-variant="normal" font-weight="700" font-stretch="normal" font-size="37" text-anchor="start" direction="ltr" writing-mode="lr-tb" unicode-bidi="normal" text-decoration="none" transform="matrix(1 0 0 1 2118.44 1900)">0</text><text fill="#000000" fill-opacity="1" font-family="Trebuchet MS,Trebuchet MS_MSFontService,sans-serif" font-style="normal" font-variant="normal" font-weight="700" font-stretch="normal" font-size="37" text-anchor="start" direction="ltr" writing-mode="lr-tb" unicode-bidi="normal" text-decoration="none" transform="matrix(1 0 0 1 2140.21 1900)">-</text><text fill="#000000" fill-opacity="1" font-family="Trebuchet MS,Trebuchet MS_MSFontService,sans-serif" font-style="normal" font-variant="normal" font-weight="700" font-stretch="normal" font-size="37" text-anchor="start" direction="ltr" writing-mode="lr-tb" unicode-bidi="normal" text-decoration="none" transform="matrix(1 0 0 1 2153.96 1900)">n</text></g></g></svg>