<svg width="2708" height="1737" xmlns="http://www.w3.org/2000/svg" xmlns:xlink="http://www.w3.org/1999/xlink" xml:space="preserve" overflow="hidden"><g transform="translate(-1430 -394)"><g><rect x="1442.5" y="1533.5" width="2579" height="566" stroke="#000000" stroke-width="4.58333" stroke-linecap="butt" stroke-linejoin="miter" stroke-miterlimit="8" stroke-opacity="1" fill="#FFFFFF" fill-opacity="1"/><text fill="#000000" fill-opacity="1" font-family="Arial,Arial_MSFontService,sans-serif" font-style="normal" font-variant="normal" font-weight="400" font-stretch="normal" font-size="73" text-anchor="start" direction="ltr" writing-mode="lr-tb" unicode-bidi="normal" text-decoration="none" transform="matrix(1 0 0 1 1475.2 2066)">Optional shared </text><text fill="#000000" fill-opacity="1" font-family="Arial,Arial_MSFontService,sans-serif" font-style="normal" font-variant="normal" font-weight="700" font-stretch="normal" font-size="73" text-anchor="start" direction="ltr" writing-mode="lr-tb" unicode-bidi="normal" text-decoration="none" transform="matrix(1 0 0 1 2013.16 2066)">UserManifest</text><text fill="#000000" fill-opacity="1" font-family="Arial,Arial_MSFontService,sans-serif" font-style="normal" font-variant="normal" font-weight="400" font-stretch="normal" font-size="73" text-anchor="start" direction="ltr" writing-mode="lr-tb" unicode-bidi="normal" text-decoration="none" transform="matrix(1 0 0 1 2494.41 2066)">and </text><text fill="#000000" fill-opacity="1" font-family="Arial,Arial_MSFontService,sans-serif" font-style="normal" font-variant="normal" font-weight="700" font-stretch="normal" font-size="73" text-anchor="start" direction="ltr" writing-mode="lr-tb" unicode-bidi="normal" text-decoration="none" transform="matrix(1 0 0 1 2637.07 2066)">SpatialAsset</text><text fill="#000000" fill-opacity="1" font-family="Arial,Arial_MSFontService,sans-serif" font-style="normal" font-variant="normal" font-weight="400" font-stretch="normal" font-size="73" text-anchor="start" direction="ltr" writing-mode="lr-tb" unicode-bidi="normal" text-decoration="none" transform="matrix(1 0 0 1 3097.7 2066)">links to agnostic endpoints</text><rect x="1442.5" y="401.5" width="2579" height="1140" stroke="#000000" stroke-width="4.58333" stroke-linecap="butt" stroke-linejoin="miter" stroke-miterlimit="8" stroke-opacity="1" fill="#FFFFFF" fill-opacity="1"/><text fill="#000000" fill-opacity="1" font-family="Arial,Arial_MSFontService,sans-serif" font-style="normal" font-variant="normal" font-weight="400" font-stretch="normal" font-size="73" text-anchor="start" direction="ltr" writing-mode="lr-tb" unicode-bidi="normal" text-decoration="none" transform="matrix(1 0 0 1 1475.2 488)">Information exposed by the </text><text fill="#000000" fill-opacity="1" font-family="Arial,Arial_MSFontService,sans-serif" font-style="normal" font-variant="normal" font-weight="700" font-stretch="normal" font-size="73" text-anchor="start" direction="ltr" writing-mode="lr-tb" unicode-bidi="normal" text-decoration="none" transform="matrix(1 0 0 1 2380.98 488)">World</text><text fill="#000000" fill-opacity="1" font-family="Arial,Arial_MSFontService,sans-serif" font-style="normal" font-variant="normal" font-weight="400" font-stretch="normal" font-size="73" text-anchor="start" direction="ltr" writing-mode="lr-tb" unicode-bidi="normal" text-decoration="none" transform="matrix(1 0 0 1 2608.24 488)">Web</text><text fill="#000000" fill-opacity="1" font-family="Arial,Arial_MSFontService,sans-serif" font-style="normal" font-variant="normal" font-weight="400" font-stretch="normal" font-size="73" text-anchor="start" direction="ltr" writing-mode="lr-tb" unicode-bidi="normal" text-decoration="none" transform="matrix(1 0 0 1 2757.59 488)">-</text><text fill="#000000" fill-opacity="1" font-family="Arial,Arial_MSFontService,sans-serif" font-style="normal" font-variant="normal" font-weight="400" font-stretch="normal" font-size="73" text-anchor="start" direction="ltr" writing-mode="lr-tb" unicode-bidi="normal" text-decoration="none" transform="matrix(1 0 0 1 2782.23 488)">API and endpoint</text><path d="M3448 1132C3448 1096.1 3477.1 1067 3513 1067L3747 1067C3782.9 1067 3812 1096.1 3812 1132 3812 1167.9 3782.9 1197 3747 1197L3513 1197C3477.1 1197 3448 1167.9 3448 1132Z" stroke="#00B2DB" stroke-width="2.29167" stroke-linecap="butt" stroke-linejoin="miter" stroke-miterlimit="8" stroke-opacity="1" fill="#00B2DB" fill-rule="evenodd" fill-opacity="1"/><text fill="#FFFFFF" fill-opacity="1" font-family="Arial,Arial_MSFontService,sans-serif" font-style="normal" font-variant="normal" font-weight="400" font-stretch="normal" font-size="55" text-anchor="start" direction="ltr" writing-mode="lr-tb" unicode-bidi="normal" text-decoration="none" transform="matrix(1 0 0 1 3551.13 1152)">spatial</text><path d="M3448 1435C3448 1399.1 3477.1 1370 3513 1370L3747 1370C3782.9 1370 3812 1399.1 3812 1435 3812 1470.9 3782.9 1500 3747 1500L3513 1500C3477.1 1500 3448 1470.9 3448 1435Z" stroke="#00B2DB" stroke-width="2.29167" stroke-linecap="butt" stroke-linejoin="miter" stroke-miterlimit="8" stroke-opacity="1" fill="#00B2DB" fill-rule="evenodd" fill-opacity="1"/><text fill="#FFFFFF" fill-opacity="1" font-family="Arial,Arial_MSFontService,sans-serif" font-style="normal" font-variant="normal" font-weight="400" font-stretch="normal" font-size="55" text-anchor="start" direction="ltr" writing-mode="lr-tb" unicode-bidi="normal" text-decoration="none" transform="matrix(1 0 0 1 3569.46 1455)">node</text><path d="M3.4375-3.59491e-05 3.43923 165.738-3.43577 165.739-3.4375 3.59491e-05ZM-13.75 0.000143797C-13.7501-7.59377-7.59406-13.7499-0.000143797-13.75 7.59377-13.7501 13.7499-7.59406 13.75-0.000143797 13.7501 7.59377 7.59406 13.7499 0.000143797 13.75-7.59377 13.7501-13.7499 7.59406-13.75 0.000143797ZM19.0124 139.97 0.00180507 172.561-19.0094 139.971C-19.966 138.331-19.4122 136.226-17.7723 135.27-16.1325 134.313-14.0276 134.867-13.071 136.507L2.97096 164.006-2.96752 164.007 13.0739 136.506 13.0739 136.506C14.0304 134.867 16.1353 134.313 17.7751 135.269 19.415 136.226 19.9689 138.331 19.0124 139.97Z" fill="#000000" fill-rule="nonzero" fill-opacity="1" transform="matrix(-1 0 0 1 3630.5 1197.5)"/><path d="M2708.72 714.285 3626.02 1061.55 3623.59 1067.98 2706.28 720.715ZM2702.63 730.359C2695.53 727.671 2691.95 719.734 2694.64 712.632 2697.33 705.53 2705.27 701.952 2712.37 704.641 2719.47 707.329 2723.05 715.266 2720.36 722.368 2717.67 729.47 2709.73 733.048 2702.63 730.359ZM3607.43 1037.86 3631.17 1067.18 3593.96 1073.42C3592.09 1073.73 3590.32 1072.47 3590 1070.6 3589.69 1068.73 3590.95 1066.95 3592.83 1066.64L3624.22 1061.37 3622.12 1066.93 3602.08 1042.19C3600.89 1040.71 3601.11 1038.55 3602.59 1037.35 3604.07 1036.16 3606.23 1036.39 3607.43 1037.86Z" fill="#000000" fill-rule="nonzero" fill-opacity="1"/><path d="M2063 1134C2063 1098.1 2092.1 1069 2128 1069L2361 1069C2396.9 1069 2426 1098.1 2426 1134 2426 1169.9 2396.9 1199 2361 1199L2128 1199C2092.1 1199 2063 1169.9 2063 1134Z" stroke="#00B2DB" stroke-width="2.29167" stroke-linecap="butt" stroke-linejoin="miter" stroke-miterlimit="8" stroke-opacity="1" fill="#00B2DB" fill-rule="evenodd" fill-opacity="1"/><text fill="#FFFFFF" fill-opacity="1" font-family="Arial,Arial_MSFontService,sans-serif" font-style="normal" font-variant="normal" font-weight="400" font-stretch="normal" font-size="55" text-anchor="start" direction="ltr" writing-mode="lr-tb" unicode-bidi="normal" text-decoration="none" transform="matrix(1 0 0 1 2191.2 1154)">user</text><path d="M2525 1133C2525 1097.1 2554.1 1068 2590 1068L2823 1068C2858.9 1068 2888 1097.1 2888 1133 2888 1168.9 2858.9 1198 2823 1198L2590 1198C2554.1 1198 2525 1168.9 2525 1133Z" stroke="#00B2DB" stroke-width="2.29167" stroke-linecap="butt" stroke-linejoin="miter" stroke-miterlimit="8" stroke-opacity="1" fill="#00B2DB" fill-rule="evenodd" fill-opacity="1"/><text fill="#FFFFFF" fill-opacity="1" font-family="Arial,Arial_MSFontService,sans-serif" font-style="normal" font-variant="normal" font-weight="400" font-stretch="normal" font-size="55" text-anchor="start" direction="ltr" writing-mode="lr-tb" unicode-bidi="normal" text-decoration="none" transform="matrix(1 0 0 1 2651.82 1153)">view</text><path d="M2986 1133C2986 1097.1 3015.1 1068 3051 1068L3285 1068C3320.9 1068 3350 1097.1 3350 1133 3350 1168.9 3320.9 1198 3285 1198L3051 1198C3015.1 1198 2986 1168.9 2986 1133Z" stroke="#00B2DB" stroke-width="2.29167" stroke-linecap="butt" stroke-linejoin="miter" stroke-miterlimit="8" stroke-opacity="1" fill="#00B2DB" fill-rule="evenodd" fill-opacity="1"/><text fill="#FFFFFF" fill-opacity="1" font-family="Arial,Arial_MSFontService,sans-serif" font-style="normal" font-variant="normal" font-weight="400" font-stretch="normal" font-size="55" text-anchor="start" direction="ltr" writing-mode="lr-tb" unicode-bidi="normal" text-decoration="none" transform="matrix(1 0 0 1 3099.9 1153)">portal</text><rect x="1984" y="1724" width="514" height="137" stroke="#7F7F7F" stroke-width="2.29167" stroke-linecap="butt" stroke-linejoin="miter" stroke-miterlimit="8" stroke-opacity="1" fill="#0098CB" fill-opacity="1"/><text fill="#FFFFFF" fill-opacity="1" font-family="Arial,Arial_MSFontService,sans-serif" font-style="normal" font-variant="normal" font-weight="400" font-stretch="normal" font-size="73" text-anchor="start" direction="ltr" writing-mode="lr-tb" unicode-bidi="normal" text-decoration="none" transform="matrix(1 0 0 1 2014.69 1820)">User Manifest</text><path d="M3.43742-0.0228684 6.88523 518.23 0.0103868 518.276-3.43742 0.0228684ZM-13.7497 0.0914735C-13.8002-7.50227-7.68522-13.6992-0.0914735-13.7497 7.50227-13.8002 13.6992-7.68522 13.7497-0.0914735 13.8002 7.50227 7.68522 13.6992 0.0914735 13.7497-7.50227 13.8002-13.6992 7.68522-13.7497 0.0914735ZM22.2869 492.357 3.49319 525.073-15.7341 492.61-15.7341 492.61C-16.7016 490.977-16.1617 488.868-14.5282 487.901-12.8948 486.933-10.7863 487.473-9.81881 489.106L6.40545 516.499 0.467101 516.539 16.3255 488.932 16.3255 488.932C17.2711 487.286 19.3722 486.718 21.0184 487.664 22.6646 488.61 23.2325 490.711 22.2869 492.357Z" fill="#000000" fill-rule="nonzero" fill-opacity="1" transform="matrix(-1 0 0 1 2244.99 1199.5)"/><path d="M2.08239-2.73497 458.716 344.942 454.551 350.412-2.08239 2.73497ZM-8.32954 10.9399C-14.3715 6.33961-15.5402-2.2876-10.9399-8.32954-6.33961-14.3715 2.2876-15.5402 8.32954-10.9399 14.3715-6.33961 15.5402 2.2876 10.9399 8.32954 6.33961 14.3715-2.2876 15.5402-8.32954 10.9399ZM447.646 316.94 462.059 351.808 424.613 347.191C422.729 346.959 421.39 345.243 421.622 343.359 421.854 341.474 423.57 340.135 425.454 340.368L457.052 344.263 453.455 348.988 441.292 319.566C440.567 317.812 441.402 315.801 443.156 315.076 444.911 314.351 446.921 315.185 447.646 316.94Z" fill="#000000" fill-rule="nonzero" fill-opacity="1" transform="matrix(-1 0 0 1 2706.55 717.5)"/><path d="M2710.94 717.5 2710.94 1061.28 2704.06 1061.28 2704.06 717.5ZM2693.75 717.5C2693.75 709.906 2699.91 703.75 2707.5 703.75 2715.09 703.75 2721.25 709.906 2721.25 717.5 2721.25 725.094 2715.09 731.25 2707.5 731.25 2699.91 731.25 2693.75 725.094 2693.75 717.5ZM2726.51 1035.51 2707.5 1068.1 2688.49 1035.51C2687.53 1033.87 2688.09 1031.76 2689.73 1030.81 2691.37 1029.85 2693.47 1030.4 2694.43 1032.04L2710.47 1059.54 2704.53 1059.54 2720.57 1032.04C2721.53 1030.4 2723.63 1029.85 2725.27 1030.81 2726.91 1031.76 2727.47 1033.87 2726.51 1035.51Z" fill="#000000" fill-rule="nonzero" fill-opacity="1"/><path d="M2709.58 714.762 3165.99 1061.23 3161.83 1066.71 2705.42 720.238ZM2699.19 728.452C2693.14 723.86 2691.96 715.235 2696.55 709.186 2701.14 703.138 2709.76 701.956 2715.81 706.548 2721.86 711.14 2723.04 719.765 2718.45 725.814 2713.86 731.862 2705.23 733.043 2699.19 728.452ZM3154.88 1033.24 3169.34 1068.09 3131.89 1063.53C3130 1063.3 3128.66 1061.59 3128.89 1059.7 3129.12 1057.82 3130.84 1056.48 3132.72 1056.7L3164.32 1060.56 3160.73 1065.29 3148.53 1035.88C3147.8 1034.13 3148.63 1032.12 3150.39 1031.39 3152.14 1030.66 3154.15 1031.49 3154.88 1033.24Z" fill="#000000" fill-rule="nonzero" fill-opacity="1"/><path d="M1620 1136C1620 1100.1 1649.1 1071 1685 1071L1919 1071C1954.9 1071 1984 1100.1 1984 1136L1984 1136C1984 1171.9 1954.9 1201 1919 1201L1685 1201C1649.1 1201 1620 1171.9 1620 1136Z" stroke="#00B2DB" stroke-width="2.29167" stroke-linecap="butt" stroke-linejoin="miter" stroke-miterlimit="8" stroke-opacity="1" fill="#00B2DB" fill-rule="evenodd" fill-opacity="1"/><text fill="#FFFFFF" fill-opacity="1" font-family="Arial,Arial_MSFontService,sans-serif" font-style="normal" font-variant="normal" font-weight="400" font-stretch="normal" font-size="55" text-anchor="start" direction="ltr" writing-mode="lr-tb" unicode-bidi="normal" text-decoration="none" transform="matrix(1 0 0 1 1756.39 1156)">app</text><path d="M3170.72 1195.88 3186.47 1209.19 3182.03 1214.44 3166.28 1201.12ZM3191.72 1213.63 3207.46 1226.95 3203.02 1232.2 3187.28 1218.88ZM3212.71 1231.39 3228.46 1244.71 3224.02 1249.96 3208.27 1236.64ZM3233.71 1249.15 3249.46 1262.47 3245.02 1267.72 3229.27 1254.4ZM3254.71 1266.91 3270.46 1280.23 3266.02 1285.48 3250.27 1272.16ZM3275.7 1284.67 3291.45 1297.99 3287.01 1303.24 3271.27 1289.92ZM3296.7 1302.43 3312.45 1315.75 3308.01 1321 3292.26 1307.68ZM3317.7 1320.19 3333.45 1333.51 3329.01 1338.76 3313.26 1325.44ZM3338.7 1337.95 3354.44 1351.26 3350 1356.51 3334.26 1343.19ZM3359.69 1355.7 3375.44 1369.02 3371 1374.27 3355.25 1360.95ZM3380.69 1373.46 3396.44 1386.78 3392 1392.03 3376.25 1378.71ZM3401.69 1391.22 3417.44 1404.54 3413 1409.79 3397.25 1396.47ZM3422.68 1408.98 3438.43 1422.3 3433.99 1427.55 3418.24 1414.23ZM3443.68 1426.74 3445.46 1428.24 3441.02 1433.49 3439.24 1431.99ZM3159.62 1209C3153.82 1204.09 3153.1 1195.42 3158 1189.62 3162.91 1183.82 3171.58 1183.1 3177.38 1188 3183.18 1192.91 3183.9 1201.58 3179 1207.38 3174.09 1213.18 3165.42 1213.9 3159.62 1209ZM3435.84 1399.71 3448.45 1435.27 3411.29 1428.74C3409.42 1428.42 3408.17 1426.63 3408.5 1424.76 3408.83 1422.89 3410.61 1421.64 3412.48 1421.97L3443.84 1427.48 3440 1432.02 3429.36 1402.01C3428.73 1400.22 3429.67 1398.26 3431.45 1397.62 3433.24 1396.99 3435.21 1397.92 3435.84 1399.71Z" fill="#000000" fill-rule="nonzero" fill-opacity="1"/><path d="M2708.54 1195.23 2728.19 1201.5 2726.1 1208.05 2706.45 1201.77ZM2734.74 1203.59 2754.39 1209.86 2752.3 1216.41 2732.65 1210.14ZM2760.94 1211.95 2780.59 1218.22 2778.5 1224.77 2758.85 1218.5ZM2787.14 1220.31 2806.79 1226.58 2804.7 1233.13 2785.05 1226.86ZM2813.34 1228.67 2832.98 1234.95 2830.89 1241.49 2811.25 1235.22ZM2839.53 1237.04 2859.18 1243.31 2857.09 1249.86 2837.44 1243.59ZM2865.73 1245.4 2885.38 1251.67 2883.29 1258.22 2863.64 1251.95ZM2891.93 1253.76 2911.58 1260.03 2909.49 1266.58 2889.84 1260.31ZM2918.13 1262.12 2937.78 1268.39 2935.69 1274.94 2916.04 1268.67ZM2944.33 1270.48 2963.97 1276.76 2961.88 1283.3 2942.23 1277.03ZM2970.52 1278.85 2990.17 1285.12 2988.08 1291.67 2968.43 1285.4ZM2996.72 1287.21 3016.37 1293.48 3014.28 1300.03 2994.63 1293.76ZM3022.92 1295.57 3042.57 1301.84 3040.48 1308.39 3020.83 1302.12ZM3049.12 1303.93 3068.77 1310.2 3066.67 1316.75 3047.03 1310.48ZM3075.31 1312.29 3094.96 1318.57 3092.87 1325.12 3073.22 1318.84ZM3101.51 1320.66 3121.16 1326.93 3119.07 1333.48 3099.42 1327.21ZM3127.71 1329.02 3147.36 1335.29 3145.27 1341.84 3125.62 1335.57ZM3153.91 1337.38 3173.56 1343.65 3171.47 1350.2 3151.82 1343.93ZM3180.11 1345.74 3199.75 1352.01 3197.66 1358.56 3178.02 1352.29ZM3206.3 1354.1 3225.95 1360.38 3223.86 1366.93 3204.21 1360.65ZM3232.5 1362.47 3252.15 1368.74 3250.06 1375.29 3230.41 1369.02ZM3258.7 1370.83 3278.35 1377.1 3276.26 1383.65 3256.61 1377.38ZM3284.9 1379.19 3304.55 1385.46 3302.46 1392.01 3282.81 1385.74ZM3311.1 1387.55 3330.74 1393.82 3328.65 1400.37 3309 1394.1ZM3337.29 1395.91 3356.94 1402.19 3354.85 1408.74 3335.2 1402.46ZM3363.49 1404.28 3383.14 1410.55 3381.05 1417.1 3361.4 1410.83ZM3389.69 1412.64 3409.34 1418.91 3407.25 1425.46 3387.6 1419.19ZM3415.89 1421 3435.53 1427.27 3433.44 1433.82 3413.8 1427.55ZM3442.08 1429.36 3443.82 1429.92 3441.73 1436.47 3439.99 1435.91ZM2703.32 1211.6C2696.08 1209.29 2692.09 1201.55 2694.4 1194.32 2696.71 1187.08 2704.45 1183.09 2711.68 1185.4 2718.92 1187.71 2722.91 1195.45 2720.6 1202.68 2718.29 1209.92 2710.55 1213.91 2703.32 1211.6ZM3424.02 1407.25 3449.28 1435.27 3412.45 1443.47C3410.6 1443.88 3408.76 1442.71 3408.35 1440.86 3407.94 1439.01 3409.11 1437.17 3410.96 1436.76L3442.04 1429.84 3440.23 1435.5 3418.91 1411.85C3417.64 1410.44 3417.75 1408.27 3419.16 1407 3420.57 1405.73 3422.74 1405.84 3424.02 1407.25Z" fill="#000000" fill-rule="nonzero" fill-opacity="1"/><rect x="2569" y="587" width="275" height="130" stroke="#4472C4" stroke-width="2.29167" stroke-linecap="butt" stroke-linejoin="miter" stroke-miterlimit="8" stroke-opacity="1" fill="#0098CB" fill-opacity="1"/><text fill="#FFFFFF" fill-opacity="1" font-family="Arial,Arial_MSFontService,sans-serif" font-style="normal" font-variant="normal" font-weight="400" font-stretch="normal" font-size="73" text-anchor="start" direction="ltr" writing-mode="lr-tb" unicode-bidi="normal" text-decoration="none" transform="matrix(1 0 0 1 2611.52 679)">World</text><path d="M1.25117-3.20171 899.507 347.821 897.005 354.225-1.25117 3.20171ZM-5.00471 12.8068C-12.0777 10.0428-15.5709 2.06832-12.8068-5.00471-10.0428-12.0777-2.06832-15.5709 5.00471-12.8068 12.0777-10.0428 15.5709-2.06832 12.8068 5.00471 10.0428 12.0777 2.06832 15.5709-5.00471 12.8068ZM881.173 323.936 904.608 353.505 867.334 359.35C865.458 359.644 863.7 358.362 863.405 356.487 863.111 354.611 864.393 352.852 866.269 352.558L897.721 347.626 895.56 353.157 875.785 328.207C874.606 326.719 874.856 324.557 876.344 323.378 877.832 322.198 879.994 322.449 881.173 323.936Z" fill="#000000" fill-rule="nonzero" fill-opacity="1" transform="matrix(-1 0 0 1 2707.09 717.5)"/><text fill="#000000" fill-opacity="1" font-family="Trebuchet MS,Trebuchet MS_MSFontService,sans-serif" font-style="normal" font-variant="normal" font-weight="700" font-stretch="normal" font-size="37" text-anchor="start" direction="ltr" writing-mode="lr-tb" unicode-bidi="normal" text-decoration="none" transform="matrix(1 0 0 1 1715.59 1048)">1</text><text fill="#000000" fill-opacity="1" font-family="Trebuchet MS,Trebuchet MS_MSFontService,sans-serif" font-style="normal" font-variant="normal" font-weight="700" font-stretch="normal" font-size="37" text-anchor="start" direction="ltr" writing-mode="lr-tb" unicode-bidi="normal" text-decoration="none" transform="matrix(1 0 0 1 1737.36 1048)">-</text><text fill="#000000" fill-opacity="1" font-family="Trebuchet MS,Trebuchet MS_MSFontService,sans-serif" font-style="normal" font-variant="normal" font-weight="700" font-stretch="normal" font-size="37" text-anchor="start" direction="ltr" writing-mode="lr-tb" unicode-bidi="normal" text-decoration="none" transform="matrix(1 0 0 1 1751.11 1048)">n</text><text fill="#000000" fill-opacity="1" font-family="Trebuchet MS,Trebuchet MS_MSFontService,sans-serif" font-style="normal" font-variant="normal" font-weight="700" font-stretch="normal" font-size="37" text-anchor="start" direction="ltr" writing-mode="lr-tb" unicode-bidi="normal" text-decoration="none" transform="matrix(1 0 0 1 2143.18 1050)">0</text><text fill="#000000" fill-opacity="1" font-family="Trebuchet MS,Trebuchet MS_MSFontService,sans-serif" font-style="normal" font-variant="normal" font-weight="700" font-stretch="normal" font-size="37" text-anchor="start" direction="ltr" writing-mode="lr-tb" unicode-bidi="normal" text-decoration="none" transform="matrix(1 0 0 1 2164.95 1050)">-</text><text fill="#000000" fill-opacity="1" font-family="Trebuchet MS,Trebuchet MS_MSFontService,sans-serif" font-style="normal" font-variant="normal" font-weight="700" font-stretch="normal" font-size="37" text-anchor="start" direction="ltr" writing-mode="lr-tb" unicode-bidi="normal" text-decoration="none" transform="matrix(1 0 0 1 2178.7 1050)">n</text><text fill="#000000" fill-opacity="1" font-family="Trebuchet MS,Trebuchet MS_MSFontService,sans-serif" font-style="normal" font-variant="normal" font-weight="700" font-stretch="normal" font-size="37" text-anchor="start" direction="ltr" writing-mode="lr-tb" unicode-bidi="normal" text-decoration="none" transform="matrix(1 0 0 1 2736.23 1045)">0</text><text fill="#000000" fill-opacity="1" font-family="Trebuchet MS,Trebuchet MS_MSFontService,sans-serif" font-style="normal" font-variant="normal" font-weight="700" font-stretch="normal" font-size="37" text-anchor="start" direction="ltr" writing-mode="lr-tb" unicode-bidi="normal" text-decoration="none" transform="matrix(1 0 0 1 2758 1045)">-</text><text fill="#000000" fill-opacity="1" font-family="Trebuchet MS,Trebuchet MS_MSFontService,sans-serif" font-style="normal" font-variant="normal" font-weight="700" font-stretch="normal" font-size="37" text-anchor="start" direction="ltr" writing-mode="lr-tb" unicode-bidi="normal" text-decoration="none" transform="matrix(1 0 0 1 2771.75 1045)">n</text><text fill="#000000" fill-opacity="1" font-family="Trebuchet MS,Trebuchet MS_MSFontService,sans-serif" font-style="normal" font-variant="normal" font-weight="700" font-stretch="normal" font-size="37" text-anchor="start" direction="ltr" writing-mode="lr-tb" unicode-bidi="normal" text-decoration="none" transform="matrix(1 0 0 1 3190.14 1043)">0</text><text fill="#000000" fill-opacity="1" font-family="Trebuchet MS,Trebuchet MS_MSFontService,sans-serif" font-style="normal" font-variant="normal" font-weight="700" font-stretch="normal" font-size="37" text-anchor="start" direction="ltr" writing-mode="lr-tb" unicode-bidi="normal" text-decoration="none" transform="matrix(1 0 0 1 3211.91 1043)">-</text><text fill="#000000" fill-opacity="1" font-family="Trebuchet MS,Trebuchet MS_MSFontService,sans-serif" font-style="normal" font-variant="normal" font-weight="700" font-stretch="normal" font-size="37" text-anchor="start" direction="ltr" writing-mode="lr-tb" unicode-bidi="normal" text-decoration="none" transform="matrix(1 0 0 1 3225.66 1043)">n</text><text fill="#000000" fill-opacity="1" font-family="Trebuchet MS,Trebuchet MS_MSFontService,sans-serif" font-style="normal" font-variant="normal" font-weight="700" font-stretch="normal" font-size="37" text-anchor="start" direction="ltr" writing-mode="lr-tb" unicode-bidi="normal" text-decoration="none" transform="matrix(1 0 0 1 3659.89 1048)">0</text><text fill="#000000" fill-opacity="1" font-family="Trebuchet MS,Trebuchet MS_MSFontService,sans-serif" font-style="normal" font-variant="normal" font-weight="700" font-stretch="normal" font-size="37" text-anchor="start" direction="ltr" writing-mode="lr-tb" unicode-bidi="normal" text-decoration="none" transform="matrix(1 0 0 1 3681.66 1048)">-</text><text fill="#000000" fill-opacity="1" font-family="Trebuchet MS,Trebuchet MS_MSFontService,sans-serif" font-style="normal" font-variant="normal" font-weight="700" font-stretch="normal" font-size="37" text-anchor="start" direction="ltr" writing-mode="lr-tb" unicode-bidi="normal" text-decoration="none" transform="matrix(1 0 0 1 3695.41 1048)">n</text><text fill="#000000" fill-opacity="1" font-family="Trebuchet MS,Trebuchet MS_MSFontService,sans-serif" font-style="normal" font-variant="normal" font-weight="700" font-stretch="normal" font-size="37" text-anchor="start" direction="ltr" writing-mode="lr-tb" unicode-bidi="normal" text-decoration="none" transform="matrix(1 0 0 1 3859.15 1308)">0</text><text fill="#000000" fill-opacity="1" font-family="Trebuchet MS,Trebuchet MS_MSFontService,sans-serif" font-style="normal" font-variant="normal" font-weight="700" font-stretch="normal" font-size="37" text-anchor="start" direction="ltr" writing-mode="lr-tb" unicode-bidi="normal" text-decoration="none" transform="matrix(1 0 0 1 3880.93 1308)">-</text><text fill="#000000" fill-opacity="1" font-family="Trebuchet MS,Trebuchet MS_MSFontService,sans-serif" font-style="normal" font-variant="normal" font-weight="700" font-stretch="normal" font-size="37" text-anchor="start" direction="ltr" writing-mode="lr-tb" unicode-bidi="normal" text-decoration="none" transform="matrix(1 0 0 1 3894.68 1308)">n</text><text fill="#000000" fill-opacity="1" font-family="Trebuchet MS,Trebuchet MS_MSFontService,sans-serif" font-style="normal" font-variant="normal" font-weight="700" font-stretch="normal" font-size="37" text-anchor="start" direction="ltr" writing-mode="lr-tb" unicode-bidi="normal" text-decoration="none" transform="matrix(1 0 0 1 3558.11 1279)">0</text><text fill="#000000" fill-opacity="1" font-family="Trebuchet MS,Trebuchet MS_MSFontService,sans-serif" font-style="normal" font-variant="normal" font-weight="700" font-stretch="normal" font-size="37" text-anchor="start" direction="ltr" writing-mode="lr-tb" unicode-bidi="normal" text-decoration="none" transform="matrix(1 0 0 1 3579.88 1279)">-</text><text fill="#000000" fill-opacity="1" font-family="Trebuchet MS,Trebuchet MS_MSFontService,sans-serif" font-style="normal" font-variant="normal" font-weight="700" font-stretch="normal" font-size="37" text-anchor="start" direction="ltr" writing-mode="lr-tb" unicode-bidi="normal" text-decoration="none" transform="matrix(1 0 0 1 3593.63 1279)">n</text><path d="M3805.02 1436.21 3820.41 1434.55 3819.9 1434.65 3827.44 1432.66 3827.14 1432.75 3834.5 1430.06 3834.22 1430.17 3841.34 1426.83 3841.08 1426.97 3847.9 1423.03 3847.66 1423.18 3854.12 1418.7 3853.89 1418.87 3859.92 1413.91 3859.71 1414.1 3865.26 1408.7 3865.06 1408.91 3870.06 1403.14 3869.87 1403.38 3874.28 1397.28 3874.1 1397.55 3877.83 1391.18 3877.67 1391.49 3880.68 1384.9 3880.55 1385.26 3882.77 1378.51 3882.67 1378.9 3884.05 1372.05 3883.99 1372.49 3884.46 1365.58 3884.46 1366 3884.27 1362.55 3884.31 1362.91 3883.74 1359.46 3883.86 1359.96 3881.65 1353.1 3881.88 1353.65 3878.31 1346.9 3878.58 1347.33 3873.76 1340.74 3874.02 1341.07 3868.04 1334.69 3868.29 1334.94 3861.24 1328.84 3861.48 1329.03 3853.46 1323.25 3853.69 1323.4 3844.79 1318.01 3845.01 1318.12 3835.34 1313.16 3835.55 1313.26 3825.2 1308.78 3825.4 1308.86 3814.48 1304.92 3814.68 1304.99 3803.27 1301.64 3803.47 1301.69 3791.67 1299 3791.88 1299.04 3779.79 1297.05 3780.01 1297.08 3767.73 1295.84 3767.95 1295.86 3755.58 1295.44 3755.83 1295.44 3743.45 1295.91 3743.7 1295.89 3731.42 1297.27 3731.66 1297.23 3719.57 1299.46 3719.8 1299.41 3708 1302.42 3708.22 1302.36 3696.82 1306.09 3697.03 1306.01 3686.11 1310.42 3686.32 1310.32 3675.97 1315.33 3676.19 1315.21 3666.52 1320.76 3666.74 1320.63 3657.85 1326.66 3658.07 1326.49 3650.05 1332.95 3650.29 1332.74 3643.24 1339.56 3643.48 1339.3 3637.49 1346.42 3637.74 1346.09 3632.91 1353.45 3633.14 1353.04 3629.58 1360.58 3629.77 1360.06 3627.56 1367.73 3627.66 1367.28 3627.52 1368.22 3620.72 1367.22 3620.89 1366.05 3623.24 1357.89 3627.03 1349.88 3632.1 1342.15 3638.33 1334.74 3645.62 1327.69 3653.87 1321.05 3662.99 1314.86 3672.87 1309.19 3683.43 1304.08 3694.57 1299.6 3706.19 1295.79 3718.21 1292.72 3730.53 1290.45 3743.06 1289.04 3755.69 1288.56 3768.3 1288.99 3780.8 1290.25 3793.1 1292.27 3805.1 1295.02 3816.71 1298.42 3827.84 1302.43 3838.38 1306.99 3848.26 1312.07 3857.37 1317.6 3865.62 1323.54 3872.92 1329.86 3879.18 1336.51 3884.28 1343.47 3888.1 1350.71 3890.48 1358.09 3891.12 1361.98 3891.33 1365.84 3890.83 1373.18 3889.37 1380.46 3887.02 1387.59 3883.85 1394.51 3879.95 1401.17 3875.36 1407.52 3870.16 1413.53 3864.4 1419.13 3858.15 1424.27 3851.46 1428.91 3844.4 1432.99 3837.01 1436.46 3829.35 1439.26 3821.4 1441.36 3805.76 1443.05ZM3806.77 1453.31C3799.22 1454.07 3792.47 1448.57 3791.71 1441.01 3790.95 1433.46 3796.45 1426.71 3804.01 1425.95 3811.56 1425.19 3818.31 1430.69 3819.07 1438.25 3819.83 1445.8 3814.33 1452.55 3806.77 1453.31ZM3645.4 1343.79 3623.5 1374.52 3607.53 1340.33C3606.73 1338.61 3607.47 1336.57 3609.19 1335.76 3610.91 1334.96 3612.96 1335.7 3613.76 1337.42L3627.23 1366.27 3621.32 1365.73 3639.8 1339.8C3640.9 1338.26 3643.05 1337.9 3644.59 1339 3646.14 1340.1 3646.5 1342.25 3645.4 1343.79Z" fill="#000000" fill-rule="nonzero" fill-opacity="1"/><text fill="#000000" fill-opacity="1" font-family="Trebuchet MS,Trebuchet MS_MSFontService,sans-serif" font-style="normal" font-variant="normal" font-weight="700" font-stretch="normal" font-size="37" text-anchor="start" direction="ltr" writing-mode="lr-tb" unicode-bidi="normal" text-decoration="none" transform="matrix(1 0 0 1 3912.2 1656)">0</text><text fill="#000000" fill-opacity="1" font-family="Trebuchet MS,Trebuchet MS_MSFontService,sans-serif" font-style="normal" font-variant="normal" font-weight="700" font-stretch="normal" font-size="37" text-anchor="start" direction="ltr" writing-mode="lr-tb" unicode-bidi="normal" text-decoration="none" transform="matrix(1 0 0 1 3933.97 1656)">-</text><text fill="#000000" fill-opacity="1" font-family="Trebuchet MS,Trebuchet MS_MSFontService,sans-serif" font-style="normal" font-variant="normal" font-weight="700" font-stretch="normal" font-size="37" text-anchor="start" direction="ltr" writing-mode="lr-tb" unicode-bidi="normal" text-decoration="none" transform="matrix(1 0 0 1 3947.72 1656)">n</text><path d="M1620 1377C1620 1341.1 1649.1 1312 1685 1312L1919 1312C1954.9 1312 1984 1341.1 1984 1377L1984 1377C1984 1412.9 1954.9 1442 1919 1442L1685 1442C1649.1 1442 1620 1412.9 1620 1377Z" stroke="#7F7F7F" stroke-width="2.29167" stroke-linecap="butt" stroke-linejoin="miter" stroke-miterlimit="8" stroke-opacity="1" fill="#CFE2F4" fill-rule="evenodd" fill-opacity="1"/><text fill="#0563C1" fill-opacity="1" font-family="Arial,Arial_MSFontService,sans-serif" font-style="normal" font-variant="normal" font-weight="400" font-stretch="normal" font-size="55" text-anchor="start" direction="ltr" writing-mode="lr-tb" unicode-bidi="normal" text-decoration="underline" transform="matrix(1 0 0 1 1649.54 1397)">AppManifest</text><path d="M3.4375-1.12247e-05 3.43784 103.715-3.43716 103.715-3.4375 1.12247e-05ZM-13.75 4.48987e-05C-13.75-7.59387-7.59396-13.75-4.48987e-05-13.75 7.59387-13.75 13.75-7.59396 13.75-4.48987e-05 13.75 7.59387 7.59396 13.75 4.48987e-05 13.75-7.59387 13.75-13.75 7.59396-13.75 4.48987e-05ZM19.0112 77.9472 0.000360793 110.537-19.0107 77.9474C-19.9672 76.3075-19.4133 74.2027-17.7735 73.2461-16.1336 72.2895-14.0288 72.8434-13.0722 74.4832L2.96957 101.983-2.96891 101.983 13.0727 74.4831C14.0293 72.8433 16.1341 72.2894 17.774 73.2459 19.4138 74.2025 19.9677 76.3074 19.0112 77.9472Z" fill="#000000" fill-rule="nonzero" fill-opacity="1" transform="matrix(-1 0 0 1 1802.5 1201.5)"/><path d="M2879 1678.5C2879 1642.33 2908.33 1613 2944.5 1613L3177.5 1613C3213.68 1613 3243 1642.33 3243 1678.5L3243 1678.5C3243 1714.67 3213.67 1744 3177.5 1744L2944.5 1744C2908.33 1744 2879 1714.67 2879 1678.5Z" stroke="#7F7F7F" stroke-width="2.29167" stroke-linecap="butt" stroke-linejoin="miter" stroke-miterlimit="8" stroke-opacity="1" fill="#CFE2F4" fill-rule="evenodd" fill-opacity="1"/><text fill="#0563C1" fill-opacity="1" font-family="Arial,Arial_MSFontService,sans-serif" font-style="normal" font-variant="normal" font-weight="400" font-stretch="normal" font-size="55" text-anchor="start" direction="ltr" writing-mode="lr-tb" unicode-bidi="normal" text-decoration="underline" transform="matrix(1 0 0 1 2908.79 1699)">AppManifest</text><path d="M6.87498-0.015107 7.6775 365.197-6.07247 365.228-6.87498 0.015107ZM-20.625 0.0453211C-20.65-11.3455-11.4362-20.5999-0.0453211-20.625 11.3455-20.65 20.5999-11.4362 20.625-0.0453211 20.65 11.3455 11.4362 20.5999 0.0453211 20.625-11.3455 20.65-20.5999 11.4362-20.625 0.0453211ZM21.4124 358.292 0.878051 399.588-19.8375 358.383Z" fill="#ED7D31" fill-rule="nonzero" fill-opacity="1" transform="matrix(-1 0 0 1 3168.88 1206)"/><path d="M3216 1702C3216 1666.1 3245.1 1637 3281 1637L3321 1637C3356.9 1637 3386 1666.1 3386 1702L3386 1702C3386 1737.9 3356.9 1767 3321 1767L3281 1767C3245.1 1767 3216 1737.9 3216 1702Z" stroke="#0098CB" stroke-width="2.29167" stroke-linecap="butt" stroke-linejoin="miter" stroke-miterlimit="8" stroke-opacity="1" fill="#0098CB" fill-rule="evenodd" fill-opacity="1"/><text fill="#FFFFFF" fill-opacity="1" font-family="Arial,Arial_MSFontService,sans-serif" font-style="normal" font-variant="normal" font-weight="400" font-stretch="normal" font-size="55" text-anchor="start" direction="ltr" writing-mode="lr-tb" unicode-bidi="normal" text-decoration="none" transform="matrix(1 0 0 1 3240.07 1722)">node</text><path d="M3636.87 1499.93 3638.88 1702.1 3625.13 1702.24 3623.13 1500.07ZM3609.38 1500.21C3609.26 1488.81 3618.4 1479.49 3629.79 1479.38 3641.19 1479.26 3650.51 1488.4 3650.62 1499.8 3650.74 1511.19 3641.6 1520.51 3630.21 1520.62 3618.81 1520.74 3609.49 1511.6 3609.38 1500.21ZM3652.56 1695.09 3632.35 1736.54 3611.32 1695.5Z" fill="#B7C8DC" fill-rule="nonzero" fill-opacity="1"/><path d="M3807.81 1786.34 3830.74 1782.69 3829.46 1783.02 3836.82 1780.33 3836.26 1780.56 3843.38 1777.22 3842.86 1777.49 3849.68 1773.55 3849.2 1773.86 3855.66 1769.38 3855.21 1769.72 3861.24 1764.75 3860.81 1765.13 3866.36 1759.74 3865.96 1760.16 3870.97 1754.39 3870.59 1754.87 3874.99 1748.77 3874.63 1749.31 3878.37 1742.94 3878.05 1743.56 3881.06 1736.97 3880.78 1737.68 3883.01 1730.93 3882.8 1731.73 3884.18 1724.87 3884.06 1725.76 3884.53 1718.84 3884.52 1719.69 3884.33 1716.24 3884.41 1716.97 3883.85 1713.52 3884.09 1714.51 3881.88 1707.66 3882.34 1708.76 3878.77 1702.01 3879.31 1702.86 3874.48 1696.27 3875.02 1696.92 3869.03 1690.55 3869.54 1691.04 3862.49 1684.94 3862.97 1685.32 3854.95 1679.54 3855.4 1679.84 3846.51 1674.44 3846.94 1674.68 3837.27 1669.72 3837.68 1669.91 3827.34 1665.43 3827.74 1665.59 3816.81 1661.65 3817.21 1661.78 3805.8 1658.44 3806.2 1658.55 3794.41 1655.85 3794.82 1655.93 3782.73 1653.94 3783.16 1654 3770.88 1652.76 3771.34 1652.79 3758.96 1652.37 3759.46 1652.37 3747.08 1652.84 3747.58 1652.81 3735.3 1654.19 3735.78 1654.11 3723.7 1656.34 3724.15 1656.24 3712.35 1659.25 3712.79 1659.12 3701.39 1662.86 3701.81 1662.7 3690.89 1667.1 3691.32 1666.92 3680.97 1671.92 3681.4 1671.69 3671.73 1677.24 3672.17 1676.97 3663.28 1683 3663.73 1682.67 3655.71 1689.12 3656.87 1687.93 3646.93 1700.98 3635.99 1692.65 3646.44 1678.94 3655.33 1671.78 3664.66 1665.45 3674.76 1659.65 3685.54 1654.44 3696.89 1649.86 3708.73 1645.98 3720.98 1642.86 3733.53 1640.55 3746.3 1639.11 3759.18 1638.62 3772.03 1639.06 3784.76 1640.34 3797.26 1642.4 3809.47 1645.19 3821.28 1648.65 3832.6 1652.73 3843.35 1657.38 3853.44 1662.56 3862.77 1668.23 3871.26 1674.34 3878.81 1680.87 3885.33 1687.81 3890.7 1695.14 3894.78 1702.87 3897.33 1710.78 3898.04 1715.11 3898.28 1719.36 3897.74 1727.14 3896.19 1734.84 3893.72 1742.34 3890.41 1749.59 3886.33 1756.55 3881.56 1763.16 3876.16 1769.39 3870.2 1775.19 3863.73 1780.51 3856.8 1785.32 3849.49 1789.54 3841.83 1793.14 3833.56 1796.16 3809.97 1799.92ZM3811.87 1813.54C3800.6 1815.18 3790.13 1807.38 3788.48 1796.11 3786.83 1784.84 3794.64 1774.37 3805.91 1772.72 3817.18 1771.07 3827.65 1778.87 3829.3 1790.15 3830.95 1801.42 3823.14 1811.89 3811.87 1813.54ZM3663.07 1699.26 3627 1728 3625.65 1681.9Z" fill="#B7C8DC" fill-rule="nonzero" fill-opacity="1"/><path d="M2.64158-6.34726 300.298 117.53 295.015 130.225-2.64158 6.34726ZM-7.92473 19.0418C-18.4412 14.6651-23.4185 2.59175-19.0418-7.92473-14.6651-18.4412-2.59175-23.4185 7.92473-19.0418 18.4412-14.6651 23.4185-2.59175 19.0418 7.92473 14.6651 18.4412 2.59175 23.4185-7.92473 19.0418ZM299.234 102.194 329.393 137.085 283.384 140.278Z" fill="#B7C8DC" fill-rule="nonzero" fill-opacity="1" transform="matrix(-1 0 0 1 3630.39 1500)"/><path d="M2520 1369.5C2520 1333.33 2549.33 1304 2585.5 1304L2818.5 1304C2854.68 1304 2884 1333.33 2884 1369.5L2884 1369.5C2884 1405.67 2854.67 1435 2818.5 1435L2585.5 1435C2549.33 1435 2520 1405.67 2520 1369.5Z" stroke="#7F7F7F" stroke-width="2.29167" stroke-linecap="butt" stroke-linejoin="miter" stroke-miterlimit="8" stroke-opacity="1" fill="#CFE2F4" fill-rule="evenodd" fill-opacity="1"/><text fill="#000000" fill-opacity="1" font-family="Arial,Arial_MSFontService,sans-serif" font-style="normal" font-variant="normal" font-weight="400" font-stretch="normal" font-size="55" text-anchor="start" direction="ltr" writing-mode="lr-tb" unicode-bidi="normal" text-decoration="none" transform="matrix(1 0 0 1 2587.65 1390)">GeoPose</text><path d="M3.4375-1.12247e-05 3.43784 103.715-3.43716 103.715-3.4375 1.12247e-05ZM-13.75 4.48987e-05C-13.75-7.59387-7.59396-13.75-4.48987e-05-13.75 7.59387-13.75 13.75-7.59396 13.75-4.48987e-05 13.75 7.59387 7.59396 13.75 4.48987e-05 13.75-7.59387 13.75-13.75 7.59396-13.75 4.48987e-05ZM19.0112 77.9472 0.000360793 110.537-19.0107 77.9474C-19.9672 76.3075-19.4133 74.2027-17.7735 73.2461-16.1336 72.2895-14.0288 72.8434-13.0722 74.4832L2.96957 101.983-2.96891 101.983 13.0727 74.4831C14.0293 72.8433 16.1341 72.2894 17.774 73.2459 19.4138 74.2025 19.9677 76.3074 19.0112 77.9472Z" fill="#000000" fill-rule="nonzero" fill-opacity="1" transform="matrix(-1 0 0 1 2702.5 1198.5)"/><rect x="3025" y="1741" width="275" height="130" stroke="#4472C4" stroke-width="2.29167" stroke-linecap="butt" stroke-linejoin="miter" stroke-miterlimit="8" stroke-opacity="1" fill="#0098CB" fill-opacity="1"/><text fill="#FFFFFF" fill-opacity="1" font-family="Arial,Arial_MSFontService,sans-serif" font-style="normal" font-variant="normal" font-weight="400" font-stretch="normal" font-size="73" text-anchor="start" direction="ltr" writing-mode="lr-tb" unicode-bidi="normal" text-decoration="none" transform="matrix(1 0 0 1 3067.46 1833)">World</text><rect x="3397" y="1741" width="472" height="130" stroke="#4472C4" stroke-width="2.29167" stroke-linecap="butt" stroke-linejoin="miter" stroke-miterlimit="8" stroke-opacity="1" fill="#0098CB" fill-opacity="1"/><text fill="#FFFFFF" fill-opacity="1" font-family="Arial,Arial_MSFontService,sans-serif" font-style="normal" font-variant="normal" font-weight="400" font-stretch="normal" font-size="73" text-anchor="start" direction="ltr" writing-mode="lr-tb" unicode-bidi="normal" text-decoration="none" transform="matrix(1 0 0 1 3421.36 1833)">Spatial Asset</text><path d="M1.94464-2.83457 15.4342 6.4199 18.0019 10.1872 18.6212 11.2305 12.7091 14.7395 12.1448 13.7888 12.2603 13.9703 10.1168 10.8253 11.0127 11.7239-1.94464 2.83457ZM22.0461 17.3921 22.4412 18.1433 24.6173 22.7492 26.7703 27.7684 28.9024 33.196 30.217 36.8242 23.7532 39.1662 22.4543 35.5812 22.4867 35.667 20.3908 30.3316 20.4311 30.4298 18.3236 25.5166 18.3746 25.6299 16.2565 21.1468 16.3222 21.2785 15.9614 20.5926ZM32.4848 43.3987 33.1084 45.2537 35.183 51.8714 37.2386 58.8728 38.4689 63.3312 31.8416 65.1601 30.6187 60.7287 30.6341 60.7826 28.5953 53.8381 28.6135 53.8981 26.5588 47.3439 26.5806 47.411 25.9682 45.5895ZM40.2559 70.022 41.2933 74.0089 45.1528 90.1257 38.4668 91.7268 34.6152 75.6426 34.6314 75.7078 33.6025 71.7533ZM46.6304 96.9185 49.1398 108.537 50.8341 117.177 44.0876 118.5 42.3996 109.893 42.4129 109.957 39.9103 98.3699ZM52.1572 123.923 52.9236 127.831 55.8657 144.269 49.0982 145.48 46.1611 129.07 46.1716 129.126 45.4107 125.246ZM57.0463 151.093 60.1717 170.158 60.3727 171.493 53.5743 172.517 53.3766 171.203 53.3836 171.248 50.2619 152.205ZM61.3961 178.292 63.6201 193.066 64.4051 198.737 57.595 199.68 56.8128 194.029 56.8186 194.069 54.5977 179.315ZM65.3478 205.547 66.9405 217.053 68.0834 226.027 61.2634 226.896 60.123 217.941 60.1279 217.978 58.5377 206.49ZM68.9519 232.847 70.1248 242.058 71.4478 253.355 64.6195 254.155 63.2985 242.875 63.3027 242.909 62.132 233.716ZM72.2475 260.184 73.1647 268.016 74.5302 280.714 67.6946 281.449 66.3308 268.767 66.3344 268.799 65.4192 260.983ZM75.2652 287.55 76.0517 294.864 77.3553 308.1 70.5135 308.773 69.2113 295.553 69.2144 295.583 68.4296 288.285ZM78.0292 314.941 78.7775 322.539 79.9432 335.507 73.0958 336.122 71.9314 323.169 71.9342 323.198 71.1873 315.615ZM80.5587 342.354 81.3337 350.977 82.3096 362.933 75.4574 363.492 74.4827 351.55 74.4851 351.578 73.7113 342.97ZM82.8689 369.785 83.712 380.115 84.4673 390.375 77.6109 390.88 76.8566 380.633 76.8587 380.661 76.0167 370.344ZM84.972 397.232 85.9039 409.89 86.4265 417.832 79.5663 418.283 79.0446 410.355 79.0464 410.381 78.1156 397.736ZM86.8779 424.692 87.9009 440.238 88.1952 445.301 81.3318 445.7 81.0382 440.65 81.0398 440.676 80.0178 425.144ZM88.5942 452.165 89.6946 471.095 89.7799 472.782 82.9136 473.129 82.829 471.455 82.8304 471.481 81.7308 452.564ZM90.1269 479.648 91.1679 500.247 84.3017 500.594 83.2606 479.995ZM91.4805 507.14 92.3661 527.746 85.4975 528.042 84.6118 507.436ZM92.6582 534.641 93.3881 555.253 86.5174 555.496 85.7875 534.884ZM93.6314 562.124 93.7719 566.094 94.1708 582.781 87.2978 582.945 86.8994 566.278 86.9006 566.318 86.7607 562.367ZM94.3351 589.654 94.8279 610.273 87.9549 610.438 87.462 589.818ZM94.9922 617.146 95.3185 630.798 95.3757 637.821 88.5009 637.877 88.444 630.881 88.4448 630.935 88.1192 617.311ZM95.4316 644.696 95.5994 665.32 88.7246 665.376 88.5568 644.752ZM95.6553 672.195 95.8231 692.82 88.9483 692.875 88.7805 672.251ZM95.8221 699.747 95.6723 720.372 88.7974 720.322 88.9473 699.697ZM95.6223 727.247 95.4725 747.871 88.5977 747.821 88.7475 727.197ZM95.4226 754.746 95.3755 761.236 95.0729 775.416 88.1994 775.269 88.5015 761.114 88.5008 761.162 88.5478 754.696ZM94.9262 782.289 94.4862 802.91 87.6128 802.763 88.0528 782.143ZM94.3395 809.783 93.9949 825.935 93.8526 830.437 86.981 830.22 87.1227 825.736 87.1218 825.771 87.4661 809.636ZM93.6353 837.309 92.9837 857.924 86.1121 857.706 86.7638 837.092ZM92.7193 864.817 91.9285 885.427 85.0586 885.163 85.8494 864.553ZM91.6459 892.319 90.7162 912.923 83.8482 912.613 84.7779 892.009ZM90.4064 919.791 90.3552 920.926 89.3439 940.412 82.4782 940.055 83.4888 920.581 83.4877 920.604 83.5384 919.481ZM88.9876 947.278 88.754 951.78 87.8074 967.892 80.9443 967.489 81.8901 951.389 81.8888 951.412 82.1219 946.921ZM87.4042 974.755 86.9713 982.125 86.1013 995.363 79.2411 994.912 80.1103 981.686 80.1088 981.71 80.5411 974.352ZM85.6505 1002.22 85.0147 1011.9 84.2186 1022.82 77.3618 1022.32 78.157 1011.41 78.1553 1011.43 78.7903 1001.77ZM83.719 1029.68 82.8918 1041.03 82.1505 1050.27 75.2975 1049.72 76.0378 1040.49 76.0359 1040.52 76.8622 1029.18ZM81.6005 1057.12 80.6099 1069.47 79.8858 1077.7 73.0372 1077.1 73.7602 1068.88 73.758 1068.9 74.7476 1056.57ZM79.2836 1084.55 78.1767 1097.14 77.4107 1105.12 70.5672 1104.46 71.3319 1096.5 71.3294 1096.52 72.435 1083.95ZM76.7538 1111.96 75.5997 1123.98 74.7078 1132.51 67.8701 1131.8 68.7604 1123.28 68.7575 1123.31 69.9102 1111.31ZM73.993 1139.35 72.8863 1149.94 71.7552 1159.89 64.9242 1159.11 66.0535 1149.18 66.0501 1149.21 67.1553 1138.64ZM70.9786 1166.72 70.0439 1174.94 68.5251 1187.23 61.702 1186.39 63.2188 1174.11 63.2148 1174.15 64.1476 1165.94ZM67.6819 1194.05 67.08 1198.92 64.9817 1214.54 58.168 1213.62 60.2639 1198.03 60.2592 1198.06 60.8588 1193.21ZM64.066 1221.35 64.0021 1221.83 61.0791 1241.8 54.2766 1240.8 57.1966 1220.85 57.191 1220.89 57.2523 1220.43ZM60.0107 1248.64 57.5329 1264.14 56.6754 1269.04 49.9035 1267.86 50.7565 1262.98 50.7481 1263.03 53.2218 1247.55ZM55.4898 1275.81 54.156 1283.43 51.7042 1296.15 44.9536 1294.85 47.3998 1282.16 47.3891 1282.22 48.7178 1274.63ZM50.3578 1302.96 47.1537 1317.95 45.941 1323.17 39.2443 1321.61 40.4502 1316.42 40.437 1316.48 43.6347 1301.52ZM44.3191 1329.89 43.5361 1333.07 41.7023 1340.07 39.8517 1346.68 38.8674 1349.96 32.2826 1347.99 33.2577 1344.74 33.2398 1344.8 35.0741 1338.24 35.0592 1338.3 36.8793 1331.35 36.8668 1331.4 37.6437 1328.25ZM36.7914 1356.59 36.1005 1358.73 34.1993 1364.15 32.2797 1369.16 30.3398 1373.76 29.1881 1376.21 22.965 1373.29 24.0877 1370.9 24.0319 1371.03 25.9228 1366.54 25.88 1366.65 27.7615 1361.74 27.7278 1361.83 29.599 1356.49 29.5721 1356.57 30.2501 1354.48ZM25.8228 1382.63 24.3493 1385.05 22.2609 1387.97 20.0919 1390.46 18.47 1391.92 13.8708 1386.81 15.3362 1385.49 15.0417 1385.79 16.9657 1383.58 16.764 1383.83 18.6833 1381.15 18.5425 1381.36 19.9497 1379.05ZM-7.2778 11.666C-13.7208 7.64661-15.6854-0.834833-11.666-7.2778-7.64661-13.7208 0.834833-15.6854 7.2778-11.666 13.7208-7.64661 15.6854 0.834833 11.666 7.2778 7.64661 13.7208-0.834833 15.6854-7.2778 11.666ZM47.3356 1396.72 9.89691 1392.05 32.3962 1361.76C33.5283 1360.24 35.6815 1359.92 37.2055 1361.05 38.7295 1362.18 39.0471 1364.34 37.915 1365.86L18.9298 1391.42 16.5965 1385.95 48.1878 1389.9C50.0717 1390.14 51.408 1391.85 51.1727 1393.74 50.9374 1395.62 49.2195 1396.96 47.3356 1396.72Z" fill="#000000" fill-rule="nonzero" fill-opacity="1" transform="matrix(1.83697e-16 1 1 -1.83697e-16 2241.5 1861.5)"/><text fill="#000000" fill-opacity="1" font-family="Trebuchet MS,Trebuchet MS_MSFontService,sans-serif" font-style="normal" font-variant="normal" font-weight="700" font-stretch="normal" font-size="37" text-anchor="start" direction="ltr" writing-mode="lr-tb" unicode-bidi="normal" text-decoration="none" transform="matrix(1 0 0 1 2621.71 1915)">avatar</text><text fill="#000000" fill-opacity="1" font-family="Trebuchet MS,Trebuchet MS_MSFontService,sans-serif" font-style="normal" font-variant="normal" font-weight="700" font-stretch="normal" font-size="37" text-anchor="start" direction="ltr" writing-mode="lr-tb" unicode-bidi="normal" text-decoration="none" transform="matrix(1 0 0 1 2743.7 1913)">0</text><text fill="#000000" fill-opacity="1" font-family="Trebuchet MS,Trebuchet MS_MSFontService,sans-serif" font-style="normal" font-variant="normal" font-weight="700" font-stretch="normal" font-size="37" text-anchor="start" direction="ltr" writing-mode="lr-tb" unicode-bidi="normal" text-decoration="none" transform="matrix(1 0 0 1 2765.47 1913)">-</text><text fill="#000000" fill-opacity="1" font-family="Trebuchet MS,Trebuchet MS_MSFontService,sans-serif" font-style="normal" font-variant="normal" font-weight="700" font-stretch="normal" font-size="37" text-anchor="start" direction="ltr" writing-mode="lr-tb" unicode-bidi="normal" text-decoration="none" transform="matrix(1 0 0 1 2779.22 1913)">n</text></g></g></svg>