<svg width="2824" height="1879" xmlns="http://www.w3.org/2000/svg" xmlns:xlink="http://www.w3.org/1999/xlink" xml:space="preserve" overflow="hidden"><g transform="translate(-815 -334)"><g><rect x="832.5" y="1656.5" width="2802" height="527" stroke="#000000" stroke-width="4.58333" stroke-linecap="butt" stroke-linejoin="miter" stroke-miterlimit="8" stroke-opacity="1" fill="#FFFFFF" fill-opacity="1"/><text fill="#000000" fill-opacity="1" font-family="Arial,Arial_MSFontService,sans-serif" font-style="normal" font-variant="normal" font-weight="400" font-stretch="normal" font-size="73" text-anchor="start" direction="ltr" writing-mode="lr-tb" unicode-bidi="normal" text-decoration="none" transform="matrix(1 0 0 1 864.708 2150)">Optional shared </text><text fill="#000000" fill-opacity="1" font-family="Arial,Arial_MSFontService,sans-serif" font-style="normal" font-variant="normal" font-weight="700" font-stretch="normal" font-size="73" text-anchor="start" direction="ltr" writing-mode="lr-tb" unicode-bidi="normal" text-decoration="none" transform="matrix(1 0 0 1 1402.68 2150)">Avatar</text><text fill="#000000" fill-opacity="1" font-family="Arial,Arial_MSFontService,sans-serif" font-style="normal" font-variant="normal" font-weight="400" font-stretch="normal" font-size="73" text-anchor="start" direction="ltr" writing-mode="lr-tb" unicode-bidi="normal" text-decoration="none" transform="matrix(1 0 0 1 1648.59 2150)">and </text><text fill="#000000" fill-opacity="1" font-family="Arial,Arial_MSFontService,sans-serif" font-style="normal" font-variant="normal" font-weight="700" font-stretch="normal" font-size="73" text-anchor="start" direction="ltr" writing-mode="lr-tb" unicode-bidi="normal" text-decoration="none" transform="matrix(1 0 0 1 1791.25 2150)">OpenSpatialAsset</text><text fill="#000000" fill-opacity="1" font-family="Arial,Arial_MSFontService,sans-serif" font-style="normal" font-variant="normal" font-weight="400" font-stretch="normal" font-size="73" text-anchor="start" direction="ltr" writing-mode="lr-tb" unicode-bidi="normal" text-decoration="none" transform="matrix(1 0 0 1 2439.22 2150)">links to agnostic endpoints </text><rect x="832.5" y="343.5" width="2802" height="1313" stroke="#000000" stroke-width="4.58333" stroke-linecap="butt" stroke-linejoin="miter" stroke-miterlimit="8" stroke-opacity="1" fill="#FFFFFF" fill-opacity="1"/><text fill="#000000" fill-opacity="1" font-family="Arial,Arial_MSFontService,sans-serif" font-style="normal" font-variant="normal" font-weight="400" font-stretch="normal" font-size="73" text-anchor="start" direction="ltr" writing-mode="lr-tb" unicode-bidi="normal" text-decoration="none" transform="matrix(1 0 0 1 864.708 430)">Information exposed by the </text><text fill="#000000" fill-opacity="1" font-family="Arial,Arial_MSFontService,sans-serif" font-style="normal" font-variant="normal" font-weight="700" font-stretch="normal" font-size="73" text-anchor="start" direction="ltr" writing-mode="lr-tb" unicode-bidi="normal" text-decoration="none" transform="matrix(1 0 0 1 1770.49 430)">OpenSpatialWorld</text><text fill="#000000" fill-opacity="1" font-family="Arial,Arial_MSFontService,sans-serif" font-style="normal" font-variant="normal" font-weight="400" font-stretch="normal" font-size="73" text-anchor="start" direction="ltr" writing-mode="lr-tb" unicode-bidi="normal" text-decoration="none" transform="matrix(1 0 0 1 2425.72 430)">Web</text><text fill="#000000" fill-opacity="1" font-family="Arial,Arial_MSFontService,sans-serif" font-style="normal" font-variant="normal" font-weight="400" font-stretch="normal" font-size="73" text-anchor="start" direction="ltr" writing-mode="lr-tb" unicode-bidi="normal" text-decoration="none" transform="matrix(1 0 0 1 2575.07 430)">-</text><text fill="#000000" fill-opacity="1" font-family="Arial,Arial_MSFontService,sans-serif" font-style="normal" font-variant="normal" font-weight="400" font-stretch="normal" font-size="73" text-anchor="start" direction="ltr" writing-mode="lr-tb" unicode-bidi="normal" text-decoration="none" transform="matrix(1 0 0 1 2599.71 430)">API</text><path d="M2904 1242C2904 1206.1 2933.1 1177 2969 1177L3203 1177C3238.9 1177 3268 1206.1 3268 1242 3268 1277.9 3238.9 1307 3203 1307L2969 1307C2933.1 1307 2904 1277.9 2904 1242Z" stroke="#7F7F7F" stroke-width="2.29167" stroke-linecap="butt" stroke-linejoin="miter" stroke-miterlimit="8" stroke-opacity="1" fill="#86C540" fill-rule="evenodd" fill-opacity="1"/><text fill="#000000" fill-opacity="1" font-family="Arial,Arial_MSFontService,sans-serif" font-style="normal" font-variant="normal" font-weight="400" font-stretch="normal" font-size="55" text-anchor="start" direction="ltr" writing-mode="lr-tb" unicode-bidi="normal" text-decoration="none" transform="matrix(1 0 0 1 3012.93 1262)">scene</text><path d="M2897 1545C2897 1509.1 2926.1 1480 2962 1480L3196 1480C3231.9 1480 3261 1509.1 3261 1545 3261 1580.9 3231.9 1610 3196 1610L2962 1610C2926.1 1610 2897 1580.9 2897 1545Z" stroke="#7F7F7F" stroke-width="2.29167" stroke-linecap="butt" stroke-linejoin="miter" stroke-miterlimit="8" stroke-opacity="1" fill="#86C540" fill-rule="evenodd" fill-opacity="1"/><text fill="#000000" fill-opacity="1" font-family="Arial,Arial_MSFontService,sans-serif" font-style="normal" font-variant="normal" font-weight="400" font-stretch="normal" font-size="55" text-anchor="start" direction="ltr" writing-mode="lr-tb" unicode-bidi="normal" text-decoration="none" transform="matrix(1 0 0 1 3018.25 1565)">node</text><rect x="2897" y="1786" width="364" height="130" stroke="#7F7F7F" stroke-width="2.29167" stroke-linecap="butt" stroke-linejoin="miter" stroke-miterlimit="8" stroke-opacity="1" fill="#B7C8DB" fill-opacity="1"/><text fill="#000000" fill-opacity="1" font-family="Arial,Arial_MSFontService,sans-serif" font-style="normal" font-variant="normal" font-weight="400" font-stretch="normal" font-size="55" text-anchor="start" direction="ltr" writing-mode="lr-tb" unicode-bidi="normal" text-decoration="none" transform="matrix(1 0 0 1 2970.42 1871)">OSAsset</text><path d="M3082.94 1610.5 3082.94 1779.29 3076.06 1779.29 3076.06 1610.5ZM3065.75 1610.5C3065.75 1602.91 3071.91 1596.75 3079.5 1596.75 3087.09 1596.75 3093.25 1602.91 3093.25 1610.5 3093.25 1618.09 3087.09 1624.25 3079.5 1624.25 3071.91 1624.25 3065.75 1618.09 3065.75 1610.5ZM3098.51 1753.52 3079.5 1786.11 3060.49 1753.52C3059.53 1751.88 3060.09 1749.77 3061.73 1748.82 3063.37 1747.86 3065.47 1748.41 3066.43 1750.05L3082.47 1777.55 3076.53 1777.55 3092.57 1750.05C3093.53 1748.41 3095.63 1747.86 3097.27 1748.82 3098.91 1749.77 3099.47 1751.88 3098.51 1753.52Z" fill="#000000" fill-rule="nonzero" fill-opacity="1"/><path d="M3.43468-0.139268 10.1552 165.605 3.28583 165.883-3.43468 0.139268ZM-13.7387 0.55707C-14.0464-7.03061-8.14475-13.4311-0.55707-13.7387 7.03061-14.0464 13.4311-8.14475 13.7387-0.55707 14.0464 7.03061 8.14475 13.4311 0.55707 13.7387-7.03061 14.0464-13.4311 8.14475-13.7387 0.55707ZM24.6718 139.227 6.99691 172.561-13.3188 140.768C-14.341 139.168-13.8728 137.042-12.2731 136.02-10.6733 134.998-8.54774 135.466-7.52549 137.066L9.61714 163.893 3.68354 164.134 18.5979 136.006C19.4873 134.329 21.5679 133.69 23.2452 134.58 24.9225 135.469 25.5612 137.55 24.6718 139.227Z" fill="#000000" fill-rule="nonzero" fill-opacity="1" transform="matrix(-1 0 0 1 3086.5 1307.5)"/><path d="M3261.02 1858.21 3276.41 1856.55 3275.9 1856.65 3283.44 1854.66 3283.14 1854.75 3290.5 1852.06 3290.22 1852.17 3297.34 1848.83 3297.08 1848.97 3303.9 1845.03 3303.66 1845.18 3310.12 1840.7 3309.89 1840.87 3315.92 1835.91 3315.71 1836.1 3321.26 1830.7 3321.06 1830.91 3326.06 1825.14 3325.87 1825.38 3330.28 1819.28 3330.1 1819.55 3333.83 1813.18 3333.67 1813.49 3336.68 1806.9 3336.55 1807.25 3338.77 1800.51 3338.67 1800.9 3340.05 1794.05 3339.99 1794.49 3340.46 1787.58 3340.46 1788 3340.27 1784.55 3340.31 1784.91 3339.74 1781.46 3339.86 1781.96 3337.65 1775.1 3337.88 1775.65 3334.31 1768.9 3334.58 1769.33 3329.76 1762.74 3330.02 1763.06 3324.04 1756.69 3324.29 1756.94 3317.24 1750.84 3317.48 1751.03 3309.46 1745.25 3309.69 1745.4 3300.79 1740.01 3301.01 1740.12 3291.34 1735.16 3291.55 1735.26 3281.2 1730.78 3281.4 1730.86 3270.48 1726.92 3270.68 1726.99 3259.27 1723.64 3259.47 1723.69 3247.67 1721 3247.88 1721.04 3235.79 1719.05 3236.01 1719.08 3223.73 1717.84 3223.95 1717.86 3211.58 1717.44 3211.83 1717.43 3199.45 1717.91 3199.7 1717.89 3187.42 1719.27 3187.66 1719.23 3175.57 1721.46 3175.8 1721.41 3164 1724.42 3164.22 1724.36 3152.82 1728.09 3153.03 1728.01 3142.11 1732.42 3142.32 1732.32 3131.97 1737.33 3132.19 1737.21 3122.52 1742.76 3122.74 1742.63 3113.85 1748.66 3114.07 1748.49 3106.05 1754.95 3106.29 1754.74 3099.24 1761.56 3099.48 1761.3 3093.49 1768.42 3093.74 1768.09 3088.91 1775.45 3089.14 1775.04 3085.58 1782.58 3085.77 1782.06 3083.56 1789.73 3083.66 1789.28 3083.52 1790.22 3076.72 1789.22 3076.89 1788.05 3079.24 1779.89 3083.03 1771.88 3088.1 1764.15 3094.33 1756.74 3101.62 1749.69 3109.87 1743.05 3118.99 1736.86 3128.87 1731.19 3139.43 1726.08 3150.57 1721.59 3162.19 1717.79 3174.21 1714.72 3186.53 1712.45 3199.06 1711.04 3211.69 1710.56 3224.3 1710.99 3236.8 1712.25 3249.1 1714.27 3261.1 1717.02 3272.71 1720.42 3283.84 1724.43 3294.38 1728.99 3304.26 1734.07 3313.37 1739.6 3321.62 1745.54 3328.93 1751.86 3335.18 1758.51 3340.28 1765.47 3344.1 1772.71 3346.48 1780.09 3347.12 1783.98 3347.33 1787.84 3346.83 1795.18 3345.37 1802.46 3343.02 1809.59 3339.85 1816.51 3335.95 1823.17 3331.36 1829.52 3326.16 1835.53 3320.4 1841.13 3314.15 1846.27 3307.46 1850.91 3300.4 1854.99 3293.01 1858.46 3285.35 1861.26 3277.4 1863.36 3261.76 1865.05ZM3262.77 1875.31C3255.22 1876.07 3248.47 1870.57 3247.71 1863.01 3246.95 1855.46 3252.45 1848.71 3260.01 1847.95 3267.56 1847.18 3274.31 1852.69 3275.07 1860.25 3275.83 1867.8 3270.33 1874.55 3262.77 1875.31ZM3101.4 1765.79 3079.5 1796.52 3063.53 1762.33C3062.73 1760.61 3063.47 1758.56 3065.19 1757.76 3066.91 1756.96 3068.96 1757.7 3069.76 1759.42L3083.23 1788.27 3077.32 1787.73 3095.8 1761.8C3096.9 1760.25 3099.05 1759.89 3100.59 1761 3102.14 1762.1 3102.5 1764.25 3101.4 1765.79Z" fill="#000000" fill-rule="nonzero" fill-opacity="1"/><path d="M1041 1248C1041 1212.1 1070.1 1183 1106 1183L1340 1183C1375.9 1183 1405 1212.1 1405 1248 1405 1283.9 1375.9 1313 1340 1313L1106 1313C1070.1 1313 1041 1283.9 1041 1248Z" stroke="#7F7F7F" stroke-width="2.29167" stroke-linecap="butt" stroke-linejoin="miter" stroke-miterlimit="8" stroke-opacity="1" fill="#86C540" fill-rule="evenodd" fill-opacity="1"/><text fill="#000000" fill-opacity="1" font-family="Arial,Arial_MSFontService,sans-serif" font-style="normal" font-variant="normal" font-weight="400" font-stretch="normal" font-size="55" text-anchor="start" direction="ltr" writing-mode="lr-tb" unicode-bidi="normal" text-decoration="none" transform="matrix(1 0 0 1 1157.55 1268)">world</text><path d="M2171.89 770.355 3081.18 1171.59 3078.4 1177.88 2169.11 776.645ZM2164.95 786.08C2158 783.014 2154.85 774.897 2157.92 767.949 2160.99 761.001 2169.1 757.854 2176.05 760.92 2183 763.986 2186.15 772.103 2183.08 779.051 2180.01 785.998 2171.9 789.145 2164.95 786.08ZM3063.9 1146.94 3086.04 1177.49 3048.55 1181.73C3046.66 1181.94 3044.96 1180.58 3044.74 1178.7 3044.53 1176.81 3045.89 1175.11 3047.77 1174.9L3079.41 1171.32 3077.01 1176.75 3058.33 1150.98C3057.22 1149.44 3057.56 1147.29 3059.1 1146.18 3060.63 1145.06 3062.78 1145.4 3063.9 1146.94Z" fill="#000000" fill-rule="nonzero" fill-opacity="1"/><path d="M1516 1244.5C1516 1208.33 1545.33 1179 1581.5 1179L1814.5 1179C1850.67 1179 1880 1208.33 1880 1244.5L1880 1244.5C1880 1280.68 1850.67 1310 1814.5 1310L1581.5 1310C1545.33 1310 1516 1280.67 1516 1244.5Z" stroke="#7F7F7F" stroke-width="2.29167" stroke-linecap="butt" stroke-linejoin="miter" stroke-miterlimit="8" stroke-opacity="1" fill="#86C540" fill-rule="evenodd" fill-opacity="1"/><text fill="#000000" fill-opacity="1" font-family="Arial,Arial_MSFontService,sans-serif" font-style="normal" font-variant="normal" font-weight="400" font-stretch="normal" font-size="55" text-anchor="start" direction="ltr" writing-mode="lr-tb" unicode-bidi="normal" text-decoration="none" transform="matrix(1 0 0 1 1644.68 1265)">user</text><path d="M1980 1243C1980 1207.1 2009.1 1178 2045 1178L2279 1178C2314.9 1178 2344 1207.1 2344 1243 2344 1278.9 2314.9 1308 2279 1308L2045 1308C2009.1 1308 1980 1278.9 1980 1243Z" stroke="#7F7F7F" stroke-width="2.29167" stroke-linecap="butt" stroke-linejoin="miter" stroke-miterlimit="8" stroke-opacity="1" fill="#86C540" fill-rule="evenodd" fill-opacity="1"/><text fill="#000000" fill-opacity="1" font-family="Arial,Arial_MSFontService,sans-serif" font-style="normal" font-variant="normal" font-weight="400" font-stretch="normal" font-size="55" text-anchor="start" direction="ltr" writing-mode="lr-tb" unicode-bidi="normal" text-decoration="none" transform="matrix(1 0 0 1 2107.61 1263)">view</text><path d="M2442 1243C2442 1207.1 2471.1 1178 2507 1178L2741 1178C2776.9 1178 2806 1207.1 2806 1243 2806 1278.9 2776.9 1308 2741 1308L2507 1308C2471.1 1308 2442 1278.9 2442 1243Z" stroke="#7F7F7F" stroke-width="2.29167" stroke-linecap="butt" stroke-linejoin="miter" stroke-miterlimit="8" stroke-opacity="1" fill="#86C540" fill-rule="evenodd" fill-opacity="1"/><text fill="#000000" fill-opacity="1" font-family="Arial,Arial_MSFontService,sans-serif" font-style="normal" font-variant="normal" font-weight="400" font-stretch="normal" font-size="55" text-anchor="start" direction="ltr" writing-mode="lr-tb" unicode-bidi="normal" text-decoration="none" transform="matrix(1 0 0 1 2555.69 1263)">portal</text><rect x="1518" y="1781" width="364" height="131" stroke="#7F7F7F" stroke-width="2.29167" stroke-linecap="butt" stroke-linejoin="miter" stroke-miterlimit="8" stroke-opacity="1" fill="#B7C8DB" fill-opacity="1"/><text fill="#000000" fill-opacity="1" font-family="Arial,Arial_MSFontService,sans-serif" font-style="normal" font-variant="normal" font-weight="400" font-stretch="normal" font-size="55" text-anchor="start" direction="ltr" writing-mode="lr-tb" unicode-bidi="normal" text-decoration="none" transform="matrix(1 0 0 1 1621.42 1866)">Avatar</text><path d="M3.43748-0.0129061 5.16947 461.293-1.70548 461.319-3.43748 0.0129061ZM-13.7499 0.0516245C-13.7784-7.54224-7.64549-13.7214-0.0516245-13.7499 7.54224-13.7784 13.7214-7.64549 13.7499-0.0516245 13.7784 7.54224 7.64549 13.7214 0.0516245 13.7499-7.54224 13.7784-13.7214 7.64549-13.7499 0.0516245ZM20.646 435.467 1.75761 468.128-17.3755 435.61C-18.3383 433.974-17.7923 431.867-16.156 430.904-14.5197 429.941-12.4128 430.487-11.4501 432.123L4.69471 459.563-1.24373 459.585 14.6946 432.025 14.6946 432.025C15.645 430.382 17.7477 429.82 19.3912 430.77 21.0346 431.721 21.5964 433.824 20.646 435.467Z" fill="#000000" fill-rule="nonzero" fill-opacity="1" transform="matrix(-1 0 0 1 1698.26 1310.5)"/><path d="M2.2414-2.60625 469.575 399.305 465.092 404.517-2.2414 2.60625ZM-8.96559 10.425C-14.7232 5.47345-15.3766-3.20802-10.425-8.96559-5.47345-14.7232 3.20802-15.3766 8.96559-10.425 14.7232-5.47345 15.3766 3.20802 10.425 8.96559 5.47345 14.7232-3.20802 15.3766-8.96559 10.425ZM460.198 370.7 472.511 406.364 435.406 399.527C433.539 399.183 432.304 397.391 432.648 395.524 432.992 393.657 434.785 392.422 436.652 392.766L467.962 398.535 464.089 403.037 453.699 372.943C453.08 371.149 454.032 369.192 455.827 368.572 457.621 367.953 459.578 368.905 460.198 370.7Z" fill="#000000" fill-rule="nonzero" fill-opacity="1" transform="matrix(-1 0 0 1 2171 773.5)"/><path d="M3.43681-0.0690561 11.4357 398.022 4.56208 398.16-3.43681 0.0690561ZM-13.7472 0.276225C-13.8998-7.31616-7.86861-13.5947-0.276225-13.7472 7.31616-13.8998 13.5947-7.86861 13.7472-0.276225 13.8998 7.31616 7.86861 13.5947 0.276225 13.7472-7.31616 13.8998-13.5947 7.86861-13.7472 0.276225ZM26.4883 371.945 8.13592 404.911-11.5259 372.709C-12.5152 371.089-12.0037 368.973-10.3834 367.984-8.76305 366.995-6.64751 367.506-5.65817 369.126L-5.65817 369.126 10.9327 396.299 4.99543 396.418 20.4814 368.601C21.4049 366.943 23.4982 366.346 25.1569 367.27 26.8157 368.193 27.4117 370.287 26.4883 371.945Z" fill="#000000" fill-rule="nonzero" fill-opacity="1" transform="matrix(-1 0 0 1 2170.64 773.5)"/><path d="M2172.79 770.935 2621.4 1171.3 2616.82 1176.43 2168.21 776.065ZM2161.34 783.759C2155.68 778.702 2155.18 770.01 2160.24 764.345 2165.3 758.679 2173.99 758.185 2179.66 763.241 2185.32 768.298 2185.82 776.99 2180.76 782.655 2175.7 788.321 2167.01 788.815 2161.34 783.759ZM2612.55 1142.52 2624.21 1178.41 2587.23 1170.89C2585.37 1170.51 2584.17 1168.7 2584.55 1166.84 2584.93 1164.98 2586.74 1163.77 2588.6 1164.15L2619.8 1170.49 2615.85 1174.93 2606.01 1144.65C2605.42 1142.84 2606.41 1140.9 2608.22 1140.31 2610.02 1139.73 2611.96 1140.72 2612.55 1142.52Z" fill="#000000" fill-rule="nonzero" fill-opacity="1"/><path d="M1.36375-3.15541 942.716 403.693 939.988 410.004-1.36375 3.15541ZM-5.45499 12.6216C-12.4257 9.60892-15.6343 1.51574-12.6216-5.45499-9.60892-12.4257-1.51574-15.6343 5.45499-12.6216 12.4257-9.60892 15.6343-1.51574 12.6216 5.45499 9.60892 12.4257 1.51574 15.6343-5.45499 12.6216ZM925.237 379.173 947.611 409.553 910.153 414.075C908.268 414.303 906.556 412.959 906.328 411.074 906.101 409.19 907.444 407.477 909.329 407.25L940.936 403.434 938.58 408.885 919.701 383.25C918.575 381.722 918.902 379.57 920.43 378.444 921.959 377.318 924.111 377.645 925.237 379.173Z" fill="#000000" fill-rule="nonzero" fill-opacity="1" transform="matrix(-1 0 0 1 2171.1 773.5)"/><path d="M2626.75 1305.9 2642.33 1319.42 2637.83 1324.61 2622.25 1311.1ZM2647.53 1323.92 2663.11 1337.44 2658.6 1342.63 2643.02 1329.12ZM2668.3 1341.94 2683.88 1355.46 2679.37 1360.65 2663.79 1347.14ZM2689.07 1359.96 2704.65 1373.48 2700.15 1378.67 2684.57 1365.16ZM2709.85 1377.98 2725.43 1391.5 2720.92 1396.69 2705.34 1383.18ZM2730.62 1396 2746.2 1409.52 2741.69 1414.71 2726.11 1401.2ZM2751.39 1414.02 2766.97 1427.54 2762.47 1432.73 2746.89 1419.22ZM2772.17 1432.04 2787.75 1445.56 2783.24 1450.75 2767.66 1437.24ZM2792.94 1450.06 2808.52 1463.58 2804.01 1468.77 2788.43 1455.26ZM2813.71 1468.08 2829.29 1481.6 2824.79 1486.79 2809.21 1473.28ZM2834.49 1486.1 2850.07 1499.62 2845.56 1504.81 2829.98 1491.3ZM2855.26 1504.12 2870.84 1517.64 2866.34 1522.83 2850.76 1509.32ZM2876.03 1522.14 2891.61 1535.66 2887.11 1540.85 2871.53 1527.33ZM2615.49 1318.89C2609.75 1313.91 2609.14 1305.23 2614.11 1299.49 2619.09 1293.75 2627.77 1293.14 2633.51 1298.11 2639.25 1303.09 2639.86 1311.77 2634.89 1317.51 2629.91 1323.25 2621.23 1323.86 2615.49 1318.89ZM2885.29 1509.56 2897.46 1545.27 2860.38 1538.28C2858.51 1537.93 2857.29 1536.13 2857.64 1534.26 2857.99 1532.4 2859.79 1531.17 2861.65 1531.52L2892.94 1537.43 2889.05 1541.91 2878.79 1511.77C2878.17 1509.98 2879.13 1508.02 2880.93 1507.41 2882.73 1506.8 2884.68 1507.76 2885.29 1509.56Z" fill="#000000" fill-rule="nonzero" fill-opacity="1"/><path d="M2163.55 1305.23 2183.19 1311.55 2181.08 1318.1 2161.45 1311.77ZM2189.73 1313.66 2209.36 1319.99 2207.25 1326.53 2187.62 1320.21ZM2215.9 1322.1 2235.53 1328.42 2233.43 1334.97 2213.8 1328.64ZM2242.08 1330.53 2261.71 1336.86 2259.6 1343.4 2239.97 1337.07ZM2268.25 1338.97 2287.88 1345.29 2285.78 1351.83 2266.14 1345.51ZM2294.43 1347.4 2314.06 1353.72 2311.95 1360.27 2292.32 1353.94ZM2320.6 1355.83 2340.23 1362.16 2338.12 1368.7 2318.49 1362.38ZM2346.78 1364.27 2366.41 1370.59 2364.3 1377.14 2344.67 1370.81ZM2372.95 1372.7 2392.58 1379.03 2390.47 1385.57 2370.84 1379.25ZM2399.13 1381.14 2418.76 1387.46 2416.65 1394.01 2397.02 1387.68ZM2425.3 1389.57 2444.93 1395.9 2442.82 1402.44 2423.19 1396.11ZM2451.48 1398 2471.11 1404.33 2469 1410.87 2449.37 1404.55ZM2477.65 1406.44 2497.28 1412.76 2495.17 1419.31 2475.54 1412.98ZM2503.83 1414.87 2523.46 1421.2 2521.35 1427.74 2501.72 1421.42ZM2530 1423.31 2549.63 1429.63 2547.52 1436.18 2527.89 1429.85ZM2556.17 1431.74 2575.81 1438.07 2573.7 1444.61 2554.07 1438.28ZM2582.35 1440.18 2601.98 1446.5 2599.87 1453.04 2580.24 1446.72ZM2608.52 1448.61 2628.16 1454.94 2626.05 1461.48 2606.42 1455.15ZM2634.7 1457.04 2654.33 1463.37 2652.22 1469.91 2632.59 1463.59ZM2660.87 1465.48 2680.5 1471.8 2678.4 1478.35 2658.76 1472.02ZM2687.05 1473.91 2706.68 1480.24 2704.57 1486.78 2684.94 1480.46ZM2713.22 1482.35 2732.85 1488.67 2730.75 1495.22 2711.11 1488.89ZM2739.4 1490.78 2759.03 1497.11 2756.92 1503.65 2737.29 1497.32ZM2765.57 1499.21 2785.2 1505.54 2783.09 1512.08 2763.46 1505.76ZM2791.75 1507.65 2811.38 1513.97 2809.27 1520.52 2789.64 1514.19ZM2817.92 1516.08 2837.55 1522.41 2835.44 1528.95 2815.81 1522.63ZM2844.1 1524.52 2863.73 1530.84 2861.62 1537.39 2841.99 1531.06ZM2870.27 1532.95 2889.9 1539.28 2887.79 1545.82 2868.16 1539.5ZM2158.28 1321.59C2151.05 1319.26 2147.08 1311.51 2149.41 1304.28 2151.74 1297.06 2159.49 1293.08 2166.72 1295.41 2173.95 1297.74 2177.92 1305.49 2175.59 1312.72 2173.26 1319.95 2165.51 1323.92 2158.28 1321.59ZM2872.1 1517.18 2897.29 1545.27 2860.44 1553.37C2858.58 1553.78 2856.75 1552.6 2856.34 1550.75 2855.93 1548.89 2857.11 1547.06 2858.96 1546.65L2890.06 1539.82 2888.24 1545.47 2866.98 1521.77C2865.71 1520.36 2865.83 1518.18 2867.24 1516.91 2868.66 1515.65 2870.83 1515.77 2872.1 1517.18Z" fill="#000000" fill-rule="nonzero" fill-opacity="1"/><rect x="1989" y="643" width="363" height="130" stroke="#4472C4" stroke-width="2.29167" stroke-linecap="butt" stroke-linejoin="miter" stroke-miterlimit="8" stroke-opacity="1" fill="#CFE2F3" fill-opacity="1"/><text fill="#000000" fill-opacity="1" font-family="Arial,Arial_MSFontService,sans-serif" font-style="normal" font-variant="normal" font-weight="400" font-stretch="normal" font-size="55" text-anchor="start" direction="ltr" writing-mode="lr-tb" unicode-bidi="normal" text-decoration="none" transform="matrix(1 0 0 1 2059.52 728)">OSWorld</text><rect x="2442" y="1790" width="364" height="130" stroke="#7F7F7F" stroke-width="2.29167" stroke-linecap="butt" stroke-linejoin="miter" stroke-miterlimit="8" stroke-opacity="1" fill="#CFE2F3" fill-opacity="1"/><text fill="#000000" fill-opacity="1" font-family="Arial,Arial_MSFontService,sans-serif" font-style="normal" font-variant="normal" font-weight="400" font-stretch="normal" font-size="55" text-anchor="start" direction="ltr" writing-mode="lr-tb" unicode-bidi="normal" text-decoration="none" transform="matrix(1 0 0 1 2513.21 1875)">OSWorld</text><path d="M3.43748-0.0129061 5.16947 461.293-1.70548 461.319-3.43748 0.0129061ZM-13.7499 0.0516245C-13.7784-7.54224-7.64549-13.7214-0.0516245-13.7499 7.54224-13.7784 13.7214-7.64549 13.7499-0.0516245 13.7784 7.54224 7.64549 13.7214 0.0516245 13.7499-7.54224 13.7784-13.7214 7.64549-13.7499 0.0516245ZM20.646 435.467 1.75761 468.128-17.3755 435.61C-18.3383 433.974-17.7923 431.867-16.156 430.904-14.5197 429.941-12.4128 430.487-11.4501 432.123L4.69471 459.563-1.24373 459.585 14.6946 432.025 14.6946 432.025C15.645 430.382 17.7477 429.82 19.3912 430.77 21.0346 431.721 21.5964 433.824 20.646 435.467Z" fill="#000000" fill-rule="nonzero" fill-opacity="1" transform="matrix(-1 0 0 1 2626.26 1321.5)"/><text fill="#000000" fill-opacity="1" font-family="Trebuchet MS,Trebuchet MS_MSFontService,sans-serif" font-style="normal" font-variant="normal" font-weight="700" font-stretch="normal" font-size="37" text-anchor="start" direction="ltr" writing-mode="lr-tb" unicode-bidi="normal" text-decoration="none" transform="matrix(1 0 0 1 1135.88 1173)">1</text><text fill="#000000" fill-opacity="1" font-family="Trebuchet MS,Trebuchet MS_MSFontService,sans-serif" font-style="normal" font-variant="normal" font-weight="700" font-stretch="normal" font-size="37" text-anchor="start" direction="ltr" writing-mode="lr-tb" unicode-bidi="normal" text-decoration="none" transform="matrix(1 0 0 1 1598.97 1160)">0</text><text fill="#000000" fill-opacity="1" font-family="Trebuchet MS,Trebuchet MS_MSFontService,sans-serif" font-style="normal" font-variant="normal" font-weight="700" font-stretch="normal" font-size="37" text-anchor="start" direction="ltr" writing-mode="lr-tb" unicode-bidi="normal" text-decoration="none" transform="matrix(1 0 0 1 1620.74 1160)">-</text><text fill="#000000" fill-opacity="1" font-family="Trebuchet MS,Trebuchet MS_MSFontService,sans-serif" font-style="normal" font-variant="normal" font-weight="700" font-stretch="normal" font-size="37" text-anchor="start" direction="ltr" writing-mode="lr-tb" unicode-bidi="normal" text-decoration="none" transform="matrix(1 0 0 1 1634.49 1160)">n</text><text fill="#000000" fill-opacity="1" font-family="Trebuchet MS,Trebuchet MS_MSFontService,sans-serif" font-style="normal" font-variant="normal" font-weight="700" font-stretch="normal" font-size="37" text-anchor="start" direction="ltr" writing-mode="lr-tb" unicode-bidi="normal" text-decoration="none" transform="matrix(1 0 0 1 2192.02 1155)">0</text><text fill="#000000" fill-opacity="1" font-family="Trebuchet MS,Trebuchet MS_MSFontService,sans-serif" font-style="normal" font-variant="normal" font-weight="700" font-stretch="normal" font-size="37" text-anchor="start" direction="ltr" writing-mode="lr-tb" unicode-bidi="normal" text-decoration="none" transform="matrix(1 0 0 1 2213.79 1155)">-</text><text fill="#000000" fill-opacity="1" font-family="Trebuchet MS,Trebuchet MS_MSFontService,sans-serif" font-style="normal" font-variant="normal" font-weight="700" font-stretch="normal" font-size="37" text-anchor="start" direction="ltr" writing-mode="lr-tb" unicode-bidi="normal" text-decoration="none" transform="matrix(1 0 0 1 2227.54 1155)">n</text><text fill="#000000" fill-opacity="1" font-family="Trebuchet MS,Trebuchet MS_MSFontService,sans-serif" font-style="normal" font-variant="normal" font-weight="700" font-stretch="normal" font-size="37" text-anchor="start" direction="ltr" writing-mode="lr-tb" unicode-bidi="normal" text-decoration="none" transform="matrix(1 0 0 1 2645.93 1153)">0</text><text fill="#000000" fill-opacity="1" font-family="Trebuchet MS,Trebuchet MS_MSFontService,sans-serif" font-style="normal" font-variant="normal" font-weight="700" font-stretch="normal" font-size="37" text-anchor="start" direction="ltr" writing-mode="lr-tb" unicode-bidi="normal" text-decoration="none" transform="matrix(1 0 0 1 2667.7 1153)">-</text><text fill="#000000" fill-opacity="1" font-family="Trebuchet MS,Trebuchet MS_MSFontService,sans-serif" font-style="normal" font-variant="normal" font-weight="700" font-stretch="normal" font-size="37" text-anchor="start" direction="ltr" writing-mode="lr-tb" unicode-bidi="normal" text-decoration="none" transform="matrix(1 0 0 1 2681.45 1153)">n</text><text fill="#000000" fill-opacity="1" font-family="Trebuchet MS,Trebuchet MS_MSFontService,sans-serif" font-style="normal" font-variant="normal" font-weight="700" font-stretch="normal" font-size="37" text-anchor="start" direction="ltr" writing-mode="lr-tb" unicode-bidi="normal" text-decoration="none" transform="matrix(1 0 0 1 3115.68 1158)">0</text><text fill="#000000" fill-opacity="1" font-family="Trebuchet MS,Trebuchet MS_MSFontService,sans-serif" font-style="normal" font-variant="normal" font-weight="700" font-stretch="normal" font-size="37" text-anchor="start" direction="ltr" writing-mode="lr-tb" unicode-bidi="normal" text-decoration="none" transform="matrix(1 0 0 1 3137.45 1158)">-</text><text fill="#000000" fill-opacity="1" font-family="Trebuchet MS,Trebuchet MS_MSFontService,sans-serif" font-style="normal" font-variant="normal" font-weight="700" font-stretch="normal" font-size="37" text-anchor="start" direction="ltr" writing-mode="lr-tb" unicode-bidi="normal" text-decoration="none" transform="matrix(1 0 0 1 3151.2 1158)">n</text><text fill="#000000" fill-opacity="1" font-family="Trebuchet MS,Trebuchet MS_MSFontService,sans-serif" font-style="normal" font-variant="normal" font-weight="700" font-stretch="normal" font-size="37" text-anchor="start" direction="ltr" writing-mode="lr-tb" unicode-bidi="normal" text-decoration="none" transform="matrix(1 0 0 1 3314.94 1418)">0</text><text fill="#000000" fill-opacity="1" font-family="Trebuchet MS,Trebuchet MS_MSFontService,sans-serif" font-style="normal" font-variant="normal" font-weight="700" font-stretch="normal" font-size="37" text-anchor="start" direction="ltr" writing-mode="lr-tb" unicode-bidi="normal" text-decoration="none" transform="matrix(1 0 0 1 3336.71 1418)">-</text><text fill="#000000" fill-opacity="1" font-family="Trebuchet MS,Trebuchet MS_MSFontService,sans-serif" font-style="normal" font-variant="normal" font-weight="700" font-stretch="normal" font-size="37" text-anchor="start" direction="ltr" writing-mode="lr-tb" unicode-bidi="normal" text-decoration="none" transform="matrix(1 0 0 1 3350.46 1418)">n</text><text fill="#000000" fill-opacity="1" font-family="Trebuchet MS,Trebuchet MS_MSFontService,sans-serif" font-style="normal" font-variant="normal" font-weight="700" font-stretch="normal" font-size="37" text-anchor="start" direction="ltr" writing-mode="lr-tb" unicode-bidi="normal" text-decoration="none" transform="matrix(1 0 0 1 3013.9 1389)">0</text><text fill="#000000" fill-opacity="1" font-family="Trebuchet MS,Trebuchet MS_MSFontService,sans-serif" font-style="normal" font-variant="normal" font-weight="700" font-stretch="normal" font-size="37" text-anchor="start" direction="ltr" writing-mode="lr-tb" unicode-bidi="normal" text-decoration="none" transform="matrix(1 0 0 1 3035.67 1389)">-</text><text fill="#000000" fill-opacity="1" font-family="Trebuchet MS,Trebuchet MS_MSFontService,sans-serif" font-style="normal" font-variant="normal" font-weight="700" font-stretch="normal" font-size="37" text-anchor="start" direction="ltr" writing-mode="lr-tb" unicode-bidi="normal" text-decoration="none" transform="matrix(1 0 0 1 3049.42 1389)">n</text><path d="M3261.02 1546.21 3276.41 1544.55 3275.9 1544.65 3283.44 1542.66 3283.14 1542.75 3290.5 1540.06 3290.22 1540.17 3297.34 1536.83 3297.08 1536.97 3303.9 1533.03 3303.66 1533.18 3310.12 1528.7 3309.89 1528.87 3315.92 1523.91 3315.71 1524.1 3321.26 1518.7 3321.06 1518.91 3326.06 1513.14 3325.87 1513.38 3330.28 1507.28 3330.1 1507.55 3333.83 1501.18 3333.67 1501.49 3336.68 1494.9 3336.55 1495.26 3338.77 1488.51 3338.67 1488.9 3340.05 1482.05 3339.99 1482.49 3340.46 1475.58 3340.46 1476 3340.27 1472.55 3340.31 1472.91 3339.74 1469.46 3339.86 1469.96 3337.65 1463.1 3337.88 1463.65 3334.31 1456.9 3334.58 1457.33 3329.76 1450.74 3330.02 1451.07 3324.04 1444.69 3324.29 1444.94 3317.24 1438.84 3317.48 1439.03 3309.46 1433.25 3309.69 1433.4 3300.79 1428.01 3301.01 1428.12 3291.34 1423.16 3291.55 1423.26 3281.2 1418.78 3281.4 1418.86 3270.48 1414.92 3270.68 1414.99 3259.27 1411.64 3259.47 1411.69 3247.67 1409 3247.88 1409.04 3235.79 1407.05 3236.01 1407.08 3223.73 1405.84 3223.95 1405.86 3211.58 1405.44 3211.83 1405.44 3199.45 1405.91 3199.7 1405.89 3187.42 1407.27 3187.66 1407.23 3175.57 1409.46 3175.8 1409.41 3164 1412.42 3164.22 1412.36 3152.82 1416.09 3153.03 1416.01 3142.11 1420.42 3142.32 1420.32 3131.97 1425.33 3132.19 1425.21 3122.52 1430.76 3122.74 1430.63 3113.85 1436.66 3114.07 1436.49 3106.05 1442.95 3106.29 1442.74 3099.24 1449.56 3099.48 1449.3 3093.49 1456.42 3093.74 1456.09 3088.91 1463.45 3089.14 1463.04 3085.58 1470.58 3085.77 1470.06 3083.56 1477.73 3083.66 1477.28 3083.52 1478.22 3076.72 1477.22 3076.89 1476.05 3079.24 1467.89 3083.03 1459.88 3088.1 1452.15 3094.33 1444.74 3101.62 1437.69 3109.87 1431.05 3118.99 1424.86 3128.87 1419.19 3139.43 1414.08 3150.57 1409.6 3162.19 1405.79 3174.21 1402.72 3186.53 1400.45 3199.06 1399.04 3211.69 1398.56 3224.3 1398.99 3236.8 1400.25 3249.1 1402.27 3261.1 1405.02 3272.71 1408.42 3283.84 1412.43 3294.38 1416.99 3304.26 1422.07 3313.37 1427.6 3321.62 1433.54 3328.93 1439.86 3335.18 1446.51 3340.28 1453.47 3344.1 1460.71 3346.48 1468.09 3347.12 1471.98 3347.33 1475.84 3346.83 1483.18 3345.37 1490.46 3343.02 1497.59 3339.85 1504.51 3335.95 1511.17 3331.36 1517.52 3326.16 1523.53 3320.4 1529.13 3314.15 1534.27 3307.46 1538.91 3300.4 1542.99 3293.01 1546.46 3285.35 1549.26 3277.4 1551.36 3261.76 1553.05ZM3262.77 1563.31C3255.22 1564.07 3248.47 1558.57 3247.71 1551.01 3246.95 1543.46 3252.45 1536.71 3260.01 1535.95 3267.56 1535.19 3274.31 1540.69 3275.07 1548.25 3275.83 1555.8 3270.33 1562.55 3262.77 1563.31ZM3101.4 1453.79 3079.5 1484.52 3063.53 1450.33C3062.73 1448.61 3063.47 1446.57 3065.19 1445.76 3066.91 1444.96 3068.96 1445.7 3069.76 1447.42L3083.23 1476.27 3077.32 1475.73 3095.8 1449.8C3096.9 1448.26 3099.05 1447.9 3100.59 1449 3102.14 1450.1 3102.5 1452.25 3101.4 1453.79Z" fill="#000000" fill-rule="nonzero" fill-opacity="1"/><text fill="#000000" fill-opacity="1" font-family="Trebuchet MS,Trebuchet MS_MSFontService,sans-serif" font-style="normal" font-variant="normal" font-weight="700" font-stretch="normal" font-size="37" text-anchor="start" direction="ltr" writing-mode="lr-tb" unicode-bidi="normal" text-decoration="none" transform="matrix(1 0 0 1 3367.98 1757)">0</text><text fill="#000000" fill-opacity="1" font-family="Trebuchet MS,Trebuchet MS_MSFontService,sans-serif" font-style="normal" font-variant="normal" font-weight="700" font-stretch="normal" font-size="37" text-anchor="start" direction="ltr" writing-mode="lr-tb" unicode-bidi="normal" text-decoration="none" transform="matrix(1 0 0 1 3389.76 1757)">-</text><text fill="#000000" fill-opacity="1" font-family="Trebuchet MS,Trebuchet MS_MSFontService,sans-serif" font-style="normal" font-variant="normal" font-weight="700" font-stretch="normal" font-size="37" text-anchor="start" direction="ltr" writing-mode="lr-tb" unicode-bidi="normal" text-decoration="none" transform="matrix(1 0 0 1 3403.51 1757)">n</text></g></g></svg>