<svg width="2732" height="1732" xmlns="http://www.w3.org/2000/svg" xmlns:xlink="http://www.w3.org/1999/xlink" xml:space="preserve" overflow="hidden"><g transform="translate(-870 -380)"><g><rect x="882.5" y="385.5" width="2577" height="1141" stroke="#000000" stroke-width="4.58333" stroke-linecap="butt" stroke-linejoin="miter" stroke-miterlimit="8" stroke-opacity="1" fill="#FFFFFF" fill-opacity="1"/><text fill="#000000" fill-opacity="1" font-family="Arial,Arial_MSFontService,sans-serif" font-style="normal" font-variant="normal" font-weight="400" font-stretch="normal" font-size="64" text-anchor="start" direction="ltr" writing-mode="lr-tb" unicode-bidi="normal" text-decoration="none" transform="matrix(1 0 0 1 914.706 464)">Information exposed by the </text><text fill="#000000" fill-opacity="1" font-family="Arial,Arial_MSFontService,sans-serif" font-style="normal" font-variant="normal" font-weight="700" font-stretch="normal" font-size="64" text-anchor="start" direction="ltr" writing-mode="lr-tb" unicode-bidi="normal" text-decoration="none" transform="matrix(1 0 0 1 1703.61 464)">OpenSpatialWorld</text><text fill="#000000" fill-opacity="1" font-family="Arial,Arial_MSFontService,sans-serif" font-style="normal" font-variant="normal" font-weight="400" font-stretch="normal" font-size="64" text-anchor="start" direction="ltr" writing-mode="lr-tb" unicode-bidi="normal" text-decoration="none" transform="matrix(1 0 0 1 2274.79 464)">Web</text><text fill="#000000" fill-opacity="1" font-family="Arial,Arial_MSFontService,sans-serif" font-style="normal" font-variant="normal" font-weight="400" font-stretch="normal" font-size="64" text-anchor="start" direction="ltr" writing-mode="lr-tb" unicode-bidi="normal" text-decoration="none" transform="matrix(1 0 0 1 2405.39 464)">-</text><text fill="#000000" fill-opacity="1" font-family="Arial,Arial_MSFontService,sans-serif" font-style="normal" font-variant="normal" font-weight="400" font-stretch="normal" font-size="64" text-anchor="start" direction="ltr" writing-mode="lr-tb" unicode-bidi="normal" text-decoration="none" transform="matrix(1 0 0 1 2426.59 464)">API and endpoint</text><rect x="881" y="705" width="2578" height="818" fill="#70C7DA" fill-opacity="1"/><rect x="881.5" y="1520.5" width="2578" height="567" stroke="#000000" stroke-width="4.58333" stroke-linecap="butt" stroke-linejoin="miter" stroke-miterlimit="8" stroke-opacity="1" fill="#FFFFFF" fill-opacity="1"/><text fill="#000000" fill-opacity="1" font-family="Arial,Arial_MSFontService,sans-serif" font-style="normal" font-variant="normal" font-weight="400" font-stretch="normal" font-size="64" text-anchor="start" direction="ltr" writing-mode="lr-tb" unicode-bidi="normal" text-decoration="none" transform="matrix(1 0 0 1 913.743 2055)">Optional shared </text><text fill="#000000" fill-opacity="1" font-family="Arial,Arial_MSFontService,sans-serif" font-style="normal" font-variant="normal" font-weight="700" font-stretch="normal" font-size="64" text-anchor="start" direction="ltr" writing-mode="lr-tb" unicode-bidi="normal" text-decoration="none" transform="matrix(1 0 0 1 1382.96 2055)">UserManifest</text><text fill="#000000" fill-opacity="1" font-family="Arial,Arial_MSFontService,sans-serif" font-style="normal" font-variant="normal" font-weight="400" font-stretch="normal" font-size="64" text-anchor="start" direction="ltr" writing-mode="lr-tb" unicode-bidi="normal" text-decoration="none" transform="matrix(1 0 0 1 1802.34 2055)">and </text><text fill="#000000" fill-opacity="1" font-family="Arial,Arial_MSFontService,sans-serif" font-style="normal" font-variant="normal" font-weight="700" font-stretch="normal" font-size="64" text-anchor="start" direction="ltr" writing-mode="lr-tb" unicode-bidi="normal" text-decoration="none" transform="matrix(1 0 0 1 1926.66 2055)">OpenSpatialAsset</text><text fill="#000000" fill-opacity="1" font-family="Arial,Arial_MSFontService,sans-serif" font-style="normal" font-variant="normal" font-weight="400" font-stretch="normal" font-size="64" text-anchor="start" direction="ltr" writing-mode="lr-tb" unicode-bidi="normal" text-decoration="none" transform="matrix(1 0 0 1 2491.56 2055)">links to agnostic endpoints</text><path d="M2913 1122.5C2913 1086.33 2942.33 1057 2978.5 1057L3211.5 1057C3247.68 1057 3277 1086.33 3277 1122.5L3277 1122.5C3277 1158.67 3247.67 1188 3211.5 1188L2978.5 1188C2942.33 1188 2913 1158.67 2913 1122.5Z" stroke="#4472C4" stroke-width="2.29167" stroke-linecap="butt" stroke-linejoin="miter" stroke-miterlimit="8" stroke-opacity="1" fill="#00B2DB" fill-rule="evenodd" fill-opacity="1"/><text fill="#FFFFFF" fill-opacity="1" font-family="Arial,Arial_MSFontService,sans-serif" font-style="normal" font-variant="normal" font-weight="400" font-stretch="normal" font-size="55" text-anchor="start" direction="ltr" writing-mode="lr-tb" unicode-bidi="normal" text-decoration="none" transform="matrix(1 0 0 1 3015.6 1143)">spatial</text><path d="M2913 1425C2913 1389.1 2942.1 1360 2978 1360L3212 1360C3247.9 1360 3277 1389.1 3277 1425L3277 1425C3277 1460.9 3247.9 1490 3212 1490L2978 1490C2942.1 1490 2913 1460.9 2913 1425Z" stroke="#4472C4" stroke-width="2.29167" stroke-linecap="butt" stroke-linejoin="miter" stroke-miterlimit="8" stroke-opacity="1" fill="#00B2DB" fill-rule="evenodd" fill-opacity="1"/><text fill="#FFFFFF" fill-opacity="1" font-family="Arial,Arial_MSFontService,sans-serif" font-style="normal" font-variant="normal" font-weight="400" font-stretch="normal" font-size="55" text-anchor="start" direction="ltr" writing-mode="lr-tb" unicode-bidi="normal" text-decoration="none" transform="matrix(1 0 0 1 3033.93 1445)">node</text><path d="M3.4375-3.59491e-05 3.43923 165.738-3.43577 165.739-3.4375 3.59491e-05ZM-13.75 0.000143797C-13.7501-7.59377-7.59406-13.7499-0.000143797-13.75 7.59377-13.7501 13.7499-7.59406 13.75-0.000143797 13.7501 7.59377 7.59406 13.7499 0.000143797 13.75-7.59377 13.7501-13.7499 7.59406-13.75 0.000143797ZM19.0124 139.97 0.00180507 172.561-19.0094 139.971C-19.966 138.331-19.4122 136.226-17.7723 135.27-16.1325 134.313-14.0276 134.867-13.071 136.507L2.97096 164.006-2.96752 164.007 13.0739 136.506 13.0739 136.506C14.0304 134.867 16.1353 134.313 17.7751 135.269 19.415 136.226 19.9689 138.331 19.0124 139.97Z" fill="#000000" fill-rule="nonzero" fill-opacity="1" transform="matrix(-1 0 0 1 3095.5 1188.5)"/><path d="M2172.72 704.286 3090.03 1052.4 3087.59 1058.83 2170.28 710.714ZM2166.62 720.355C2159.52 717.661 2155.95 709.721 2158.64 702.621 2161.34 695.521 2169.28 691.95 2176.38 694.645 2183.48 697.339 2187.05 705.279 2184.36 712.379 2181.66 719.478 2173.72 723.05 2166.62 720.355ZM3071.45 1028.7 3095.18 1058.04 3057.96 1064.25C3056.09 1064.56 3054.32 1063.29 3054.01 1061.42 3053.69 1059.55 3054.96 1057.78 3056.83 1057.47L3088.23 1052.22 3086.13 1057.78 3066.11 1033.02C3064.91 1031.55 3065.14 1029.38 3066.62 1028.19 3068.09 1026.99 3070.26 1027.22 3071.45 1028.7Z" fill="#000000" fill-rule="nonzero" fill-opacity="1"/><path d="M1527 1125C1527 1089.1 1556.1 1060 1592 1060L1826 1060C1861.9 1060 1891 1089.1 1891 1125L1891 1125C1891 1160.9 1861.9 1190 1826 1190L1592 1190C1556.1 1190 1527 1160.9 1527 1125Z" stroke="#4472C4" stroke-width="2.29167" stroke-linecap="butt" stroke-linejoin="miter" stroke-miterlimit="8" stroke-opacity="1" fill="#00B2DB" fill-rule="evenodd" fill-opacity="1"/><text fill="#FFFFFF" fill-opacity="1" font-family="Arial,Arial_MSFontService,sans-serif" font-style="normal" font-variant="normal" font-weight="400" font-stretch="normal" font-size="55" text-anchor="start" direction="ltr" writing-mode="lr-tb" unicode-bidi="normal" text-decoration="none" transform="matrix(1 0 0 1 1655.68 1145)">user</text><path d="M1989 1123.5C1989 1087.33 2018.33 1058 2054.5 1058L2287.5 1058C2323.68 1058 2353 1087.33 2353 1123.5L2353 1123.5C2353 1159.68 2323.67 1189 2287.5 1189L2054.5 1189C2018.33 1189 1989 1159.67 1989 1123.5Z" stroke="#4472C4" stroke-width="2.29167" stroke-linecap="butt" stroke-linejoin="miter" stroke-miterlimit="8" stroke-opacity="1" fill="#00B2DB" fill-rule="evenodd" fill-opacity="1"/><text fill="#FFFFFF" fill-opacity="1" font-family="Arial,Arial_MSFontService,sans-serif" font-style="normal" font-variant="normal" font-weight="400" font-stretch="normal" font-size="55" text-anchor="start" direction="ltr" writing-mode="lr-tb" unicode-bidi="normal" text-decoration="none" transform="matrix(1 0 0 1 2116.29 1143)">view</text><path d="M2451 1123.5C2451 1087.33 2480.33 1058 2516.5 1058L2749.5 1058C2785.68 1058 2815 1087.33 2815 1123.5L2815 1123.5C2815 1159.68 2785.67 1189 2749.5 1189L2516.5 1189C2480.33 1189 2451 1159.67 2451 1123.5Z" stroke="#4472C4" stroke-width="2.29167" stroke-linecap="butt" stroke-linejoin="miter" stroke-miterlimit="8" stroke-opacity="1" fill="#00B2DB" fill-rule="evenodd" fill-opacity="1"/><text fill="#FFFFFF" fill-opacity="1" font-family="Arial,Arial_MSFontService,sans-serif" font-style="normal" font-variant="normal" font-weight="400" font-stretch="normal" font-size="55" text-anchor="start" direction="ltr" writing-mode="lr-tb" unicode-bidi="normal" text-decoration="none" transform="matrix(1 0 0 1 2564.37 1143)">portal</text><rect x="1448" y="1715" width="515" height="137" stroke="#7F7F7F" stroke-width="2.29167" stroke-linecap="butt" stroke-linejoin="miter" stroke-miterlimit="8" stroke-opacity="1" fill="#0098CB" fill-opacity="1"/><text fill="#FFFFFF" fill-opacity="1" font-family="Arial,Arial_MSFontService,sans-serif" font-style="normal" font-variant="normal" font-weight="400" font-stretch="normal" font-size="73" text-anchor="start" direction="ltr" writing-mode="lr-tb" unicode-bidi="normal" text-decoration="none" transform="matrix(1 0 0 1 1479.16 1810)">User Manifest</text><path d="M3.43742-0.0228684 6.88523 518.23 0.0103868 518.276-3.43742 0.0228684ZM-13.7497 0.0914735C-13.8002-7.50227-7.68522-13.6992-0.0914735-13.7497 7.50227-13.8002 13.6992-7.68522 13.7497-0.0914735 13.8002 7.50227 7.68522 13.6992 0.0914735 13.7497-7.50227 13.8002-13.6992 7.68522-13.7497 0.0914735ZM22.2869 492.357 3.49319 525.073-15.7341 492.61-15.7341 492.61C-16.7016 490.977-16.1617 488.868-14.5282 487.901-12.8948 486.933-10.7863 487.473-9.81881 489.106L6.40545 516.499 0.467101 516.539 16.3255 488.932 16.3255 488.932C17.2711 487.286 19.3722 486.718 21.0184 487.664 22.6646 488.61 23.2325 490.711 22.2869 492.357Z" fill="#000000" fill-rule="nonzero" fill-opacity="1" transform="matrix(-1 0 0 1 1708.99 1190.5)"/><path d="M2.0856-2.73252 458.717 345.792 454.546 351.257-2.0856 2.73252ZM-8.34241 10.9301C-14.3789 6.3227-15.5375-2.30589-10.9301-8.34241-6.3227-14.3789 2.30589-15.5375 8.34241-10.9301 14.3789-6.3227 15.5375 2.30589 10.9301 8.34241 6.3227 14.3789-2.30589 15.5375-8.34241 10.9301ZM447.683 317.78 462.055 352.665 424.615 348.004C422.731 347.769 421.394 346.052 421.628 344.168 421.863 342.284 423.58 340.947 425.464 341.181L457.057 345.114 453.454 349.835 441.327 320.398C440.603 318.643 441.44 316.634 443.195 315.911 444.951 315.187 446.96 316.024 447.683 317.78Z" fill="#000000" fill-rule="nonzero" fill-opacity="1" transform="matrix(-1 0 0 1 2171.54 707.5)"/><path d="M2174.94 707.5 2174.94 1052.13 2168.07 1052.13 2168.06 707.5ZM2157.75 707.5C2157.75 699.906 2163.91 693.75 2171.5 693.75 2179.09 693.75 2185.25 699.906 2185.25 707.5 2185.25 715.094 2179.09 721.25 2171.5 721.25 2163.91 721.25 2157.75 715.094 2157.75 707.5ZM2190.51 1026.37 2171.5 1058.96 2152.49 1026.37C2151.54 1024.73 2152.09 1022.62 2153.73 1021.66 2155.37 1020.71 2157.47 1021.26 2158.43 1022.9L2174.47 1050.4 2168.53 1050.4 2184.58 1022.9C2185.53 1021.26 2187.64 1020.71 2189.28 1021.66 2190.92 1022.62 2191.47 1024.73 2190.51 1026.37Z" fill="#000000" fill-rule="nonzero" fill-opacity="1"/><path d="M2173.58 704.764 2630 1052.08 2625.83 1057.55 2169.42 710.235ZM2163.17 718.442C2157.13 713.843 2155.96 705.216 2160.56 699.173 2165.16 693.13 2173.78 691.959 2179.83 696.558 2185.87 701.156 2187.04 709.783 2182.44 715.827 2177.84 721.87 2169.22 723.041 2163.17 718.442ZM2618.92 1024.08 2633.35 1058.95 2595.9 1054.34C2594.01 1054.11 2592.67 1052.39 2592.91 1050.51 2593.14 1048.63 2594.85 1047.29 2596.74 1047.52L2628.34 1051.41 2624.74 1056.13 2612.57 1026.71C2611.84 1024.96 2612.68 1022.95 2614.43 1022.22 2616.19 1021.5 2618.2 1022.33 2618.92 1024.08Z" fill="#000000" fill-rule="nonzero" fill-opacity="1"/><path d="M1085 1126C1085 1090.1 1114.1 1061 1150 1061L1383 1061C1418.9 1061 1448 1090.1 1448 1126 1448 1161.9 1418.9 1191 1383 1191L1150 1191C1114.1 1191 1085 1161.9 1085 1126Z" stroke="#4472C4" stroke-width="2.29167" stroke-linecap="butt" stroke-linejoin="miter" stroke-miterlimit="8" stroke-opacity="1" fill="#00B2DB" fill-rule="evenodd" fill-opacity="1"/><text fill="#FFFFFF" fill-opacity="1" font-family="Arial,Arial_MSFontService,sans-serif" font-style="normal" font-variant="normal" font-weight="400" font-stretch="normal" font-size="55" text-anchor="start" direction="ltr" writing-mode="lr-tb" unicode-bidi="normal" text-decoration="none" transform="matrix(1 0 0 1 1167.58 1146)">webApp</text><path d="M2635.72 1186.88 2651.47 1200.19 2647.03 1205.44 2631.28 1192.12ZM2656.72 1204.63 2672.46 1217.95 2668.02 1223.2 2652.28 1209.88ZM2677.71 1222.39 2693.46 1235.71 2689.02 1240.96 2673.27 1227.64ZM2698.71 1240.15 2714.46 1253.47 2710.02 1258.72 2694.27 1245.4ZM2719.71 1257.91 2735.46 1271.23 2731.02 1276.48 2715.27 1263.16ZM2740.71 1275.67 2756.45 1288.99 2752.01 1294.24 2736.27 1280.92ZM2761.7 1293.43 2777.45 1306.75 2773.01 1312 2757.26 1298.68ZM2782.7 1311.19 2798.45 1324.51 2794.01 1329.75 2778.26 1316.44ZM2803.7 1328.95 2819.44 1342.26 2815 1347.51 2799.26 1334.19ZM2824.69 1346.7 2840.44 1360.02 2836 1365.27 2820.25 1351.95ZM2845.69 1364.46 2861.44 1377.78 2857 1383.03 2841.25 1369.71ZM2866.69 1382.22 2882.44 1395.54 2878 1400.79 2862.25 1387.47ZM2887.68 1399.98 2903.43 1413.3 2898.99 1418.55 2883.24 1405.23ZM2908.68 1417.74 2910.46 1419.24 2906.02 1424.49 2904.24 1422.99ZM2624.62 1200C2618.82 1195.09 2618.1 1186.42 2623 1180.62 2627.91 1174.82 2636.58 1174.1 2642.38 1179 2648.18 1183.91 2648.9 1192.58 2644 1198.38 2639.09 1204.18 2630.42 1204.9 2624.62 1200ZM2900.84 1390.71 2913.45 1426.27 2876.29 1419.74C2874.42 1419.41 2873.17 1417.63 2873.5 1415.76 2873.83 1413.89 2875.61 1412.64 2877.48 1412.97L2908.84 1418.48 2905 1423.02 2894.36 1393.01C2893.73 1391.22 2894.67 1389.26 2896.45 1388.62 2898.24 1387.99 2900.21 1388.92 2900.84 1390.71Z" fill="#000000" fill-rule="nonzero" fill-opacity="1"/><path d="M2172.55 1186.23 2192.19 1192.5 2190.1 1199.05 2170.45 1192.77ZM2198.74 1194.59 2218.39 1200.86 2216.3 1207.41 2196.65 1201.14ZM2224.94 1202.95 2244.59 1209.22 2242.5 1215.77 2222.85 1209.5ZM2251.14 1211.31 2270.79 1217.58 2268.7 1224.13 2249.05 1217.86ZM2277.34 1219.67 2296.98 1225.94 2294.89 1232.49 2275.25 1226.22ZM2303.53 1228.04 2323.18 1234.31 2321.09 1240.86 2301.44 1234.58ZM2329.73 1236.4 2349.38 1242.67 2347.29 1249.22 2327.64 1242.95ZM2355.93 1244.76 2375.58 1251.03 2373.49 1257.58 2353.84 1251.31ZM2382.13 1253.12 2401.78 1259.39 2399.69 1265.94 2380.04 1259.67ZM2408.33 1261.48 2427.97 1267.76 2425.88 1274.3 2406.24 1268.03ZM2434.52 1269.85 2454.17 1276.12 2452.08 1282.67 2432.43 1276.4ZM2460.72 1278.21 2480.37 1284.48 2478.28 1291.03 2458.63 1284.76ZM2486.92 1286.57 2506.57 1292.84 2504.48 1299.39 2484.83 1293.12ZM2513.12 1294.93 2532.77 1301.2 2530.67 1307.75 2511.03 1301.48ZM2539.31 1303.29 2558.96 1309.57 2556.87 1316.11 2537.22 1309.84ZM2565.51 1311.66 2585.16 1317.93 2583.07 1324.48 2563.42 1318.21ZM2591.71 1320.02 2611.36 1326.29 2609.27 1332.84 2589.62 1326.57ZM2617.91 1328.38 2637.56 1334.65 2635.47 1341.2 2615.82 1334.93ZM2644.11 1336.74 2663.75 1343.01 2661.66 1349.56 2642.02 1343.29ZM2670.3 1345.1 2689.95 1351.38 2687.86 1357.93 2668.21 1351.65ZM2696.5 1353.47 2716.15 1359.74 2714.06 1366.29 2694.41 1360.02ZM2722.7 1361.83 2742.35 1368.1 2740.26 1374.65 2720.61 1368.38ZM2748.9 1370.19 2768.55 1376.46 2766.46 1383.01 2746.81 1376.74ZM2775.1 1378.55 2794.74 1384.82 2792.65 1391.37 2773 1385.1ZM2801.29 1386.91 2820.94 1393.19 2818.85 1399.74 2799.2 1393.46ZM2827.49 1395.28 2847.14 1401.55 2845.05 1408.1 2825.4 1401.83ZM2853.69 1403.64 2873.34 1409.91 2871.25 1416.46 2851.6 1410.19ZM2879.89 1412 2899.53 1418.27 2897.44 1424.82 2877.8 1418.55ZM2906.08 1420.36 2907.82 1420.92 2905.73 1427.47 2903.99 1426.91ZM2167.32 1202.6C2160.08 1200.29 2156.09 1192.55 2158.4 1185.32 2160.71 1178.08 2168.45 1174.09 2175.68 1176.4 2182.92 1178.71 2186.91 1186.45 2184.6 1193.68 2182.29 1200.92 2174.55 1204.91 2167.32 1202.6ZM2888.02 1398.25 2913.28 1426.27 2876.45 1434.47C2874.6 1434.88 2872.76 1433.71 2872.35 1431.86 2871.94 1430.01 2873.11 1428.17 2874.96 1427.76L2906.04 1420.84 2904.23 1426.5 2882.91 1402.85C2881.64 1401.44 2881.75 1399.27 2883.16 1398 2884.57 1396.73 2886.74 1396.84 2888.02 1398.25Z" fill="#000000" fill-rule="nonzero" fill-opacity="1"/><rect x="882" y="577" width="2578" height="130" stroke="#4472C4" stroke-width="2.29167" stroke-linecap="butt" stroke-linejoin="miter" stroke-miterlimit="8" stroke-opacity="1" fill="#0098CB" fill-opacity="1"/><text fill="#FFFFFF" fill-opacity="1" font-family="Arial,Arial_MSFontService,sans-serif" font-style="normal" font-variant="normal" font-weight="400" font-stretch="normal" font-size="73" text-anchor="start" direction="ltr" writing-mode="lr-tb" unicode-bidi="normal" text-decoration="none" transform="matrix(1 0 0 1 1853.98 669)">Open Spatial World</text><path d="M1.25381-3.20068 899.507 348.674 897 355.075-1.25381 3.20068ZM-5.01522 12.8027C-12.086 10.0329-15.5726 2.05553-12.8027-5.01522-10.0329-12.086-2.05553-15.5726 5.01522-12.8027 12.086-10.0329 15.5726-2.05553 12.8027 5.01522 10.0329 12.086 2.05553 15.5726-5.01522 12.8027ZM881.193 324.774 904.604 354.362 867.325 360.176C865.449 360.469 863.692 359.185 863.399 357.309 863.107 355.434 864.39 353.676 866.266 353.383L897.722 348.477 895.556 354.007 875.802 329.04C874.624 327.551 874.876 325.389 876.365 324.211 877.854 323.033 880.015 323.285 881.193 324.774Z" fill="#000000" fill-rule="nonzero" fill-opacity="1" transform="matrix(-1 0 0 1 2171.09 707.5)"/><text fill="#000000" fill-opacity="1" font-family="Trebuchet MS,Trebuchet MS_MSFontService,sans-serif" font-style="normal" font-variant="normal" font-weight="700" font-stretch="normal" font-size="37" text-anchor="start" direction="ltr" writing-mode="lr-tb" unicode-bidi="normal" text-decoration="none" transform="matrix(1 0 0 1 1180.06 1039)">1</text><text fill="#000000" fill-opacity="1" font-family="Trebuchet MS,Trebuchet MS_MSFontService,sans-serif" font-style="normal" font-variant="normal" font-weight="700" font-stretch="normal" font-size="37" text-anchor="start" direction="ltr" writing-mode="lr-tb" unicode-bidi="normal" text-decoration="none" transform="matrix(1 0 0 1 1201.83 1039)">-</text><text fill="#000000" fill-opacity="1" font-family="Trebuchet MS,Trebuchet MS_MSFontService,sans-serif" font-style="normal" font-variant="normal" font-weight="700" font-stretch="normal" font-size="37" text-anchor="start" direction="ltr" writing-mode="lr-tb" unicode-bidi="normal" text-decoration="none" transform="matrix(1 0 0 1 1215.58 1039)">n</text><text fill="#000000" fill-opacity="1" font-family="Trebuchet MS,Trebuchet MS_MSFontService,sans-serif" font-style="normal" font-variant="normal" font-weight="700" font-stretch="normal" font-size="37" text-anchor="start" direction="ltr" writing-mode="lr-tb" unicode-bidi="normal" text-decoration="none" transform="matrix(1 0 0 1 1607.65 1041)">0</text><text fill="#000000" fill-opacity="1" font-family="Trebuchet MS,Trebuchet MS_MSFontService,sans-serif" font-style="normal" font-variant="normal" font-weight="700" font-stretch="normal" font-size="37" text-anchor="start" direction="ltr" writing-mode="lr-tb" unicode-bidi="normal" text-decoration="none" transform="matrix(1 0 0 1 1629.42 1041)">-</text><text fill="#000000" fill-opacity="1" font-family="Trebuchet MS,Trebuchet MS_MSFontService,sans-serif" font-style="normal" font-variant="normal" font-weight="700" font-stretch="normal" font-size="37" text-anchor="start" direction="ltr" writing-mode="lr-tb" unicode-bidi="normal" text-decoration="none" transform="matrix(1 0 0 1 1643.17 1041)">n</text><text fill="#000000" fill-opacity="1" font-family="Trebuchet MS,Trebuchet MS_MSFontService,sans-serif" font-style="normal" font-variant="normal" font-weight="700" font-stretch="normal" font-size="37" text-anchor="start" direction="ltr" writing-mode="lr-tb" unicode-bidi="normal" text-decoration="none" transform="matrix(1 0 0 1 2200.7 1036)">0</text><text fill="#000000" fill-opacity="1" font-family="Trebuchet MS,Trebuchet MS_MSFontService,sans-serif" font-style="normal" font-variant="normal" font-weight="700" font-stretch="normal" font-size="37" text-anchor="start" direction="ltr" writing-mode="lr-tb" unicode-bidi="normal" text-decoration="none" transform="matrix(1 0 0 1 2222.47 1036)">-</text><text fill="#000000" fill-opacity="1" font-family="Trebuchet MS,Trebuchet MS_MSFontService,sans-serif" font-style="normal" font-variant="normal" font-weight="700" font-stretch="normal" font-size="37" text-anchor="start" direction="ltr" writing-mode="lr-tb" unicode-bidi="normal" text-decoration="none" transform="matrix(1 0 0 1 2236.22 1036)">n</text><text fill="#000000" fill-opacity="1" font-family="Trebuchet MS,Trebuchet MS_MSFontService,sans-serif" font-style="normal" font-variant="normal" font-weight="700" font-stretch="normal" font-size="37" text-anchor="start" direction="ltr" writing-mode="lr-tb" unicode-bidi="normal" text-decoration="none" transform="matrix(1 0 0 1 2654.62 1033)">0</text><text fill="#000000" fill-opacity="1" font-family="Trebuchet MS,Trebuchet MS_MSFontService,sans-serif" font-style="normal" font-variant="normal" font-weight="700" font-stretch="normal" font-size="37" text-anchor="start" direction="ltr" writing-mode="lr-tb" unicode-bidi="normal" text-decoration="none" transform="matrix(1 0 0 1 2676.39 1033)">-</text><text fill="#000000" fill-opacity="1" font-family="Trebuchet MS,Trebuchet MS_MSFontService,sans-serif" font-style="normal" font-variant="normal" font-weight="700" font-stretch="normal" font-size="37" text-anchor="start" direction="ltr" writing-mode="lr-tb" unicode-bidi="normal" text-decoration="none" transform="matrix(1 0 0 1 2690.14 1033)">n</text><text fill="#000000" fill-opacity="1" font-family="Trebuchet MS,Trebuchet MS_MSFontService,sans-serif" font-style="normal" font-variant="normal" font-weight="700" font-stretch="normal" font-size="37" text-anchor="start" direction="ltr" writing-mode="lr-tb" unicode-bidi="normal" text-decoration="none" transform="matrix(1 0 0 1 3124.36 1039)">0</text><text fill="#000000" fill-opacity="1" font-family="Trebuchet MS,Trebuchet MS_MSFontService,sans-serif" font-style="normal" font-variant="normal" font-weight="700" font-stretch="normal" font-size="37" text-anchor="start" direction="ltr" writing-mode="lr-tb" unicode-bidi="normal" text-decoration="none" transform="matrix(1 0 0 1 3146.13 1039)">-</text><text fill="#000000" fill-opacity="1" font-family="Trebuchet MS,Trebuchet MS_MSFontService,sans-serif" font-style="normal" font-variant="normal" font-weight="700" font-stretch="normal" font-size="37" text-anchor="start" direction="ltr" writing-mode="lr-tb" unicode-bidi="normal" text-decoration="none" transform="matrix(1 0 0 1 3159.88 1039)">n</text><text fill="#000000" fill-opacity="1" font-family="Trebuchet MS,Trebuchet MS_MSFontService,sans-serif" font-style="normal" font-variant="normal" font-weight="700" font-stretch="normal" font-size="37" text-anchor="start" direction="ltr" writing-mode="lr-tb" unicode-bidi="normal" text-decoration="none" transform="matrix(1 0 0 1 3323.63 1299)">0</text><text fill="#000000" fill-opacity="1" font-family="Trebuchet MS,Trebuchet MS_MSFontService,sans-serif" font-style="normal" font-variant="normal" font-weight="700" font-stretch="normal" font-size="37" text-anchor="start" direction="ltr" writing-mode="lr-tb" unicode-bidi="normal" text-decoration="none" transform="matrix(1 0 0 1 3345.4 1299)">-</text><text fill="#000000" fill-opacity="1" font-family="Trebuchet MS,Trebuchet MS_MSFontService,sans-serif" font-style="normal" font-variant="normal" font-weight="700" font-stretch="normal" font-size="37" text-anchor="start" direction="ltr" writing-mode="lr-tb" unicode-bidi="normal" text-decoration="none" transform="matrix(1 0 0 1 3359.15 1299)">n</text><text fill="#000000" fill-opacity="1" font-family="Trebuchet MS,Trebuchet MS_MSFontService,sans-serif" font-style="normal" font-variant="normal" font-weight="700" font-stretch="normal" font-size="37" text-anchor="start" direction="ltr" writing-mode="lr-tb" unicode-bidi="normal" text-decoration="none" transform="matrix(1 0 0 1 3022.58 1269)">0</text><text fill="#000000" fill-opacity="1" font-family="Trebuchet MS,Trebuchet MS_MSFontService,sans-serif" font-style="normal" font-variant="normal" font-weight="700" font-stretch="normal" font-size="37" text-anchor="start" direction="ltr" writing-mode="lr-tb" unicode-bidi="normal" text-decoration="none" transform="matrix(1 0 0 1 3044.35 1269)">-</text><text fill="#000000" fill-opacity="1" font-family="Trebuchet MS,Trebuchet MS_MSFontService,sans-serif" font-style="normal" font-variant="normal" font-weight="700" font-stretch="normal" font-size="37" text-anchor="start" direction="ltr" writing-mode="lr-tb" unicode-bidi="normal" text-decoration="none" transform="matrix(1 0 0 1 3058.1 1269)">n</text><path d="M3270.02 1426.21 3285.41 1424.55 3284.9 1424.65 3292.44 1422.66 3292.14 1422.75 3299.5 1420.06 3299.22 1420.17 3306.34 1416.83 3306.08 1416.97 3312.9 1413.03 3312.66 1413.18 3319.12 1408.7 3318.89 1408.87 3324.92 1403.91 3324.71 1404.1 3330.26 1398.7 3330.06 1398.91 3335.06 1393.14 3334.87 1393.38 3339.28 1387.28 3339.1 1387.55 3342.83 1381.18 3342.67 1381.49 3345.68 1374.9 3345.55 1375.25 3347.77 1368.51 3347.67 1368.9 3349.05 1362.05 3348.99 1362.49 3349.46 1355.58 3349.46 1356 3349.27 1352.55 3349.31 1352.91 3348.74 1349.46 3348.86 1349.96 3346.65 1343.1 3346.88 1343.65 3343.31 1336.9 3343.58 1337.33 3338.76 1330.74 3339.02 1331.06 3333.04 1324.69 3333.29 1324.94 3326.24 1318.84 3326.48 1319.03 3318.46 1313.25 3318.69 1313.4 3309.79 1308.01 3310.01 1308.12 3300.34 1303.16 3300.55 1303.26 3290.2 1298.78 3290.4 1298.86 3279.48 1294.92 3279.68 1294.98 3268.27 1291.64 3268.47 1291.69 3256.67 1289 3256.88 1289.04 3244.79 1287.05 3245.01 1287.08 3232.73 1285.84 3232.95 1285.86 3220.58 1285.44 3220.83 1285.43 3208.45 1285.91 3208.7 1285.89 3196.42 1287.27 3196.66 1287.23 3184.57 1289.46 3184.8 1289.41 3173 1292.42 3173.22 1292.36 3161.82 1296.09 3162.03 1296.01 3151.11 1300.42 3151.32 1300.32 3140.97 1305.33 3141.19 1305.21 3131.52 1310.76 3131.74 1310.63 3122.85 1316.66 3123.07 1316.49 3115.05 1322.95 3115.29 1322.74 3108.24 1329.56 3108.48 1329.3 3102.49 1336.42 3102.74 1336.09 3097.91 1343.45 3098.14 1343.04 3094.58 1350.58 3094.77 1350.06 3092.56 1357.73 3092.66 1357.28 3092.52 1358.22 3085.72 1357.22 3085.89 1356.05 3088.24 1347.89 3092.03 1339.88 3097.1 1332.15 3103.33 1324.74 3110.62 1317.69 3118.87 1311.05 3127.99 1304.86 3137.87 1299.19 3148.43 1294.08 3159.57 1289.59 3171.19 1285.79 3183.21 1282.72 3195.53 1280.45 3208.06 1279.04 3220.69 1278.56 3233.3 1278.99 3245.8 1280.25 3258.1 1282.27 3270.1 1285.02 3281.71 1288.42 3292.84 1292.43 3303.38 1296.99 3313.26 1302.06 3322.37 1307.6 3330.62 1313.54 3337.92 1319.86 3344.18 1326.51 3349.28 1333.47 3353.1 1340.71 3355.48 1348.09 3356.12 1351.98 3356.33 1355.84 3355.83 1363.18 3354.37 1370.46 3352.02 1377.59 3348.85 1384.51 3344.95 1391.17 3340.36 1397.52 3335.16 1403.53 3329.4 1409.13 3323.15 1414.27 3316.46 1418.91 3309.4 1422.99 3302.01 1426.46 3294.35 1429.26 3286.4 1431.36 3270.76 1433.05ZM3271.77 1443.31C3264.22 1444.07 3257.47 1438.57 3256.71 1431.01 3255.95 1423.46 3261.45 1416.71 3269.01 1415.95 3276.56 1415.18 3283.31 1420.69 3284.07 1428.25 3284.83 1435.8 3279.33 1442.55 3271.77 1443.31ZM3110.4 1333.79 3088.5 1364.52 3072.53 1330.33C3071.73 1328.61 3072.47 1326.56 3074.19 1325.76 3075.91 1324.96 3077.96 1325.7 3078.76 1327.42L3092.23 1356.27 3086.32 1355.73 3104.8 1329.8C3105.9 1328.25 3108.05 1327.89 3109.59 1329 3111.14 1330.1 3111.5 1332.24 3110.4 1333.79Z" fill="#000000" fill-rule="nonzero" fill-opacity="1"/><text fill="#000000" fill-opacity="1" font-family="Trebuchet MS,Trebuchet MS_MSFontService,sans-serif" font-style="normal" font-variant="normal" font-weight="700" font-stretch="normal" font-size="37" text-anchor="start" direction="ltr" writing-mode="lr-tb" unicode-bidi="normal" text-decoration="none" transform="matrix(1 0 0 1 3376.67 1647)">0</text><text fill="#000000" fill-opacity="1" font-family="Trebuchet MS,Trebuchet MS_MSFontService,sans-serif" font-style="normal" font-variant="normal" font-weight="700" font-stretch="normal" font-size="37" text-anchor="start" direction="ltr" writing-mode="lr-tb" unicode-bidi="normal" text-decoration="none" transform="matrix(1 0 0 1 3398.44 1647)">-</text><text fill="#000000" fill-opacity="1" font-family="Trebuchet MS,Trebuchet MS_MSFontService,sans-serif" font-style="normal" font-variant="normal" font-weight="700" font-stretch="normal" font-size="37" text-anchor="start" direction="ltr" writing-mode="lr-tb" unicode-bidi="normal" text-decoration="none" transform="matrix(1 0 0 1 3412.19 1647)">n</text><path d="M1085 1367C1085 1331.1 1114.1 1302 1150 1302L1383 1302C1418.9 1302 1448 1331.1 1448 1367 1448 1402.9 1418.9 1432 1383 1432L1150 1432C1114.1 1432 1085 1402.9 1085 1367Z" stroke="#7F7F7F" stroke-width="2.29167" stroke-linecap="butt" stroke-linejoin="miter" stroke-miterlimit="8" stroke-opacity="1" fill="#CFE2F4" fill-rule="evenodd" fill-opacity="1"/><text fill="#0563C1" fill-opacity="1" font-family="Arial,Arial_MSFontService,sans-serif" font-style="normal" font-variant="normal" font-weight="400" font-stretch="normal" font-size="55" text-anchor="start" direction="ltr" writing-mode="lr-tb" unicode-bidi="normal" text-decoration="underline" transform="matrix(1 0 0 1 1114.02 1387)">AppManifest</text><path d="M3.4375-1.12247e-05 3.43784 103.715-3.43716 103.715-3.4375 1.12247e-05ZM-13.75 4.48987e-05C-13.75-7.59387-7.59396-13.75-4.48987e-05-13.75 7.59387-13.75 13.75-7.59396 13.75-4.48987e-05 13.75 7.59387 7.59396 13.75 4.48987e-05 13.75-7.59387 13.75-13.75 7.59396-13.75 4.48987e-05ZM19.0112 77.9472 0.000360793 110.537-19.0107 77.9474C-19.9672 76.3075-19.4133 74.2027-17.7735 73.2461-16.1336 72.2895-14.0288 72.8434-13.0722 74.4832L2.96957 101.983-2.96891 101.983 13.0727 74.4831C14.0293 72.8433 16.1341 72.2894 17.774 73.2459 19.4138 74.2025 19.9677 76.3074 19.0112 77.9472Z" fill="#000000" fill-rule="nonzero" fill-opacity="1" transform="matrix(-1 0 0 1 1266.5 1191.5)"/><path d="M2344 1669C2344 1633.1 2373.1 1604 2409 1604L2643 1604C2678.9 1604 2708 1633.1 2708 1669L2708 1669C2708 1704.9 2678.9 1734 2643 1734L2409 1734C2373.1 1734 2344 1704.9 2344 1669Z" stroke="#7F7F7F" stroke-width="2.29167" stroke-linecap="butt" stroke-linejoin="miter" stroke-miterlimit="8" stroke-opacity="1" fill="#CFE2F4" fill-rule="evenodd" fill-opacity="1"/><text fill="#0563C1" fill-opacity="1" font-family="Arial,Arial_MSFontService,sans-serif" font-style="normal" font-variant="normal" font-weight="400" font-stretch="normal" font-size="55" text-anchor="start" direction="ltr" writing-mode="lr-tb" unicode-bidi="normal" text-decoration="underline" transform="matrix(1 0 0 1 2373.26 1689)">AppManifest</text><path d="M6.87498-0.015107 7.6775 365.197-6.07247 365.228-6.87498 0.015107ZM-20.625 0.0453211C-20.65-11.3455-11.4362-20.5999-0.0453211-20.625 11.3455-20.65 20.5999-11.4362 20.625-0.0453211 20.65 11.3455 11.4362 20.5999 0.0453211 20.625-11.3455 20.65-20.5999 11.4362-20.625 0.0453211ZM21.4124 358.292 0.878051 399.588-19.8375 358.383Z" fill="#ED7D31" fill-rule="nonzero" fill-opacity="1" transform="matrix(-1 0 0 1 2633.88 1196)"/><path d="M2681 1693C2681 1657.1 2710.1 1628 2746 1628L2785 1628C2820.9 1628 2850 1657.1 2850 1693L2850 1693C2850 1728.9 2820.9 1758 2785 1758L2746 1758C2710.1 1758 2681 1728.9 2681 1693Z" stroke="#0098CB" stroke-width="2.29167" stroke-linecap="butt" stroke-linejoin="miter" stroke-miterlimit="8" stroke-opacity="1" fill="#0098CB" fill-rule="evenodd" fill-opacity="1"/><text fill="#FFFFFF" fill-opacity="1" font-family="Arial,Arial_MSFontService,sans-serif" font-style="normal" font-variant="normal" font-weight="400" font-stretch="normal" font-size="55" text-anchor="start" direction="ltr" writing-mode="lr-tb" unicode-bidi="normal" text-decoration="none" transform="matrix(1 0 0 1 2704.54 1713)">node</text><path d="M3101.88 1489.93 3103.88 1692.1 3090.13 1692.24 3088.13 1490.07ZM3074.38 1490.21C3074.26 1478.81 3083.41 1469.49 3094.8 1469.38 3106.19 1469.26 3115.51 1478.4 3115.62 1489.8 3115.74 1501.19 3106.6 1510.51 3095.21 1510.62 3083.81 1510.74 3074.49 1501.6 3074.38 1490.21ZM3117.57 1685.09 3097.35 1726.54 3076.32 1685.5Z" fill="#B7C8DC" fill-rule="nonzero" fill-opacity="1"/><path d="M3272.81 1776.34 3295.74 1772.69 3294.46 1773.02 3301.82 1770.33 3301.26 1770.56 3308.38 1767.22 3307.86 1767.49 3314.68 1763.55 3314.2 1763.86 3320.66 1759.38 3320.21 1759.72 3326.24 1754.75 3325.81 1755.13 3331.36 1749.74 3330.96 1750.16 3335.97 1744.39 3335.59 1744.87 3339.99 1738.77 3339.63 1739.31 3343.37 1732.94 3343.05 1733.56 3346.06 1726.97 3345.78 1727.68 3348.01 1720.93 3347.8 1721.73 3349.18 1714.87 3349.06 1715.76 3349.53 1708.84 3349.52 1709.69 3349.33 1706.24 3349.41 1706.97 3348.85 1703.52 3349.09 1704.51 3346.88 1697.66 3347.34 1698.76 3343.77 1692.01 3344.31 1692.86 3339.48 1686.27 3340.02 1686.92 3334.03 1680.55 3334.54 1681.04 3327.49 1674.94 3327.97 1675.32 3319.95 1669.54 3320.4 1669.84 3311.51 1664.44 3311.94 1664.68 3302.27 1659.72 3302.68 1659.91 3292.34 1655.43 3292.74 1655.59 3281.81 1651.65 3282.21 1651.78 3270.8 1648.44 3271.2 1648.55 3259.41 1645.85 3259.82 1645.93 3247.73 1643.94 3248.16 1644 3235.88 1642.76 3236.34 1642.79 3223.96 1642.37 3224.46 1642.37 3212.08 1642.84 3212.58 1642.81 3200.3 1644.19 3200.78 1644.11 3188.7 1646.34 3189.15 1646.24 3177.35 1649.25 3177.79 1649.12 3166.39 1652.86 3166.81 1652.7 3155.89 1657.1 3156.32 1656.92 3145.97 1661.92 3146.4 1661.69 3136.73 1667.24 3137.17 1666.97 3128.28 1673 3128.73 1672.67 3120.71 1679.12 3121.87 1677.93 3111.93 1690.98 3100.99 1682.65 3111.44 1668.94 3120.33 1661.78 3129.66 1655.45 3139.76 1649.65 3150.54 1644.44 3161.89 1639.86 3173.73 1635.99 3185.98 1632.86 3198.53 1630.55 3211.3 1629.11 3224.18 1628.62 3237.03 1629.06 3249.76 1630.34 3262.26 1632.4 3274.47 1635.19 3286.28 1638.65 3297.6 1642.73 3308.35 1647.38 3318.44 1652.56 3327.77 1658.23 3336.26 1664.34 3343.81 1670.87 3350.33 1677.81 3355.7 1685.14 3359.78 1692.87 3362.33 1700.78 3363.04 1705.11 3363.28 1709.36 3362.74 1717.14 3361.19 1724.84 3358.72 1732.34 3355.41 1739.59 3351.33 1746.55 3346.56 1753.16 3341.16 1759.39 3335.2 1765.19 3328.73 1770.51 3321.8 1775.32 3314.49 1779.54 3306.83 1783.14 3298.56 1786.16 3274.97 1789.92ZM3276.87 1803.54C3265.6 1805.18 3255.13 1797.38 3253.48 1786.11 3251.83 1774.84 3259.64 1764.37 3270.91 1762.72 3282.18 1761.07 3292.65 1768.87 3294.3 1780.15 3295.95 1791.42 3288.14 1801.89 3276.87 1803.54ZM3128.07 1689.26 3092 1718 3090.65 1671.9Z" fill="#B7C8DC" fill-rule="nonzero" fill-opacity="1"/><path d="M2.64158-6.34726 300.298 117.53 295.015 130.225-2.64158 6.34726ZM-7.92473 19.0418C-18.4412 14.6651-23.4185 2.59175-19.0418-7.92473-14.6651-18.4412-2.59175-23.4185 7.92473-19.0418 18.4412-14.6651 23.4185-2.59175 19.0418 7.92473 14.6651 18.4412 2.59175 23.4185-7.92473 19.0418ZM299.234 102.194 329.393 137.085 283.384 140.278Z" fill="#B7C8DC" fill-rule="nonzero" fill-opacity="1" transform="matrix(-1 0 0 1 3094.39 1490)"/><path d="M1985 1360C1985 1324.1 2014.1 1295 2050 1295L2283 1295C2318.9 1295 2348 1324.1 2348 1360 2348 1395.9 2318.9 1425 2283 1425L2050 1425C2014.1 1425 1985 1395.9 1985 1360Z" stroke="#7F7F7F" stroke-width="2.29167" stroke-linecap="butt" stroke-linejoin="miter" stroke-miterlimit="8" stroke-opacity="1" fill="#CFE2F4" fill-rule="evenodd" fill-opacity="1"/><text fill="#0563C1" fill-opacity="1" font-family="Arial,Arial_MSFontService,sans-serif" font-style="normal" font-variant="normal" font-weight="400" font-stretch="normal" font-size="55" text-anchor="start" direction="ltr" writing-mode="lr-tb" unicode-bidi="normal" text-decoration="underline" transform="matrix(1 0 0 1 2052.12 1380)">GeoPose</text><path d="M3.4375-1.12247e-05 3.43784 103.715-3.43716 103.715-3.4375 1.12247e-05ZM-13.75 4.48987e-05C-13.75-7.59387-7.59396-13.75-4.48987e-05-13.75 7.59387-13.75 13.75-7.59396 13.75-4.48987e-05 13.75 7.59387 7.59396 13.75 4.48987e-05 13.75-7.59387 13.75-13.75 7.59396-13.75 4.48987e-05ZM19.0112 77.9472 0.000360793 110.537-19.0107 77.9474C-19.9672 76.3075-19.4133 74.2027-17.7735 73.2461-16.1336 72.2895-14.0288 72.8434-13.0722 74.4832L2.96957 101.983-2.96891 101.983 13.0727 74.4831C14.0293 72.8433 16.1341 72.2894 17.774 73.2459 19.4138 74.2025 19.9677 76.3074 19.0112 77.9472Z" fill="#000000" fill-rule="nonzero" fill-opacity="1" transform="matrix(-1 0 0 1 2166.5 1189.5)"/><rect x="2489" y="1731" width="276" height="131" stroke="#4472C4" stroke-width="2.29167" stroke-linecap="butt" stroke-linejoin="miter" stroke-miterlimit="8" stroke-opacity="1" fill="#0098CB" fill-opacity="1"/><text fill="#FFFFFF" fill-opacity="1" font-family="Arial,Arial_MSFontService,sans-serif" font-style="normal" font-variant="normal" font-weight="400" font-stretch="normal" font-size="73" text-anchor="start" direction="ltr" writing-mode="lr-tb" unicode-bidi="normal" text-decoration="none" transform="matrix(1 0 0 1 2531.94 1824)">World</text><rect x="2862" y="1731" width="471" height="131" stroke="#4472C4" stroke-width="2.29167" stroke-linecap="butt" stroke-linejoin="miter" stroke-miterlimit="8" stroke-opacity="1" fill="#0098CB" fill-opacity="1"/><text fill="#FFFFFF" fill-opacity="1" font-family="Arial,Arial_MSFontService,sans-serif" font-style="normal" font-variant="normal" font-weight="400" font-stretch="normal" font-size="73" text-anchor="start" direction="ltr" writing-mode="lr-tb" unicode-bidi="normal" text-decoration="none" transform="matrix(1 0 0 1 2885.84 1824)">Spatial Asset</text><path d="M1.94464-2.83457 15.4342 6.4199 18.0019 10.1872 18.6212 11.2305 12.7091 14.7395 12.1448 13.7888 12.2603 13.9703 10.1168 10.8253 11.0127 11.7239-1.94464 2.83457ZM22.0461 17.3921 22.4412 18.1433 24.6173 22.7492 26.7703 27.7684 28.9024 33.196 30.217 36.8242 23.7532 39.1662 22.4543 35.5812 22.4867 35.667 20.3908 30.3316 20.4311 30.4298 18.3236 25.5166 18.3746 25.6299 16.2565 21.1468 16.3222 21.2785 15.9614 20.5926ZM32.4848 43.3987 33.1084 45.2537 35.183 51.8714 37.2386 58.8728 38.4689 63.3312 31.8416 65.1601 30.6187 60.7287 30.6341 60.7826 28.5953 53.8381 28.6135 53.8981 26.5588 47.3439 26.5806 47.411 25.9682 45.5895ZM40.2559 70.022 41.2933 74.0089 45.1528 90.1257 38.4668 91.7268 34.6152 75.6426 34.6314 75.7078 33.6025 71.7533ZM46.6304 96.9185 49.1398 108.537 50.8341 117.177 44.0876 118.5 42.3996 109.893 42.4129 109.957 39.9103 98.3699ZM52.1572 123.923 52.9236 127.831 55.8657 144.269 49.0982 145.48 46.1611 129.07 46.1716 129.126 45.4107 125.246ZM57.0463 151.093 60.1717 170.158 60.3727 171.493 53.5743 172.517 53.3766 171.203 53.3836 171.248 50.2619 152.205ZM61.3961 178.292 63.6201 193.066 64.4051 198.737 57.595 199.68 56.8128 194.029 56.8186 194.069 54.5977 179.315ZM65.3478 205.547 66.9405 217.053 68.0834 226.027 61.2634 226.896 60.123 217.941 60.1279 217.978 58.5377 206.49ZM68.9519 232.847 70.1248 242.058 71.4478 253.355 64.6195 254.155 63.2985 242.875 63.3027 242.909 62.132 233.716ZM72.2475 260.184 73.1647 268.016 74.5302 280.714 67.6946 281.449 66.3308 268.767 66.3344 268.799 65.4192 260.983ZM75.2652 287.55 76.0517 294.864 77.3553 308.1 70.5135 308.773 69.2113 295.553 69.2144 295.583 68.4296 288.285ZM78.0292 314.941 78.7775 322.539 79.9432 335.507 73.0958 336.122 71.9314 323.169 71.9342 323.198 71.1873 315.615ZM80.5587 342.354 81.3337 350.977 82.3096 362.933 75.4574 363.492 74.4827 351.55 74.4851 351.578 73.7113 342.97ZM82.8689 369.785 83.712 380.115 84.4673 390.375 77.6109 390.88 76.8566 380.633 76.8587 380.661 76.0167 370.344ZM84.972 397.232 85.9039 409.89 86.4265 417.832 79.5663 418.283 79.0446 410.355 79.0464 410.381 78.1156 397.736ZM86.8779 424.692 87.9009 440.238 88.1952 445.301 81.3318 445.7 81.0382 440.65 81.0398 440.676 80.0178 425.144ZM88.5942 452.165 89.6946 471.095 89.7799 472.782 82.9136 473.129 82.829 471.455 82.8304 471.481 81.7308 452.564ZM90.1269 479.648 91.1679 500.247 84.3017 500.594 83.2606 479.995ZM91.4805 507.14 92.3661 527.746 85.4975 528.042 84.6118 507.436ZM92.6582 534.641 93.3881 555.253 86.5174 555.496 85.7875 534.884ZM93.6314 562.124 93.7719 566.094 94.1708 582.781 87.2978 582.945 86.8994 566.278 86.9006 566.318 86.7607 562.367ZM94.3351 589.654 94.8279 610.273 87.9549 610.438 87.462 589.818ZM94.9922 617.146 95.3185 630.798 95.3757 637.821 88.5009 637.877 88.444 630.881 88.4448 630.935 88.1192 617.311ZM95.4316 644.696 95.5994 665.32 88.7246 665.376 88.5568 644.752ZM95.6553 672.195 95.8231 692.82 88.9483 692.875 88.7805 672.251ZM95.8221 699.747 95.6723 720.372 88.7974 720.322 88.9473 699.697ZM95.6223 727.247 95.4725 747.871 88.5977 747.821 88.7475 727.197ZM95.4226 754.746 95.3755 761.236 95.0729 775.416 88.1994 775.269 88.5015 761.114 88.5008 761.162 88.5478 754.696ZM94.9262 782.289 94.4862 802.91 87.6128 802.763 88.0528 782.143ZM94.3395 809.783 93.9949 825.935 93.8526 830.437 86.981 830.22 87.1227 825.736 87.1218 825.771 87.4661 809.636ZM93.6353 837.309 92.9837 857.924 86.1121 857.706 86.7638 837.092ZM92.7193 864.817 91.9285 885.427 85.0586 885.163 85.8494 864.553ZM91.6459 892.319 90.7162 912.923 83.8482 912.613 84.7779 892.009ZM90.4064 919.791 90.3552 920.926 89.3439 940.412 82.4782 940.055 83.4888 920.581 83.4877 920.604 83.5384 919.481ZM88.9876 947.278 88.754 951.78 87.8074 967.892 80.9443 967.489 81.8901 951.389 81.8888 951.412 82.1219 946.921ZM87.4042 974.755 86.9713 982.125 86.1013 995.363 79.2411 994.912 80.1103 981.686 80.1088 981.71 80.5411 974.352ZM85.6505 1002.22 85.0147 1011.9 84.2186 1022.82 77.3618 1022.32 78.157 1011.41 78.1553 1011.43 78.7903 1001.77ZM83.719 1029.68 82.8918 1041.03 82.1505 1050.27 75.2975 1049.72 76.0378 1040.49 76.0359 1040.52 76.8622 1029.18ZM81.6005 1057.12 80.6099 1069.47 79.8858 1077.7 73.0372 1077.1 73.7602 1068.88 73.758 1068.9 74.7476 1056.57ZM79.2836 1084.55 78.1767 1097.14 77.4107 1105.12 70.5672 1104.46 71.3319 1096.5 71.3294 1096.52 72.435 1083.95ZM76.7538 1111.96 75.5997 1123.98 74.7078 1132.51 67.8701 1131.8 68.7604 1123.28 68.7575 1123.31 69.9102 1111.31ZM73.993 1139.35 72.8863 1149.94 71.7552 1159.89 64.9242 1159.11 66.0535 1149.18 66.0501 1149.21 67.1553 1138.64ZM70.9786 1166.72 70.0439 1174.94 68.5251 1187.23 61.702 1186.39 63.2188 1174.11 63.2148 1174.15 64.1476 1165.94ZM67.6819 1194.05 67.08 1198.92 64.9817 1214.54 58.168 1213.62 60.2639 1198.03 60.2592 1198.06 60.8588 1193.21ZM64.066 1221.35 64.0021 1221.83 61.0791 1241.8 54.2766 1240.8 57.1966 1220.85 57.191 1220.89 57.2523 1220.43ZM60.0107 1248.64 57.5329 1264.14 56.6754 1269.04 49.9035 1267.86 50.7565 1262.98 50.7481 1263.03 53.2218 1247.55ZM55.4898 1275.81 54.156 1283.43 51.7042 1296.15 44.9536 1294.85 47.3998 1282.16 47.3891 1282.22 48.7178 1274.63ZM50.3578 1302.96 47.1537 1317.95 45.941 1323.17 39.2443 1321.61 40.4502 1316.42 40.437 1316.48 43.6347 1301.52ZM44.3191 1329.89 43.5361 1333.07 41.7023 1340.07 39.8517 1346.68 38.8674 1349.96 32.2826 1347.99 33.2577 1344.74 33.2398 1344.8 35.0741 1338.24 35.0592 1338.3 36.8793 1331.35 36.8668 1331.4 37.6437 1328.25ZM36.7914 1356.59 36.1005 1358.73 34.1993 1364.15 32.2797 1369.16 30.3398 1373.76 29.1881 1376.21 22.965 1373.29 24.0877 1370.9 24.0319 1371.03 25.9228 1366.54 25.88 1366.65 27.7615 1361.74 27.7278 1361.83 29.599 1356.49 29.5721 1356.57 30.2501 1354.48ZM25.8228 1382.63 24.3493 1385.05 22.2609 1387.97 20.0919 1390.46 18.47 1391.92 13.8708 1386.81 15.3362 1385.49 15.0417 1385.79 16.9657 1383.58 16.764 1383.83 18.6833 1381.15 18.5425 1381.36 19.9497 1379.05ZM-7.2778 11.666C-13.7208 7.64661-15.6854-0.834833-11.666-7.2778-7.64661-13.7208 0.834833-15.6854 7.2778-11.666 13.7208-7.64661 15.6854 0.834833 11.666 7.2778 7.64661 13.7208-0.834833 15.6854-7.2778 11.666ZM47.3356 1396.72 9.89691 1392.05 32.3962 1361.76C33.5283 1360.24 35.6815 1359.92 37.2055 1361.05 38.7295 1362.18 39.0471 1364.34 37.915 1365.86L18.9298 1391.42 16.5965 1385.95 48.1878 1389.9C50.0717 1390.14 51.408 1391.85 51.1727 1393.74 50.9374 1395.62 49.2195 1396.96 47.3356 1396.72Z" fill="#000000" fill-rule="nonzero" fill-opacity="1" transform="matrix(1.83697e-16 1 1 -1.83697e-16 1705.5 1852.5)"/><text fill="#000000" fill-opacity="1" font-family="Trebuchet MS,Trebuchet MS_MSFontService,sans-serif" font-style="normal" font-variant="normal" font-weight="700" font-stretch="normal" font-size="37" text-anchor="start" direction="ltr" writing-mode="lr-tb" unicode-bidi="normal" text-decoration="none" transform="matrix(1 0 0 1 2086.18 1906)">avatar</text><text fill="#000000" fill-opacity="1" font-family="Trebuchet MS,Trebuchet MS_MSFontService,sans-serif" font-style="normal" font-variant="normal" font-weight="700" font-stretch="normal" font-size="37" text-anchor="start" direction="ltr" writing-mode="lr-tb" unicode-bidi="normal" text-decoration="none" transform="matrix(1 0 0 1 2208.18 1903)">0</text><text fill="#000000" fill-opacity="1" font-family="Trebuchet MS,Trebuchet MS_MSFontService,sans-serif" font-style="normal" font-variant="normal" font-weight="700" font-stretch="normal" font-size="37" text-anchor="start" direction="ltr" writing-mode="lr-tb" unicode-bidi="normal" text-decoration="none" transform="matrix(1 0 0 1 2229.95 1903)">-</text><text fill="#000000" fill-opacity="1" font-family="Trebuchet MS,Trebuchet MS_MSFontService,sans-serif" font-style="normal" font-variant="normal" font-weight="700" font-stretch="normal" font-size="37" text-anchor="start" direction="ltr" writing-mode="lr-tb" unicode-bidi="normal" text-decoration="none" transform="matrix(1 0 0 1 2243.7 1903)">n</text></g></g></svg>