<svg width="2489" height="1718" xmlns="http://www.w3.org/2000/svg" xmlns:xlink="http://www.w3.org/1999/xlink" xml:space="preserve" overflow="hidden"><g transform="translate(-916 -330)"><g><rect x="929.5" y="1490.5" width="2471" height="527" stroke="#000000" stroke-width="4.58333" stroke-linecap="butt" stroke-linejoin="miter" stroke-miterlimit="8" stroke-opacity="1" fill="#FFFFFF" fill-opacity="1"/><text fill="#000000" fill-opacity="1" font-family="Arial,Arial_MSFontService,sans-serif" font-style="normal" font-variant="normal" font-weight="400" font-stretch="normal" font-size="73" text-anchor="start" direction="ltr" writing-mode="lr-tb" unicode-bidi="normal" text-decoration="none" transform="matrix(1 0 0 1 961.923 1984)">Optional </text><text fill="#000000" fill-opacity="1" font-family="Arial,Arial_MSFontService,sans-serif" font-style="normal" font-variant="normal" font-weight="700" font-stretch="normal" font-size="73" text-anchor="start" direction="ltr" writing-mode="lr-tb" unicode-bidi="normal" text-decoration="none" transform="matrix(1 0 0 1 1255.26 1984)">Avatar</text><text fill="#000000" fill-opacity="1" font-family="Arial,Arial_MSFontService,sans-serif" font-style="normal" font-variant="normal" font-weight="400" font-stretch="normal" font-size="73" text-anchor="start" direction="ltr" writing-mode="lr-tb" unicode-bidi="normal" text-decoration="none" transform="matrix(1 0 0 1 1501.17 1984)">and </text><text fill="#000000" fill-opacity="1" font-family="Arial,Arial_MSFontService,sans-serif" font-style="normal" font-variant="normal" font-weight="700" font-stretch="normal" font-size="73" text-anchor="start" direction="ltr" writing-mode="lr-tb" unicode-bidi="normal" text-decoration="none" transform="matrix(1 0 0 1 1643.83 1984)">OpenSpatialAsset</text><text fill="#000000" fill-opacity="1" font-family="Arial,Arial_MSFontService,sans-serif" font-style="normal" font-variant="normal" font-weight="400" font-stretch="normal" font-size="73" text-anchor="start" direction="ltr" writing-mode="lr-tb" unicode-bidi="normal" text-decoration="none" transform="matrix(1 0 0 1 2291.8 1984)">links to agnostic endpoints </text><rect x="929.5" y="340.5" width="2471" height="1150" stroke="#000000" stroke-width="4.58333" stroke-linecap="butt" stroke-linejoin="miter" stroke-miterlimit="8" stroke-opacity="1" fill="#FFFFFF" fill-opacity="1"/><text fill="#000000" fill-opacity="1" font-family="Arial,Arial_MSFontService,sans-serif" font-style="normal" font-variant="normal" font-weight="400" font-stretch="normal" font-size="73" text-anchor="start" direction="ltr" writing-mode="lr-tb" unicode-bidi="normal" text-decoration="none" transform="matrix(1 0 0 1 961.923 427)">Information exposed by the </text><text fill="#000000" fill-opacity="1" font-family="Arial,Arial_MSFontService,sans-serif" font-style="normal" font-variant="normal" font-weight="700" font-stretch="normal" font-size="73" text-anchor="start" direction="ltr" writing-mode="lr-tb" unicode-bidi="normal" text-decoration="none" transform="matrix(1 0 0 1 1867.7 427)">OpenSpatialWorld</text><text fill="#000000" fill-opacity="1" font-family="Arial,Arial_MSFontService,sans-serif" font-style="normal" font-variant="normal" font-weight="400" font-stretch="normal" font-size="73" text-anchor="start" direction="ltr" writing-mode="lr-tb" unicode-bidi="normal" text-decoration="none" transform="matrix(1 0 0 1 2522.94 427)">Web</text><text fill="#000000" fill-opacity="1" font-family="Arial,Arial_MSFontService,sans-serif" font-style="normal" font-variant="normal" font-weight="400" font-stretch="normal" font-size="73" text-anchor="start" direction="ltr" writing-mode="lr-tb" unicode-bidi="normal" text-decoration="none" transform="matrix(1 0 0 1 2672.28 427)">-</text><text fill="#000000" fill-opacity="1" font-family="Arial,Arial_MSFontService,sans-serif" font-style="normal" font-variant="normal" font-weight="400" font-stretch="normal" font-size="73" text-anchor="start" direction="ltr" writing-mode="lr-tb" unicode-bidi="normal" text-decoration="none" transform="matrix(1 0 0 1 2696.92 427)">API</text><path d="M2869 1077C2869 1041.1 2898.1 1012 2934 1012L3168 1012C3203.9 1012 3233 1041.1 3233 1077L3233 1077C3233 1112.9 3203.9 1142 3168 1142L2934 1142C2898.1 1142 2869 1112.9 2869 1077Z" stroke="#7F7F7F" stroke-width="2.29167" stroke-linecap="butt" stroke-linejoin="miter" stroke-miterlimit="8" stroke-opacity="1" fill="#86C540" fill-rule="evenodd" fill-opacity="1"/><text fill="#000000" fill-opacity="1" font-family="Arial,Arial_MSFontService,sans-serif" font-style="normal" font-variant="normal" font-weight="400" font-stretch="normal" font-size="55" text-anchor="start" direction="ltr" writing-mode="lr-tb" unicode-bidi="normal" text-decoration="none" transform="matrix(1 0 0 1 2977.61 1097)">scene</text><path d="M2862 1380C2862 1344.1 2891.1 1315 2927 1315L3161 1315C3196.9 1315 3226 1344.1 3226 1380L3226 1380C3226 1415.9 3196.9 1445 3161 1445L2927 1445C2891.1 1445 2862 1415.9 2862 1380Z" stroke="#7F7F7F" stroke-width="2.29167" stroke-linecap="butt" stroke-linejoin="miter" stroke-miterlimit="8" stroke-opacity="1" fill="#86C540" fill-rule="evenodd" fill-opacity="1"/><text fill="#000000" fill-opacity="1" font-family="Arial,Arial_MSFontService,sans-serif" font-style="normal" font-variant="normal" font-weight="400" font-stretch="normal" font-size="55" text-anchor="start" direction="ltr" writing-mode="lr-tb" unicode-bidi="normal" text-decoration="none" transform="matrix(1 0 0 1 2982.93 1400)">node</text><rect x="2862" y="1621" width="364" height="130" stroke="#7F7F7F" stroke-width="2.29167" stroke-linecap="butt" stroke-linejoin="miter" stroke-miterlimit="8" stroke-opacity="1" fill="#00B0F0" fill-opacity="1"/><text fill="#000000" fill-opacity="1" font-family="Arial,Arial_MSFontService,sans-serif" font-style="normal" font-variant="normal" font-weight="400" font-stretch="normal" font-size="55" text-anchor="start" direction="ltr" writing-mode="lr-tb" unicode-bidi="normal" text-decoration="none" transform="matrix(1 0 0 1 2974.91 1706)">Asset</text><path d="M3047.94 1445.5 3047.94 1614.29 3041.06 1614.29 3041.06 1445.5ZM3030.75 1445.5C3030.75 1437.91 3036.91 1431.75 3044.5 1431.75 3052.09 1431.75 3058.25 1437.91 3058.25 1445.5 3058.25 1453.09 3052.09 1459.25 3044.5 1459.25 3036.91 1459.25 3030.75 1453.09 3030.75 1445.5ZM3063.51 1588.52 3044.5 1621.11 3025.49 1588.52C3024.53 1586.88 3025.09 1584.77 3026.73 1583.82 3028.37 1582.86 3030.47 1583.41 3031.43 1585.05L3047.47 1612.55 3041.53 1612.55 3057.57 1585.05C3058.53 1583.41 3060.63 1582.86 3062.27 1583.82 3063.91 1584.77 3064.47 1586.88 3063.51 1588.52Z" fill="#000000" fill-rule="nonzero" fill-opacity="1"/><path d="M3226.02 1388.21 3241.41 1386.55 3240.9 1386.65 3248.44 1384.66 3248.14 1384.75 3255.5 1382.06 3255.22 1382.17 3262.34 1378.83 3262.08 1378.97 3268.9 1375.03 3268.66 1375.18 3275.12 1370.7 3274.89 1370.87 3280.92 1365.91 3280.71 1366.1 3286.26 1360.7 3286.06 1360.91 3291.06 1355.14 3290.87 1355.38 3295.28 1349.28 3295.1 1349.55 3298.83 1343.18 3298.67 1343.49 3301.68 1336.9 3301.55 1337.25 3303.77 1330.51 3303.67 1330.9 3305.05 1324.05 3304.99 1324.49 3305.46 1317.58 3305.46 1318 3305.27 1314.55 3305.31 1314.91 3304.74 1311.46 3304.86 1311.96 3302.65 1305.1 3302.88 1305.65 3299.31 1298.9 3299.58 1299.33 3294.76 1292.74 3295.02 1293.06 3289.04 1286.69 3289.29 1286.94 3282.24 1280.84 3282.48 1281.03 3274.46 1275.25 3274.69 1275.4 3265.79 1270.01 3266.01 1270.12 3256.34 1265.16 3256.55 1265.26 3246.2 1260.78 3246.4 1260.86 3235.48 1256.92 3235.68 1256.99 3224.27 1253.64 3224.47 1253.69 3212.67 1251 3212.88 1251.04 3200.79 1249.05 3201.01 1249.08 3188.73 1247.84 3188.95 1247.86 3176.58 1247.44 3176.83 1247.43 3164.45 1247.91 3164.7 1247.89 3152.42 1249.27 3152.66 1249.23 3140.57 1251.46 3140.8 1251.41 3129 1254.42 3129.22 1254.36 3117.82 1258.09 3118.03 1258.01 3107.11 1262.42 3107.32 1262.32 3096.97 1267.33 3097.19 1267.21 3087.52 1272.76 3087.74 1272.63 3078.85 1278.66 3079.07 1278.49 3071.05 1284.95 3071.29 1284.74 3064.24 1291.56 3064.48 1291.3 3058.49 1298.42 3058.74 1298.09 3053.91 1305.45 3054.14 1305.04 3050.58 1312.58 3050.77 1312.06 3048.56 1319.73 3048.66 1319.28 3048.52 1320.22 3041.72 1319.22 3041.89 1318.05 3044.24 1309.89 3048.03 1301.88 3053.1 1294.15 3059.33 1286.74 3066.62 1279.69 3074.87 1273.05 3083.99 1266.86 3093.87 1261.19 3104.43 1256.08 3115.57 1251.59 3127.19 1247.79 3139.21 1244.72 3151.53 1242.45 3164.06 1241.04 3176.69 1240.56 3189.3 1240.99 3201.8 1242.25 3214.1 1244.27 3226.1 1247.02 3237.71 1250.42 3248.84 1254.43 3259.38 1258.99 3269.26 1264.07 3278.37 1269.6 3286.62 1275.54 3293.92 1281.86 3300.18 1288.51 3305.28 1295.47 3309.1 1302.71 3311.48 1310.09 3312.12 1313.98 3312.33 1317.84 3311.83 1325.18 3310.37 1332.46 3308.02 1339.59 3304.85 1346.51 3300.95 1353.17 3296.36 1359.52 3291.16 1365.53 3285.4 1371.13 3279.15 1376.27 3272.46 1380.91 3265.4 1384.99 3258.01 1388.46 3250.35 1391.26 3242.4 1393.36 3226.76 1395.05ZM3227.77 1405.31C3220.22 1406.07 3213.47 1400.57 3212.71 1393.01 3211.95 1385.46 3217.45 1378.71 3225.01 1377.95 3232.56 1377.18 3239.31 1382.69 3240.07 1390.25 3240.83 1397.8 3235.33 1404.55 3227.77 1405.31ZM3066.4 1295.79 3044.5 1326.52 3028.53 1292.33C3027.73 1290.61 3028.47 1288.56 3030.19 1287.76 3031.91 1286.96 3033.96 1287.7 3034.76 1289.42L3048.23 1318.27 3042.32 1317.73 3060.8 1291.8C3061.9 1290.25 3064.05 1289.89 3065.59 1291 3067.14 1292.1 3067.5 1294.25 3066.4 1295.79Z" fill="#000000" fill-rule="nonzero" fill-opacity="1"/><path d="M3.43468-0.139268 10.1552 165.605 3.28583 165.883-3.43468 0.139268ZM-13.7387 0.55707C-14.0464-7.03061-8.14475-13.4311-0.55707-13.7387 7.03061-14.0464 13.4311-8.14475 13.7387-0.55707 14.0464 7.03061 8.14475 13.4311 0.55707 13.7387-7.03061 14.0464-13.4311 8.14475-13.7387 0.55707ZM24.6718 139.227 6.99691 172.561-13.3188 140.768C-14.341 139.168-13.8728 137.042-12.2731 136.02-10.6733 134.998-8.54774 135.466-7.52549 137.066L9.61714 163.893 3.68354 164.134 18.5979 136.006C19.4873 134.329 21.5679 133.69 23.2452 134.58 24.9225 135.469 25.5612 137.55 24.6718 139.227Z" fill="#000000" fill-rule="nonzero" fill-opacity="1" transform="matrix(-1 0 0 1 3051.5 1142.5)"/><path d="M3226.02 1693.21 3241.41 1691.55 3240.9 1691.65 3248.44 1689.66 3248.14 1689.75 3255.5 1687.06 3255.22 1687.17 3262.34 1683.83 3262.08 1683.97 3268.9 1680.03 3268.66 1680.18 3275.12 1675.7 3274.89 1675.87 3280.92 1670.91 3280.71 1671.1 3286.26 1665.7 3286.06 1665.91 3291.06 1660.14 3290.87 1660.38 3295.28 1654.28 3295.1 1654.55 3298.83 1648.18 3298.67 1648.49 3301.68 1641.9 3301.55 1642.25 3303.77 1635.51 3303.67 1635.9 3305.05 1629.05 3304.99 1629.49 3305.46 1622.58 3305.46 1623 3305.27 1619.55 3305.31 1619.91 3304.74 1616.46 3304.86 1616.96 3302.65 1610.1 3302.88 1610.65 3299.31 1603.9 3299.58 1604.33 3294.76 1597.74 3295.02 1598.06 3289.04 1591.69 3289.29 1591.94 3282.24 1585.84 3282.48 1586.03 3274.46 1580.25 3274.69 1580.4 3265.79 1575.01 3266.01 1575.12 3256.34 1570.16 3256.55 1570.26 3246.2 1565.78 3246.4 1565.86 3235.48 1561.92 3235.68 1561.99 3224.27 1558.64 3224.47 1558.69 3212.67 1556 3212.88 1556.04 3200.79 1554.05 3201.01 1554.08 3188.73 1552.84 3188.95 1552.86 3176.58 1552.44 3176.83 1552.43 3164.45 1552.91 3164.7 1552.89 3152.42 1554.27 3152.66 1554.23 3140.57 1556.46 3140.8 1556.41 3129 1559.42 3129.22 1559.36 3117.82 1563.09 3118.03 1563.01 3107.11 1567.42 3107.32 1567.32 3096.97 1572.33 3097.19 1572.21 3087.52 1577.76 3087.74 1577.63 3078.85 1583.66 3079.07 1583.49 3071.05 1589.95 3071.29 1589.74 3064.24 1596.56 3064.48 1596.3 3058.49 1603.42 3058.74 1603.09 3053.91 1610.45 3054.14 1610.04 3050.58 1617.58 3050.77 1617.06 3048.56 1624.73 3048.66 1624.28 3048.52 1625.22 3041.72 1624.22 3041.89 1623.05 3044.24 1614.89 3048.03 1606.88 3053.1 1599.15 3059.33 1591.74 3066.62 1584.69 3074.87 1578.05 3083.99 1571.86 3093.87 1566.19 3104.43 1561.08 3115.57 1556.59 3127.19 1552.79 3139.21 1549.72 3151.53 1547.45 3164.06 1546.04 3176.69 1545.56 3189.3 1545.99 3201.8 1547.25 3214.1 1549.27 3226.1 1552.02 3237.71 1555.42 3248.84 1559.43 3259.38 1563.99 3269.26 1569.07 3278.37 1574.6 3286.62 1580.54 3293.92 1586.86 3300.18 1593.51 3305.28 1600.47 3309.1 1607.71 3311.48 1615.09 3312.12 1618.98 3312.33 1622.84 3311.83 1630.18 3310.37 1637.46 3308.02 1644.59 3304.85 1651.51 3300.95 1658.17 3296.36 1664.52 3291.16 1670.53 3285.4 1676.13 3279.15 1681.27 3272.46 1685.91 3265.4 1689.99 3258.01 1693.46 3250.35 1696.26 3242.4 1698.36 3226.76 1700.05ZM3227.77 1710.31C3220.22 1711.07 3213.47 1705.57 3212.71 1698.01 3211.95 1690.46 3217.45 1683.71 3225.01 1682.95 3232.56 1682.18 3239.31 1687.69 3240.07 1695.25 3240.83 1702.8 3235.33 1709.55 3227.77 1710.31ZM3066.4 1600.79 3044.5 1631.52 3028.53 1597.33C3027.73 1595.61 3028.47 1593.56 3030.19 1592.76 3031.91 1591.96 3033.96 1592.7 3034.76 1594.42L3048.23 1623.27 3042.32 1622.73 3060.8 1596.8C3061.9 1595.25 3064.05 1594.89 3065.59 1596 3067.14 1597.1 3067.5 1599.25 3066.4 1600.79Z" fill="#000000" fill-rule="nonzero" fill-opacity="1"/><path d="M1945 687C1945 651.101 1974.1 622 2010 622L2244 622C2279.9 622 2309 651.101 2309 687L2309 687C2309 722.899 2279.9 752 2244 752L2010 752C1974.1 752 1945 722.898 1945 687Z" stroke="#7F7F7F" stroke-width="2.29167" stroke-linecap="butt" stroke-linejoin="miter" stroke-miterlimit="8" stroke-opacity="1" fill="#86C540" fill-rule="evenodd" fill-opacity="1"/><text fill="#000000" fill-opacity="1" font-family="Arial,Arial_MSFontService,sans-serif" font-style="normal" font-variant="normal" font-weight="400" font-stretch="normal" font-size="55" text-anchor="start" direction="ltr" writing-mode="lr-tb" unicode-bidi="normal" text-decoration="none" transform="matrix(1 0 0 1 2055.88 707)">World</text><path d="M2128.43 749.191 3045.54 1007.25 3043.68 1013.87 2126.57 755.809ZM2123.78 765.736C2116.47 763.679 2112.21 756.086 2114.26 748.776 2116.32 741.466 2123.91 737.207 2131.22 739.264 2138.53 741.321 2142.79 748.914 2140.74 756.224 2138.68 763.534 2131.09 767.793 2123.78 765.736ZM3024.95 985.275 3051.17 1012.4 3014.65 1021.88C3012.82 1022.35 3010.94 1021.25 3010.46 1019.41 3009.99 1017.57 3011.09 1015.7 3012.93 1015.22L3043.74 1007.23 3042.14 1012.94 3020.01 990.053C3018.69 988.688 3018.73 986.512 3020.09 985.193 3021.46 983.873 3023.63 983.91 3024.95 985.275Z" fill="#000000" fill-rule="nonzero" fill-opacity="1"/><path d="M1483 1081C1483 1045.1 1512.1 1016 1548 1016L1782 1016C1817.9 1016 1847 1045.1 1847 1081L1847 1081C1847 1116.9 1817.9 1146 1782 1146L1548 1146C1512.1 1146 1483 1116.9 1483 1081Z" stroke="#7F7F7F" stroke-width="2.29167" stroke-linecap="butt" stroke-linejoin="miter" stroke-miterlimit="8" stroke-opacity="1" fill="#86C540" fill-rule="evenodd" fill-opacity="1"/><text fill="#000000" fill-opacity="1" font-family="Arial,Arial_MSFontService,sans-serif" font-style="normal" font-variant="normal" font-weight="400" font-stretch="normal" font-size="55" text-anchor="start" direction="ltr" writing-mode="lr-tb" unicode-bidi="normal" text-decoration="none" transform="matrix(1 0 0 1 1611.89 1101)">user</text><path d="M1945 1078C1945 1042.1 1974.1 1013 2010 1013L2244 1013C2279.9 1013 2309 1042.1 2309 1078L2309 1078C2309 1113.9 2279.9 1143 2244 1143L2010 1143C1974.1 1143 1945 1113.9 1945 1078Z" stroke="#7F7F7F" stroke-width="2.29167" stroke-linecap="butt" stroke-linejoin="miter" stroke-miterlimit="8" stroke-opacity="1" fill="#86C540" fill-rule="evenodd" fill-opacity="1"/><text fill="#000000" fill-opacity="1" font-family="Arial,Arial_MSFontService,sans-serif" font-style="normal" font-variant="normal" font-weight="400" font-stretch="normal" font-size="55" text-anchor="start" direction="ltr" writing-mode="lr-tb" unicode-bidi="normal" text-decoration="none" transform="matrix(1 0 0 1 2072.29 1098)">view</text><path d="M2407 1078C2407 1042.1 2436.1 1013 2472 1013L2706 1013C2741.9 1013 2771 1042.1 2771 1078L2771 1078C2771 1113.9 2741.9 1143 2706 1143L2472 1143C2436.1 1143 2407 1113.9 2407 1078Z" stroke="#7F7F7F" stroke-width="2.29167" stroke-linecap="butt" stroke-linejoin="miter" stroke-miterlimit="8" stroke-opacity="1" fill="#86C540" fill-rule="evenodd" fill-opacity="1"/><text fill="#000000" fill-opacity="1" font-family="Arial,Arial_MSFontService,sans-serif" font-style="normal" font-variant="normal" font-weight="400" font-stretch="normal" font-size="55" text-anchor="start" direction="ltr" writing-mode="lr-tb" unicode-bidi="normal" text-decoration="none" transform="matrix(1 0 0 1 2520.37 1098)">portal</text><rect x="1505" y="1621" width="363" height="130" stroke="#7F7F7F" stroke-width="2.29167" stroke-linecap="butt" stroke-linejoin="miter" stroke-miterlimit="8" stroke-opacity="1" fill="#00B0F0" fill-opacity="1"/><text fill="#000000" fill-opacity="1" font-family="Arial,Arial_MSFontService,sans-serif" font-style="normal" font-variant="normal" font-weight="400" font-stretch="normal" font-size="55" text-anchor="start" direction="ltr" writing-mode="lr-tb" unicode-bidi="normal" text-decoration="none" transform="matrix(1 0 0 1 1607.63 1706)">Avatar</text><path d="M1689.94 1139.5 1689.94 1614.14 1683.06 1614.14 1683.06 1139.5ZM1672.75 1139.5C1672.75 1131.91 1678.91 1125.75 1686.5 1125.75 1694.09 1125.75 1700.25 1131.91 1700.25 1139.5 1700.25 1147.09 1694.09 1153.25 1686.5 1153.25 1678.91 1153.25 1672.75 1147.09 1672.75 1139.5ZM1705.51 1588.37 1686.5 1620.96 1667.49 1588.37C1666.53 1586.73 1667.09 1584.62 1668.73 1583.67 1670.37 1582.71 1672.47 1583.26 1673.43 1584.9L1689.47 1612.4 1683.53 1612.4 1699.57 1584.9C1700.53 1583.26 1702.63 1582.71 1704.27 1583.67 1705.91 1584.62 1706.47 1586.73 1705.51 1588.37Z" fill="#000000" fill-rule="nonzero" fill-opacity="1"/><path d="M1.70333-2.98581 457.618 257.101 454.211 263.073-1.70333 2.98581ZM-6.81331 11.9433C-13.4094 8.18037-15.7061-0.217229-11.9433-6.81331-8.18037-13.4094 0.217229-15.7061 6.81331-11.9433 13.4094-8.18037 15.7061 0.217229 11.9433 6.81331 8.18037 13.4094-0.217229 15.7061-6.81331 11.9433ZM442.955 230.807 461.843 263.469 424.115 263.833C422.216 263.852 420.663 262.327 420.644 260.429 420.626 258.531 422.15 256.977 424.049 256.958L455.884 256.651 452.941 261.809 437.004 234.249C436.053 232.606 436.615 230.503 438.259 229.552 439.902 228.602 442.005 229.164 442.955 230.807Z" fill="#000000" fill-rule="nonzero" fill-opacity="1" transform="matrix(-1 0 0 1 2127.33 752.5)"/><path d="M2130.94 752.5 2130.94 1006.5 2124.06 1006.5 2124.06 752.5ZM2113.75 752.5C2113.75 744.906 2119.91 738.75 2127.5 738.75 2135.09 738.75 2141.25 744.906 2141.25 752.5 2141.25 760.094 2135.09 766.25 2127.5 766.25 2119.91 766.25 2113.75 760.094 2113.75 752.5ZM2146.51 980.734 2127.5 1013.32 2108.49 980.734C2107.53 979.094 2108.09 976.989 2109.73 976.033 2111.37 975.076 2113.47 975.63 2114.43 977.27L2130.47 1004.77 2124.53 1004.77 2140.57 977.27C2141.53 975.63 2143.63 975.076 2145.27 976.033 2146.91 976.989 2147.47 979.094 2146.51 980.734Z" fill="#000000" fill-rule="nonzero" fill-opacity="1"/><path d="M2129.19 749.507 2585.09 1006.97 2581.71 1012.95 2125.81 755.493ZM2120.74 764.473C2114.13 760.738 2111.79 752.351 2115.53 745.739 2119.26 739.126 2127.65 736.793 2134.26 740.527 2140.87 744.261 2143.21 752.649 2139.47 759.261 2135.74 765.874 2127.35 768.207 2120.74 764.473ZM2570.31 980.737 2589.34 1013.32 2551.62 1013.84C2549.72 1013.87 2548.16 1012.35 2548.13 1010.45 2548.11 1008.56 2549.62 1007 2551.52 1006.97L2583.35 1006.52 2580.43 1011.7 2564.38 984.204 2564.38 984.204C2563.42 982.565 2563.97 980.46 2565.61 979.502 2567.25 978.545 2569.36 979.097 2570.31 980.737Z" fill="#000000" fill-rule="nonzero" fill-opacity="1"/><path d="M1021 1078C1021 1042.1 1050.1 1013 1086 1013L1320 1013C1355.9 1013 1385 1042.1 1385 1078L1385 1078C1385 1113.9 1355.9 1143 1320 1143L1086 1143C1050.1 1143 1021 1113.9 1021 1078Z" stroke="#7F7F7F" stroke-width="2.29167" stroke-linecap="butt" stroke-linejoin="miter" stroke-miterlimit="8" stroke-opacity="1" fill="#86C540" fill-rule="evenodd" fill-opacity="1"/><text fill="#000000" fill-opacity="1" font-family="Arial,Arial_MSFontService,sans-serif" font-style="normal" font-variant="normal" font-weight="400" font-stretch="normal" font-size="55" text-anchor="start" direction="ltr" writing-mode="lr-tb" unicode-bidi="normal" text-decoration="none" transform="matrix(1 0 0 1 1157.79 1098)">app</text><path d="M0.934104-3.30815 918.049 255.652 916.181 262.269-0.934104 3.30815ZM-3.73642 13.2326C-11.0446 11.169-15.2962 3.57174-13.2326-3.73642-11.169-11.0446-3.57174-15.2962 3.73642-13.2326 11.0446-11.169 15.2962-3.57174 13.2326 3.73642 11.169 11.0446 3.57174 15.2962-3.73642 13.2326ZM897.476 233.661 923.674 260.813 887.144 270.252C885.306 270.727 883.431 269.622 882.956 267.784 882.481 265.946 883.586 264.071 885.424 263.596L916.248 255.631 914.634 261.346 892.528 238.435C891.21 237.068 891.249 234.892 892.615 233.574 893.981 232.256 896.158 232.295 897.476 233.661Z" fill="#000000" fill-rule="nonzero" fill-opacity="1" transform="matrix(-1 0 0 1 2127.16 752.5)"/><path d="M2591.75 1140.9 2607.33 1154.42 2602.83 1159.61 2587.25 1146.1ZM2612.53 1158.92 2628.11 1172.44 2623.6 1177.63 2608.02 1164.12ZM2633.3 1176.94 2648.88 1190.46 2644.37 1195.65 2628.79 1182.14ZM2654.07 1194.96 2669.65 1208.48 2665.15 1213.67 2649.57 1200.16ZM2674.85 1212.98 2690.43 1226.5 2685.92 1231.69 2670.34 1218.18ZM2695.62 1231 2711.2 1244.52 2706.69 1249.71 2691.11 1236.2ZM2716.39 1249.02 2731.97 1262.54 2727.47 1267.73 2711.89 1254.22ZM2737.17 1267.04 2752.75 1280.56 2748.24 1285.75 2732.66 1272.24ZM2757.94 1285.06 2773.52 1298.58 2769.01 1303.77 2753.43 1290.26ZM2778.71 1303.08 2794.29 1316.6 2789.79 1321.79 2774.21 1308.28ZM2799.49 1321.1 2815.07 1334.62 2810.56 1339.81 2794.98 1326.3ZM2820.26 1339.12 2835.84 1352.64 2831.34 1357.83 2815.76 1344.32ZM2841.03 1357.14 2856.61 1370.66 2852.11 1375.85 2836.53 1362.33ZM2580.49 1153.89C2574.75 1148.91 2574.14 1140.23 2579.11 1134.49 2584.09 1128.75 2592.77 1128.14 2598.51 1133.11 2604.25 1138.09 2604.86 1146.77 2599.89 1152.51 2594.91 1158.25 2586.23 1158.86 2580.49 1153.89ZM2850.29 1344.56 2862.46 1380.27 2825.38 1373.28C2823.51 1372.93 2822.29 1371.13 2822.64 1369.26 2822.99 1367.4 2824.79 1366.17 2826.65 1366.52L2857.94 1372.43 2854.05 1376.91 2843.79 1346.77C2843.17 1344.98 2844.13 1343.02 2845.93 1342.41 2847.73 1341.8 2849.68 1342.76 2850.29 1344.56Z" fill="#000000" fill-rule="nonzero" fill-opacity="1"/><path d="M2128.55 1140.23 2148.19 1146.55 2146.08 1153.1 2126.45 1146.77ZM2154.73 1148.66 2174.36 1154.99 2172.25 1161.53 2152.62 1155.21ZM2180.9 1157.1 2200.53 1163.42 2198.43 1169.97 2178.8 1163.64ZM2207.08 1165.53 2226.71 1171.86 2224.6 1178.4 2204.97 1172.07ZM2233.25 1173.97 2252.88 1180.29 2250.78 1186.83 2231.14 1180.51ZM2259.43 1182.4 2279.06 1188.72 2276.95 1195.27 2257.32 1188.94ZM2285.6 1190.83 2305.23 1197.16 2303.12 1203.7 2283.49 1197.38ZM2311.78 1199.27 2331.41 1205.59 2329.3 1212.14 2309.67 1205.81ZM2337.95 1207.7 2357.58 1214.03 2355.47 1220.57 2335.84 1214.25ZM2364.13 1216.14 2383.76 1222.46 2381.65 1229.01 2362.02 1222.68ZM2390.3 1224.57 2409.93 1230.9 2407.82 1237.44 2388.19 1231.11ZM2416.48 1233 2436.11 1239.33 2434 1245.87 2414.37 1239.55ZM2442.65 1241.44 2462.28 1247.76 2460.17 1254.31 2440.54 1247.98ZM2468.83 1249.87 2488.46 1256.2 2486.35 1262.74 2466.72 1256.42ZM2495 1258.31 2514.63 1264.63 2512.52 1271.18 2492.89 1264.85ZM2521.17 1266.74 2540.81 1273.07 2538.7 1279.61 2519.07 1273.28ZM2547.35 1275.18 2566.98 1281.5 2564.87 1288.04 2545.24 1281.72ZM2573.52 1283.61 2593.16 1289.94 2591.05 1296.48 2571.42 1290.15ZM2599.7 1292.04 2619.33 1298.37 2617.22 1304.91 2597.59 1298.59ZM2625.87 1300.48 2645.5 1306.8 2643.4 1313.35 2623.76 1307.02ZM2652.05 1308.91 2671.68 1315.24 2669.57 1321.78 2649.94 1315.46ZM2678.22 1317.35 2697.85 1323.67 2695.75 1330.22 2676.11 1323.89ZM2704.4 1325.78 2724.03 1332.11 2721.92 1338.65 2702.29 1332.32ZM2730.57 1334.21 2750.2 1340.54 2748.09 1347.08 2728.46 1340.76ZM2756.75 1342.65 2776.38 1348.97 2774.27 1355.52 2754.64 1349.19ZM2782.92 1351.08 2802.55 1357.41 2800.44 1363.95 2780.81 1357.63ZM2809.1 1359.52 2828.73 1365.84 2826.62 1372.39 2806.99 1366.06ZM2835.27 1367.95 2854.9 1374.28 2852.79 1380.82 2833.16 1374.5ZM2123.28 1156.59C2116.05 1154.26 2112.08 1146.51 2114.41 1139.28 2116.74 1132.06 2124.49 1128.08 2131.72 1130.41 2138.95 1132.74 2142.92 1140.49 2140.59 1147.72 2138.26 1154.95 2130.51 1158.92 2123.28 1156.59ZM2837.1 1352.18 2862.29 1380.27 2825.44 1388.37C2823.58 1388.78 2821.75 1387.6 2821.34 1385.75 2820.93 1383.89 2822.11 1382.06 2823.96 1381.65L2855.06 1374.82 2853.24 1380.47 2831.98 1356.77C2830.71 1355.36 2830.83 1353.18 2832.24 1351.91 2833.66 1350.65 2835.83 1350.77 2837.1 1352.18Z" fill="#000000" fill-rule="nonzero" fill-opacity="1"/></g></g></svg>